<svg width="24" height="24" viewBox="0 0 24 24" fill="none" xmlns="http://www.w3.org/2000/svg">
<g id="Inst">
<path id="XMLID_142_" fill-rule="evenodd" clip-rule="evenodd" d="M20.2923 3.68349C20.8461 4.23947 21.1846 4.79546 21.4384 5.45183C21.6846 6.08503 21.8538 6.8109 21.9 7.87654C21.9538 8.94218 21.9615 9.28194 21.9615 12.0001C21.9615 14.7029 21.9463 15.0541 21.9008 16.1057L21.9 16.1236C21.8538 17.1816 21.6846 17.9151 21.4384 18.5484C21.1846 19.2047 20.8461 19.7607 20.2923 20.3167C19.7384 20.8727 19.1846 21.2124 18.5308 21.4673C17.9 21.7144 17.1769 21.8843 16.1154 21.9306C15.0538 21.9846 14.7154 21.9924 12.0077 21.9924C9.3153 21.9924 8.96543 21.9771 7.91793 21.9314L7.89999 21.9306C6.84614 21.8843 6.11537 21.7144 5.4846 21.4673C4.83076 21.2124 4.27691 20.8727 3.72306 20.3167C3.16922 19.7607 2.83076 19.2047 2.57691 18.5484C2.33076 17.9151 2.16153 17.1893 2.11537 16.1236C2.06153 15.058 2.05383 14.7182 2.05383 12.0001C2.05383 9.29727 2.06904 8.94608 2.11459 7.8945L2.11537 7.87654C2.16153 6.81862 2.33076 6.08503 2.57691 5.45183C2.83076 4.79546 3.16922 4.23947 3.72306 3.68349C4.27691 3.1275 4.83076 2.78774 5.4846 2.53291C6.11537 2.2858 6.83845 2.11592 7.89999 2.06959C8.96152 2.01553 9.29999 2.00781 12.0077 2.00781C14.7001 2.00781 15.0499 2.02308 16.0975 2.06881L16.1154 2.06959C17.1692 2.11592 17.9 2.2858 18.5308 2.53291C19.1846 2.78774 19.7384 3.1275 20.2923 3.68349ZM19.7615 17.892C19.9 17.5445 20.0615 17.0117 20.1077 16.0387L20.109 16.0088C20.1541 14.9821 20.1692 14.6388 20.1692 12.0001C20.1692 9.3714 20.1542 9.02822 20.1095 8.00327L20.1077 7.96148C20.0615 6.98851 19.9 6.46341 19.7615 6.1082C19.5769 5.63716 19.3615 5.30511 19.0154 4.95762C18.6692 4.61013 18.3308 4.38619 17.8692 4.20858C17.5231 4.06959 16.9923 3.90743 16.0231 3.86109C14.9769 3.80704 14.6538 3.79932 12 3.79932C9.3814 3.79932 9.03955 3.81435 8.01854 3.85926L7.97691 3.86109C7.00768 3.90743 6.4846 4.06959 6.13076 4.20858C5.66153 4.39391 5.33076 4.61013 4.9846 4.95762C4.63845 5.30511 4.41537 5.64488 4.23845 6.1082C4.09999 6.45569 3.93845 6.98851 3.89229 7.96148C3.83845 9.01167 3.83076 9.336 3.83076 12.0001C3.83076 14.6288 3.84573 14.972 3.89047 15.9969L3.89229 16.0387C3.93845 17.0117 4.09999 17.5368 4.23845 17.892C4.42306 18.363 4.63845 18.6951 4.9846 19.0426C5.33076 19.3901 5.66922 19.614 6.13076 19.7916C6.47691 19.9306 7.00768 20.0928 7.97691 20.1391C9.02306 20.1931 9.33845 20.2009 12 20.2009C14.6188 20.2009 14.9587 20.1859 15.9729 20.1413L16.0231 20.1391C16.9923 20.0928 17.5154 19.9306 17.8692 19.7916C18.3384 19.6063 18.6692 19.3901 19.0154 19.0426C19.3615 18.6951 19.5846 18.3553 19.7615 17.892Z" fill="#4C65FF"/>
<path id="XMLID_145_" fill-rule="evenodd" clip-rule="evenodd" d="M6.88464 11.9999C6.88464 9.1659 9.17695 6.86475 12 6.86475C14.8231 6.86475 17.1154 9.1659 17.1154 11.9999C17.1154 14.8339 14.8231 17.135 12 17.135C9.17695 17.135 6.88464 14.8339 6.88464 11.9999ZM8.67695 11.9999C8.67695 13.8454 10.1693 15.3358 12 15.3358C13.8308 15.3358 15.3231 13.8377 15.3231 11.9999C15.3231 10.1543 13.8385 8.66397 12 8.66397C10.1616 8.66397 8.67695 10.162 8.67695 11.9999Z" fill="#4C65FF"/>
<ellipse id="XMLID_143_" cx="17.3154" cy="6.6642" rx="1.19231" ry="1.19691" fill="#4C65FF"/>
</g>
</svg>
