<svg width="105" height="28" viewBox="0 0 105 28" fill="none" xmlns="http://www.w3.org/2000/svg">
<path d="M0 22.5095C0 22.7621 0.202105 22.9895 0.48 22.9895H2.12211C2.37474 22.9895 2.60211 22.7621 2.60211 22.5095V16.0674H6.41684L9.77684 22.7621C9.82737 22.8632 9.97895 22.9895 10.1811 22.9895H12.1516C12.5811 22.9895 12.7579 22.5853 12.5811 22.2568L9.12 15.84C11.3179 14.9558 12.8589 13.0358 12.8589 10.7116C12.8589 7.70526 10.3832 5.30526 7.35158 5.30526H0.48C0.202105 5.30526 0 5.53263 0 5.78526V22.5095ZM2.65263 13.8947V7.75578H7.14947C8.79158 7.75578 10.2316 9.12 10.2316 10.7621C10.2316 12.5053 8.79158 13.8947 7.14947 13.8947H2.65263Z" fill="black"/>
<path d="M16.842 22.5095C16.842 22.7621 17.0441 22.9895 17.322 22.9895H27.4273C27.7052 22.9895 27.9073 22.7621 27.9073 22.5095V21.12C27.9073 20.8674 27.7052 20.64 27.4273 20.64H19.4441V15.2084H26.1894C26.442 15.2084 26.6694 15.0063 26.6694 14.7284V13.3137C26.6694 13.061 26.442 12.8337 26.1894 12.8337H19.4441V7.68H27.4273C27.7052 7.68 27.9073 7.45263 27.9073 7.2V5.78526C27.9073 5.53263 27.7052 5.30526 27.4273 5.30526H17.322C17.0441 5.30526 16.842 5.53263 16.842 5.78526V22.5095Z" fill="black"/>
<path d="M30.3157 14.1726C30.3157 19.2252 34.3325 23.2421 39.3851 23.2421C39.8399 23.2421 40.3957 23.2168 40.8757 23.141L43.6041 27.7389C43.7051 27.9158 43.9073 27.9916 44.0083 27.9916H45.9788C46.383 27.9916 46.6104 27.5874 46.383 27.2337L43.3262 22.3831C46.383 20.8674 48.4799 17.76 48.4799 14.1726C48.4799 9.11998 44.4378 5.05261 39.3851 5.05261C34.3325 5.05261 30.3157 9.11998 30.3157 14.1726ZM32.842 14.1726C32.842 10.5852 35.7978 7.57893 39.3851 7.57893C42.9978 7.57893 45.9536 10.5852 45.9536 14.1726C45.9536 17.7852 42.9978 20.7158 39.3851 20.7158C35.7978 20.7158 32.842 17.7852 32.842 14.1726Z" fill="url(#paint0_linear_219_52)"/>
<path d="M50.9471 14.1726C50.9471 19.2252 55.0145 23.2421 60.0671 23.2421C62.3155 23.2421 64.4882 22.4589 66.206 20.7916C66.3829 20.6147 66.4334 20.2863 66.2313 20.1095L65.0692 18.9726C64.9176 18.8463 64.6903 18.821 64.4629 18.9979C63.2503 19.9326 61.9618 20.6652 60.1176 20.6652C56.505 20.6652 53.7513 17.6589 53.7513 14.1221C53.7513 10.5852 56.4797 7.55367 60.0924 7.55367C61.6587 7.55367 63.2755 8.21051 64.4629 9.2463C64.6903 9.47366 64.9176 9.47366 65.0945 9.2463L66.206 8.10945C66.4082 7.90735 66.4082 7.60419 66.1808 7.40209C64.4629 5.91156 62.6187 5.05261 60.0671 5.05261C55.0145 5.05261 50.9471 9.11998 50.9471 14.1726Z" fill="black"/>
<path d="M69.6844 22.5095C69.6844 22.7621 69.9118 22.9895 70.1644 22.9895H71.8318C72.0844 22.9895 72.3118 22.7621 72.3118 22.5095V5.78526C72.3118 5.53263 72.0844 5.30526 71.8318 5.30526H70.1644C69.9118 5.30526 69.6844 5.53263 69.6844 5.78526V22.5095Z" fill="black"/>
<path d="M80.1771 22.5095C80.1771 22.7621 80.4045 22.9895 80.6571 22.9895H82.3245C82.5772 22.9895 82.8045 22.7621 82.8045 22.5095V7.68H86.9224C87.2003 7.68 87.4024 7.45263 87.4024 7.2V5.78526C87.4024 5.53263 87.2003 5.30526 86.9224 5.30526H76.0593C75.7814 5.30526 75.5793 5.53263 75.5793 5.78526V7.2C75.5793 7.45263 75.7814 7.68 76.0593 7.68H80.1771V22.5095Z" fill="black"/>
<path d="M96.0965 22.5095C96.0965 22.7621 96.2986 22.9895 96.5765 22.9895H98.2439C98.4965 22.9895 98.7239 22.7621 98.7239 22.5095V14.4505L104.711 6.03789C104.913 5.70947 104.711 5.30526 104.307 5.30526H102.412C102.235 5.30526 102.084 5.43157 102.008 5.53263L97.4354 11.9747L92.8628 5.53263C92.787 5.43157 92.6607 5.30526 92.4586 5.30526H90.5891C90.1849 5.30526 89.9828 5.70947 90.1849 6.03789L96.0965 14.4758V22.5095Z" fill="black"/>
<defs>
<linearGradient id="paint0_linear_219_52" x1="39.3978" y1="5.05261" x2="39.3978" y2="27.9916" gradientUnits="userSpaceOnUse">
<stop stop-color="#4C65FF"/>
<stop offset="1" stop-color="#002DD8"/>
</linearGradient>
</defs>
</svg>
