<?xml version="1.0" encoding="UTF-8"?>
<svg width="107px" height="32px" viewBox="0 0 107 32" version="1.1" xmlns="http://www.w3.org/2000/svg" xmlns:xlink="http://www.w3.org/1999/xlink">
    <title>FC04F486-8A42-47FD-93D5-E964CDBF15B0</title>
    <defs>
        <linearGradient x1="49.9984472%" y1="100.265508%" x2="49.9984472%" y2="-260.382794%" id="linearGradient-1">
            <stop stop-color="#1A1A1A" stop-opacity="0.1" offset="0%"></stop>
            <stop stop-color="#212121" stop-opacity="0.151" offset="12.3%"></stop>
            <stop stop-color="#353535" stop-opacity="0.227" offset="30.8%"></stop>
            <stop stop-color="#575757" stop-opacity="0.318" offset="53.2%"></stop>
            <stop stop-color="#858585" stop-opacity="0.421" offset="78.3%"></stop>
            <stop stop-color="#B3B3B3" stop-opacity="0.51" offset="100%"></stop>
        </linearGradient>
    </defs>
    <g id="Email-Template" stroke="none" stroke-width="1" fill="none" fill-rule="evenodd">
        <g id="D---Email---Welcome-Email" transform="translate(-265.000000, -921.000000)" fill-rule="nonzero">
            <g id="Footer" transform="translate(0.000000, 737.000000)">
                <g id="Group-2" transform="translate(265.000000, 128.000000)">
                    <g id="app-store" transform="translate(0.000000, 56.000000)">
                        <path d="M105.763156,28.046866 C105.763156,28.8552156 105.444313,29.6304108 104.876856,30.2017018 C104.309399,30.7729928 103.539877,31.0935166 102.73779,31.0926741 L3.73160116,31.0926741 C2.06060891,31.0944303 0.704466773,29.7309041 0.702289075,28.046866 L0.702289075,3.75755478 C0.704465621,2.07287383 2.05997016,0.708209515 3.73160116,0.707772224 L102.737001,0.707772224 C103.539515,0.707772224 104.309148,1.02911303 104.876537,1.60108108 C105.443926,2.17304912 105.763156,2.94877529 105.763156,3.75755478 L105.763156,28.046866 Z" id="Path" fill="#FFFFFF"></path>
                        <path d="M102.73779,31.8012398 L3.73160116,31.8012398 C1.67333723,31.800805 0.0039163133,30.1211962 0,28.046866 L0,3.75835003 C0.00304486963,1.68301172 1.67233909,0.00175166378 3.73160116,0 L102.737001,0 C104.795903,0.00262558432 106.46469,1.68337464 106.468603,3.75835003 L106.468603,28.046866 C106.47018,30.1176962 104.793366,31.8012398 102.73779,31.8012398 L102.73779,31.8012398 Z" id="Path" fill="#000000"></path>
                        <path d="M105.763156,28.046866 C105.763156,28.8552156 105.444313,29.6304108 104.876856,30.2017018 C104.309399,30.7729928 103.539877,31.0935166 102.73779,31.0926741 L3.73160116,31.0926741 C2.06060891,31.0944303 0.704466773,29.7309041 0.702289075,28.046866 L0.702289075,3.75755478 C0.704465621,2.07287383 2.05997016,0.708209515 3.73160116,0.707772224 L102.737001,0.707772224 C103.539515,0.707772224 104.309148,1.02911303 104.876537,1.60108108 C105.443926,2.17304912 105.763156,2.94877529 105.763156,3.75755478 L105.763156,28.046866 Z" id="Path" fill="#000000"></path>
                        <path d="M23.7736688,15.7332199 C23.7507852,13.1701301 25.8560743,11.9231786 25.9523431,11.8651254 C24.7600299,10.1131903 22.9119838,9.87382014 22.2625637,9.85473415 C20.7104259,9.69011747 19.2048444,10.790743 18.4141774,10.790743 C17.6077286,10.790743 16.3901645,9.87063915 15.0779097,9.89767763 C13.3892596,9.92392087 11.8095037,10.9092352 10.9430841,12.4392956 C9.15500881,15.5590602 10.488569,20.1436746 12.2016809,22.6654114 C13.0586313,23.9012294 14.0599851,25.2793971 15.3706617,25.2308869 C16.652931,25.1784004 17.131908,24.4078035 18.6793112,24.4078035 C20.2125108,24.4078035 20.6622915,25.2308869 21.999008,25.1998722 C23.3751789,25.1784004 24.2415985,23.9592826 25.0685636,22.7131264 C26.0588701,21.2983772 26.4565709,19.9035092 26.4723527,19.8319368 C26.4407891,19.8208033 23.8004978,18.8044742 23.7736688,15.7332199 Z M21.2485845,8.1958433 C21.9382481,7.32663539 22.4101233,6.1440991 22.2791345,4.94406732 C21.2809371,4.9886013 20.0325986,5.6399108 19.3137386,6.49003272 C18.677733,7.23915792 18.1095891,8.46702344 18.2563596,9.62172599 C19.3776548,9.70602246 20.5289355,9.05153197 21.2485845,8.1958433 L21.2485845,8.1958433 Z" id="Shape" fill="#FFFFFF"></path>
                        <path d="M102.73779,0 L49.7070738,0 L70.4782595,31.8012398 L102.73779,31.8012398 C104.796437,31.7994902 106.465477,30.1191974 106.469391,28.0444803 L106.469391,3.75835003 C106.465912,1.68319323 104.796872,0.00218880033 102.73779,0 Z" id="Path" fill="url(#linearGradient-1)"></path>
                        <g id="Group" transform="translate(33.141732, 13.519245)" fill="#FFFFFF">
                            <path d="M9.20472141,11.5343015 L7.41270064,11.5343015 L6.43107411,8.42567046 L3.01905393,8.42567046 L2.08398365,11.5343015 L0.339308205,11.5343015 L3.72055392,0.951118629 L5.80848301,0.951118629 L9.20472141,11.5343015 L9.20472141,11.5343015 Z M6.13516579,7.12146097 L5.24744084,4.3579683 C5.15353927,4.07565466 4.97678336,3.41082592 4.71796222,2.36427733 L4.68639867,2.36427733 C4.58223894,2.81438865 4.41574119,3.47921739 4.18769452,4.3579683 L3.31496225,7.12146097 L6.13516579,7.12146097 Z M17.8831206,7.62485402 C17.8831206,8.92270152 17.5335542,9.94857361 16.8336324,10.7016751 C16.2070958,11.3720706 15.4282652,11.7068707 14.4995076,11.7068707 C13.4965757,11.7068707 12.7753484,11.3466226 12.3374041,10.6245359 L12.3374041,14.628618 L10.6550667,14.628618 L10.6550667,6.411303 C10.6550667,5.59617206 10.6337613,4.76036464 10.5927287,3.90308548 L12.0722703,3.90308548 L12.1661719,5.11266025 L12.1977354,5.11266025 C12.7587776,4.20130411 13.6102044,3.74562604 14.7528051,3.74562604 C15.6460537,3.74562604 16.3917426,4.10110265 16.9882938,4.81285112 C17.5840559,5.52619009 17.8831206,6.46299423 17.8831206,7.62485402 Z M16.1692196,7.6868835 C16.1692196,6.94412029 16.0035109,6.33177803 15.6705154,5.84906147 C15.3067455,5.34725891 14.8182995,5.09596001 14.2059665,5.09596001 C13.7909058,5.09596001 13.4137213,5.23592396 13.0767804,5.5118756 C12.7390504,5.79021299 12.5181055,6.1536421 12.4147348,6.60375342 C12.3685881,6.77208522 12.3423659,6.94532848 12.336615,7.11987047 L12.336615,8.39306522 C12.336615,8.94735426 12.5054801,9.41575632 12.8432101,9.79906667 C13.1809401,10.1807865 13.6196735,10.3724417 14.1594103,10.3724417 C14.7930486,10.3724417 15.2862292,10.125119 15.6389519,9.63444999 C15.9924637,9.14219043 16.1692196,8.49326668 16.1692196,7.6868835 L16.1692196,7.6868835 Z M26.5922942,7.62485402 C26.5922942,8.92270152 26.2427278,9.94857361 25.542806,10.7016751 C24.9154804,11.3720706 24.1374388,11.7068707 23.2078921,11.7068707 C22.2049602,11.7068707 21.483733,11.3466226 21.0457887,10.6245359 L21.0457887,14.628618 L19.3634512,14.628618 L19.3634512,6.411303 C19.3634512,5.59617206 19.3421458,4.76036464 19.3011132,3.90308548 L20.7806548,3.90308548 L20.8745564,5.11266025 L20.9061199,5.11266025 C21.466373,4.20130411 22.3177999,3.74562604 23.4611896,3.74562604 C24.3536491,3.74562604 25.0993381,4.10110265 25.6974674,4.81285112 C26.2924404,5.52619009 26.5922942,6.46299423 26.5922942,7.62485402 L26.5922942,7.62485402 Z M24.8776041,7.6868835 C24.8776041,6.94412029 24.7111064,6.33177803 24.3781109,5.84906147 C24.0143409,5.34725891 23.5274731,5.09596001 22.9151401,5.09596001 C22.5000794,5.09596001 22.1228949,5.23592396 21.7843758,5.5118756 C21.4466458,5.79021299 21.22649,6.1536421 21.1231194,6.60375342 C21.0718286,6.81369934 21.0442105,6.98467802 21.0442105,7.11987047 L21.0442105,8.39306522 C21.0442105,8.94735426 21.2138646,9.41575632 21.5500164,9.79906667 C21.8877465,10.1799913 22.3264799,10.3724417 22.8677948,10.3724417 C23.5022222,10.3724417 23.9954028,10.125119 24.3473364,9.63444999 C24.7008482,9.14219043 24.8776041,8.49326668 24.8776041,7.6868835 L24.8776041,7.6868835 Z M36.3296506,8.5656344 C36.3296506,9.4666523 36.0171714,10.1990773 35.3961584,10.7644998 C34.7128075,11.3816136 33.7587991,11.6909657 32.5357114,11.6909657 C31.4057361,11.6909657 30.4998621,11.4714768 29.8165112,11.0317037 L30.205532,9.61854499 C30.9433301,10.0591133 31.7537243,10.2786022 32.6359257,10.2786022 C33.2703531,10.2786022 33.7635336,10.1338668 34.1154672,9.84678165 C34.46819,9.55890127 34.646524,9.17400042 34.646524,8.6936696 C34.646524,8.26343952 34.4989644,7.90319141 34.2093688,7.60974428 C33.918195,7.31709239 33.4368508,7.04432175 32.7606017,6.7938181 C30.9220247,6.10274612 30.0019471,5.09198376 30.0019471,3.76232628 C30.0019471,2.89391362 30.3270517,2.1829604 30.9756827,1.62708086 C31.6243138,1.07199658 32.4844206,0.79445444 33.5544251,0.79445444 C34.5100117,0.79445444 35.3062023,0.962252124 35.9382625,1.29705224 L35.5161,2.6791962 C34.921127,2.35473433 34.2496124,2.19250339 33.4983998,2.19250339 C32.905005,2.19250339 32.4394425,2.33962459 32.106447,2.63227647 C31.8263205,2.89391362 31.6842845,3.21280875 31.6842845,3.5913476 C31.6842845,4.00885368 31.8460477,4.35558255 32.167996,4.62755794 C32.4473334,4.8780616 32.9570848,5.15083224 33.6940938,5.44348412 C34.5983896,5.81088948 35.2628024,6.23873381 35.6881213,6.73019812 C36.1165966,7.22166243 36.3296506,7.83479994 36.3296506,8.5656344 Z M41.9061414,5.17548498 L40.0517826,5.17548498 L40.0517826,8.88055328 C40.0517826,9.82292416 40.3784654,10.2929167 41.0334092,10.2929167 C41.334052,10.2929167 41.5834041,10.2674687 41.7806763,10.214187 L41.8272326,11.5016963 C41.4958152,11.6265505 41.0594491,11.6893752 40.5189232,11.6893752 C39.8545104,11.6893752 39.33529,11.484996 38.9604728,11.0762377 C38.5872337,10.6674793 38.3994306,9.98276935 38.3994306,9.01892673 L38.3994306,5.17230398 L37.2947062,5.17230398 L37.2947062,3.89990448 L38.3994306,3.89990448 L38.3994306,2.50265077 L40.0517826,2.00005297 L40.0517826,3.89990448 L41.9061414,3.89990448 L41.9061414,5.17548498 L41.9061414,5.17548498 Z M50.2562796,7.65586876 C50.2562796,8.82886205 49.9232841,9.79190943 49.2588713,10.5450109 C48.563684,11.3203793 47.6388719,11.7068707 46.4860131,11.7068707 C45.3733978,11.7068707 44.4888292,11.3354891 43.829151,10.5935211 C43.1694727,9.84996265 42.8396335,8.91315852 42.8396335,7.78310871 C42.8396335,6.60057242 43.1805199,5.6319583 43.8599254,4.87885684 C44.5409091,4.12496014 45.4578303,3.74801179 46.6106892,3.74801179 C47.7217262,3.74801179 48.6141857,4.12018864 49.2896458,4.86295185 C49.9351205,5.58344807 50.2562796,6.51389021 50.2562796,7.65586876 Z M48.5123933,7.694836 C48.5123933,6.99581152 48.3624664,6.39619325 48.0618235,5.8943907 C47.7091008,5.28841043 47.204084,4.9854203 46.5499293,4.9854203 C45.8760474,4.9854203 45.3591942,5.28841043 45.0072606,5.8943907 C44.7058287,6.39619325 44.5559018,7.00614976 44.5559018,7.72664598 C44.5559018,8.42646571 44.7058287,9.02767447 45.0072606,9.52788653 C45.3710306,10.1338668 45.8784147,10.4368569 46.5357257,10.4368569 C47.1788331,10.4368569 47.6830609,10.1275048 48.0476199,9.51277679 C48.3569428,8.99904549 48.5123933,8.39545097 48.5123933,7.694836 Z M55.7270326,5.39417864 C55.5520573,5.36234245 55.3745679,5.34663764 55.1967649,5.34725891 C54.6049483,5.34725891 54.1472767,5.57151932 53.8253285,6.02322115 C53.545991,6.42084599 53.4055332,6.9234438 53.4055332,7.53021931 L53.4055332,11.5343015 L51.7231958,11.5343015 L51.7231958,6.30633004 C51.7246961,5.50524584 51.7083842,4.70422834 51.6742723,3.90388073 L53.1396103,3.90388073 L53.2011592,5.36395916 L53.2477155,5.36395916 C53.4260495,4.8621566 53.705387,4.45737451 54.0888842,4.15438438 C54.439913,3.88962804 54.8664241,3.74625471 55.3048701,3.74562604 C55.4603206,3.74562604 55.6007784,3.75675953 55.7254544,3.77664078 L55.7270326,5.39417864 L55.7270326,5.39417864 Z M63.2509948,7.35765013 C63.2552608,7.61539027 63.2346475,7.87293774 63.1894458,8.12665658 L58.1424336,8.12665658 C58.1613717,8.88055328 58.4059892,9.45790456 58.874708,9.8555294 C59.3000269,10.2102108 59.8500218,10.3883467 60.5254819,10.3883467 C61.272749,10.3883467 61.9545218,10.2690592 62.5676438,10.0280986 L62.8311995,11.2042729 C62.1147068,11.5191918 61.2688036,11.6758559 60.2927007,11.6758559 C59.1185365,11.6758559 58.1968807,11.3275366 57.5261552,10.6324883 C56.8570078,9.93664487 56.5216451,9.00143123 56.5216451,7.83002844 C56.5216451,6.68009739 56.8333352,5.72182152 57.4575045,4.95758656 C58.11087,4.14166038 58.9938604,3.73369729 60.1048975,3.73369729 C61.1962074,3.73369729 62.0223834,4.14166038 62.5834256,4.95758656 C63.0276826,5.60412456 63.2509948,6.40573625 63.2509948,7.35765013 L63.2509948,7.35765013 Z M61.6467771,6.91787705 C61.6586135,6.414484 61.548141,5.98107291 61.3200944,5.61446281 C61.0289206,5.14208449 60.5807181,4.90669058 59.9802215,4.90669058 C59.4302266,4.90669058 58.9820241,5.13651774 58.6411377,5.59776256 C58.3610112,5.96437267 58.1945134,6.404941 58.1432227,6.91628655 L61.6467771,6.91787705 Z" id="Shape"></path>
                        </g>
                        <g id="Group" transform="translate(33.930820, 4.771498)" fill="#FFFFFF">
                            <path d="M1.74467544,5.95721542 C1.27674576,5.95721542 0.871943177,5.93415318 0.535002239,5.89518595 L0.535002239,0.778549446 C1.00625288,0.705183787 1.48246932,0.669022516 1.95930761,0.67035782 C3.88862984,0.67035782 4.77714388,1.62708086 4.77714388,3.18656551 C4.77714388,4.9854203 3.72765572,5.95721542 1.74467544,5.95721542 Z M2.02716925,1.32647648 C1.76676993,1.32647648 1.54503596,1.34238148 1.36117826,1.38055346 L1.36117826,5.27011969 C1.46060346,5.28602469 1.65156296,5.29318193 1.91985317,5.29318193 C3.1839735,5.29318193 3.90362253,4.56791422 3.90362253,3.20962775 C3.90362253,1.99846247 3.25262423,1.32647648 2.02716925,1.32647648 L2.02716925,1.32647648 Z M7.54605665,5.99618266 C6.45869222,5.99618266 5.75403588,5.17787073 5.75403588,4.06690691 C5.75403588,2.90902336 6.47368491,2.08355419 7.60760558,2.08355419 C8.67918824,2.08355419 9.39962636,2.86289888 9.39962636,4.00567269 C9.39962636,5.17787073 8.65709375,5.99618266 7.54605665,5.99618266 Z M7.57762021,2.69271545 C6.98027995,2.69271545 6.59757186,3.25575223 6.59757186,4.04304942 C6.59757186,4.81523687 6.98817084,5.37827365 7.56972932,5.37827365 C8.1512878,5.37827365 8.54188678,4.77626963 8.54188678,4.02714443 C8.54188678,3.26370473 8.15917869,2.69271545 7.57762021,2.69271545 Z M15.6002865,2.16069341 L14.4363805,5.91109094 L13.6780661,5.91109094 L13.1959328,4.28241958 C13.0760535,3.88403563 12.9762378,3.47979781 12.8968681,3.0712543 L12.8810864,3.0712543 C12.8203265,3.48001264 12.7051195,3.88956623 12.5828108,4.28241958 L12.069903,5.91109094 L11.3036977,5.91109094 L10.2084424,2.16069341 L11.0582911,2.16069341 L11.4796646,3.94364321 C11.5790898,4.36830654 11.6627332,4.76911239 11.732173,5.14765124 L11.7479548,5.14765124 C11.8087146,4.83193711 11.9081398,4.43749327 12.0541212,3.95159571 L12.5828108,2.16148866 L13.2566926,2.16148866 L13.7624986,3.91342372 C13.8848074,4.33808706 13.9842326,4.75479789 14.0615633,5.14844649 L14.0836578,5.14844649 C14.1373158,4.76275039 14.2217483,4.3531968 14.3361662,3.91342372 L14.7883141,2.16148866 L15.6002865,2.16069341 L15.6002865,2.16069341 Z M19.885039,5.91109094 L19.0580739,5.91109094 L19.0580739,3.75755478 C19.0580739,3.09431654 18.8055654,2.76190217 18.3076504,2.76190217 C17.8176262,2.76190217 17.4806852,3.18656551 17.4806852,3.68041556 L17.4806852,5.91109094 L16.6537201,5.91109094 L16.6537201,3.23268999 C16.6537201,2.90107087 16.6458292,2.54559426 16.6229457,2.15989816 L17.3504856,2.15989816 L17.3891509,2.73883993 L17.4120345,2.73883993 C17.6345576,2.33803409 18.0859164,2.08355419 18.5917223,2.08355419 C19.3729203,2.08355419 19.8858281,2.6855582 19.8858281,3.66530582 L19.885039,5.91109094 L19.885039,5.91109094 Z M22.1655057,5.91109094 L21.3377515,5.91109094 L21.3377515,0.439773078 L22.1655057,0.439773078 L22.1655057,5.91109094 Z M25.1806142,5.99618266 C24.0940389,5.99618266 23.3885934,5.17787073 23.3885934,4.06690691 C23.3885934,2.90902336 24.1082425,2.08355419 25.2413741,2.08355419 C26.3137458,2.08355419 27.0333955,2.86289888 27.0333955,4.00567269 C27.0341839,5.17787073 26.2908622,5.99618266 25.1806142,5.99618266 Z M25.2113887,2.69271545 C24.6140484,2.69271545 24.2313403,3.25575223 24.2313403,4.04304942 C24.2313403,4.81523687 24.6227284,5.37827365 25.2027087,5.37827365 C25.7850563,5.37827365 26.1748674,4.77626963 26.1748674,4.02714443 C26.1756553,3.26370473 25.7937363,2.69271545 25.2113887,2.69271545 L25.2113887,2.69271545 Z M30.29391,5.91109094 L30.2339392,5.47927036 L30.2118447,5.47927036 C29.9593363,5.82679447 29.5908318,5.99618266 29.1236912,5.99618266 C28.4569111,5.99618266 27.9834578,5.52539484 27.9834578,4.89237609 C27.9834578,3.96670545 28.7796485,3.48796514 30.1581867,3.48796514 L30.1581867,3.41877841 C30.1581867,2.92492836 29.8985764,2.6776057 29.3856687,2.6776057 C29.0187424,2.6776057 28.6967941,2.77064992 28.4135112,2.9559431 L28.2454353,2.40801606 C28.589478,2.19170814 29.0187424,2.08355419 29.5229702,2.08355419 C30.4951276,2.08355419 30.9859409,2.60046648 30.9859409,3.63508633 L30.9859409,5.01643504 C30.9859409,5.39497389 31.0025117,5.68842103 31.0395989,5.91188619 L30.29391,5.91109094 L30.29391,5.91109094 Z M30.1802812,4.04304942 C29.2617817,4.04304942 28.8009539,4.26730983 28.8009539,4.79933188 C28.8009539,5.19298047 29.0384696,5.3854309 29.3683087,5.3854309 C29.7888931,5.3854309 30.1802812,5.06176427 30.1802812,4.6219912 L30.1802812,4.04304942 L30.1802812,4.04304942 Z M35.001614,5.91109094 L34.9629487,5.30908693 L34.9400651,5.30908693 C34.7025493,5.76396975 34.3032704,5.99618266 33.7453846,5.99618266 C32.8481906,5.99618266 32.1837777,5.20093297 32.1837777,4.08201666 C32.1837777,2.90902336 32.8726523,2.08275894 33.8132462,2.08275894 C34.3111613,2.08275894 34.663884,2.25214712 34.8627344,2.59251399 L34.8793053,2.59251399 L34.8793053,0.439773078 L35.7070595,0.439773078 L35.7070595,4.90032859 C35.7070595,5.26296244 35.7157394,5.60253406 35.7378339,5.91109094 L35.001614,5.91109094 Z M34.8793053,3.70427305 C34.8793053,3.17940826 34.5344734,2.73168268 34.0081512,2.73168268 C33.3950291,2.73168268 33.0202119,3.27960972 33.0202119,4.05100192 C33.0202119,4.80728437 33.4092327,5.32499192 33.9915803,5.32499192 C34.5115898,5.32499192 34.8793053,4.86931385 34.8793053,4.32933931 L34.8793053,3.70427305 Z M40.9552894,5.99618266 C39.868714,5.99618266 39.1640577,5.17787073 39.1640577,4.06690691 C39.1640577,2.90902336 39.8837067,2.08355419 41.0168383,2.08355419 C42.0892101,2.08355419 42.8088597,2.86289888 42.8088597,4.00567269 C42.8096482,5.17787073 42.0671156,5.99618266 40.9552894,5.99618266 Z M40.9860638,2.69271545 C40.3895127,2.69271545 40.0068046,3.25575223 40.0068046,4.04304942 C40.0068046,4.81523687 40.3974036,5.37827365 40.978173,5.37827365 C41.5605205,5.37827365 41.9503353,4.77626963 41.9503353,4.02714443 C41.9519086,3.26370473 41.5692005,2.69271545 40.9860638,2.69271545 Z M47.2561638,5.91109094 L46.4284096,5.91109094 L46.4284096,3.75755478 C46.4284096,3.09431654 46.1759012,2.76190217 45.6779861,2.76190217 C45.187962,2.76190217 44.8518101,3.18656551 44.8518101,3.68041556 L44.8518101,5.91109094 L44.0240559,5.91109094 L44.0240559,3.23268999 C44.0240559,2.90107087 44.016165,2.54559426 43.9932814,2.15989816 L44.7208214,2.15989816 L44.7594867,2.73883993 L44.7823703,2.73883993 C45.0041043,2.33803409 45.4562522,2.08275894 45.961269,2.08275894 C46.742467,2.08275894 47.2561638,2.68476295 47.2561638,3.66451057 L47.2561638,5.91109094 Z M52.8200293,2.78575966 L51.9102099,2.78575966 L51.9102099,4.60688145 C51.9102099,5.07051202 52.0696058,5.30192968 52.3915541,5.30192968 C52.5375355,5.30192968 52.6598443,5.28602469 52.7584804,5.26296244 L52.7813639,5.8959812 C52.6211789,5.95801067 52.4065467,5.98902541 52.1398347,5.98902541 C51.4880473,5.98902541 51.0982374,5.62639155 51.0982374,4.67686342 L51.0982374,2.78575966 L50.5553443,2.78575966 L50.5553443,2.16069341 L51.0982374,2.16069341 L51.0982374,1.47359767 L51.9102099,1.22627502 L51.9102099,2.15989816 L52.8200293,2.15989816 L52.8200293,2.78575966 L52.8200293,2.78575966 Z M57.1978942,5.91109094 L56.3717182,5.91109094 L56.3717182,3.77345978 C56.3717182,3.10226904 56.1199989,2.76269742 55.6212947,2.76269742 C55.1928195,2.76269742 54.7935405,3.05614456 54.7935405,3.65019607 L54.7935405,5.91109094 L53.9673645,5.91109094 L53.9673645,0.439773078 L54.7935405,0.439773078 L54.7935405,2.69271545 L54.8101114,2.69271545 C55.0705107,2.28395711 55.4476952,2.08275894 55.9290394,2.08275894 C56.71655,2.08275894 57.1978942,2.6998727 57.1978942,3.68041556 L57.1978942,5.91109094 L57.1978942,5.91109094 Z M61.6830752,4.2362951 L59.2013908,4.2362951 C59.2171726,4.94645307 59.6835241,5.34725891 60.3739768,5.34725891 C60.7409031,5.34725891 61.0786332,5.28522944 61.3769088,5.16991823 L61.5055302,5.74886 C61.1535966,5.90313844 60.739325,5.98027766 60.2571917,5.98027766 C59.0932856,5.98027766 58.4044111,5.23910495 58.4044111,4.08996915 C58.4044111,2.9400381 59.1098565,2.07560169 60.1640792,2.07560169 C61.1149313,2.07560169 61.7114824,2.78575966 61.7114824,3.85855149 C61.7168298,3.98515447 61.7072945,4.11195045 61.6830752,4.2362951 L61.6830752,4.2362951 Z M60.9247609,3.64224358 C60.9247609,3.0633018 60.6351652,2.65454346 60.1064757,2.65454346 C59.6314442,2.65454346 59.2558379,3.0712543 59.2021799,3.64224358 L60.9247609,3.64224358 L60.9247609,3.64224358 Z" id="Shape"></path>
                        </g>
                    </g>
                </g>
            </g>
        </g>
    </g>
</svg>