<?xml version="1.0" encoding="UTF-8"?>
<svg width="114px" height="65px" viewBox="0 0 114 65" version="1.1" xmlns="http://www.w3.org/2000/svg" xmlns:xlink="http://www.w3.org/1999/xlink">
    <title>D0AB1633-F673-4BCD-A316-84479793523D</title>
    <g id="Email-Template" stroke="none" stroke-width="1" fill="none" fill-rule="evenodd">
        <g id="D---Email---Welcome-Email" transform="translate(-327.000000, -776.000000)">
            <g id="Footer" transform="translate(0.000000, 737.000000)">
                <g id="DECORATO-Logo-FE" transform="translate(327.000000, 40.000000)">
                    <path d="M0.0545454545,50.9090909 L5.83636364,50.9090909 C7.21818182,50.9090909 8.43636364,51.1756364 9.49090909,51.7090909 C10.5576,52.2301818 11.3818182,52.9698182 11.9636364,53.9272727 C12.5576,54.8847273 12.8545455,56 12.8545455,57.2727273 C12.8545455,58.5454545 12.5576,59.6607273 11.9636364,60.6181818 C11.3818182,61.5756364 10.5576,62.3210909 9.49090909,62.8545455 C8.43636364,63.3756364 7.21818182,63.6363636 5.83636364,63.6363636 L0.0545454545,63.6363636 L0.0545454545,50.9090909 Z M5.69090909,61.2181818 C6.96363636,61.2181818 7.97578182,60.8665455 8.72727273,60.1636364 C9.49090909,59.4483636 9.87272727,58.4847273 9.87272727,57.2727273 C9.87272727,56.0607273 9.49090909,55.1029091 8.72727273,54.4 C7.97578182,53.6847273 6.96363636,53.3272727 5.69090909,53.3272727 L3,53.3272727 L3,61.2181818 L5.69090909,61.2181818 Z" id="Shape" fill="#FFFFFF" fill-rule="nonzero"></path>
                    <polygon id="Path" fill="#FFFFFF" fill-rule="nonzero" points="25.8654545 61.2727273 25.8654545 63.6363636 16.0109091 63.6363636 16.0109091 50.9090909 25.6290909 50.9090909 25.6290909 53.2727273 18.9381818 53.2727273 18.9381818 56.0363636 24.8472727 56.0363636 24.8472727 58.3272727 18.9381818 58.3272727 18.9381818 61.2727273"></polygon>
                    <path d="M35.1996364,63.8545455 C33.9025455,63.8545455 32.7269091,63.5756364 31.6723636,63.0181818 C30.6298182,62.4483636 29.8054545,61.6665455 29.1996364,60.6727273 C28.6054545,59.6665455 28.3087273,58.5334545 28.3087273,57.2727273 C28.3087273,56.012 28.6054545,54.8847273 29.1996364,53.8909091 C29.8054545,52.8847273 30.6298182,52.1029091 31.6723636,51.5454545 C32.7269091,50.9756364 33.9087273,50.6909091 35.2178182,50.6909091 C36.3207273,50.6909091 37.3145455,50.8847273 38.1996364,51.2727273 C39.0963636,51.6607273 39.848,52.2181818 40.4541818,52.9454545 L38.5632727,54.6909091 C37.7025455,53.6970909 36.636,53.2 35.3632727,53.2 C34.5752727,53.2 33.8723636,53.3756364 33.2541818,53.7272727 C32.636,54.0665455 32.1509091,54.5454545 31.7996364,55.1636364 C31.46,55.7818182 31.2905455,56.4847273 31.2905455,57.2727273 C31.2905455,58.0607273 31.46,58.7636364 31.7996364,59.3818182 C32.1509091,60 32.636,60.4847273 33.2541818,60.8363636 C33.8723636,61.1756364 34.5752727,61.3454545 35.3632727,61.3454545 C36.636,61.3454545 37.7025455,60.8425455 38.5632727,59.8363636 L40.4541818,61.5818182 C39.848,62.3210909 39.0963636,62.8847273 38.1996364,63.2727273 C37.3025455,63.6607273 36.3025455,63.8545455 35.1996364,63.8545455 Z" id="Path" fill="#FFFFFF" fill-rule="nonzero"></path>
                    <path d="M49.2756364,63.8545455 C47.9541818,63.8545455 46.7603636,63.5698182 45.6938182,63 C44.6392727,62.4301818 43.8087273,61.6483636 43.2029091,60.6545455 C42.6087273,59.6483636 42.312,58.5210909 42.312,57.2727273 C42.312,56.0243636 42.6087273,54.9029091 43.2029091,53.9090909 C43.8087273,52.9029091 44.6392727,52.1152727 45.6938182,51.5454545 C46.7603636,50.9756364 47.9541818,50.6909091 49.2756364,50.6909091 C50.5967273,50.6909091 51.7847273,50.9756364 52.8392727,51.5454545 C53.8938182,52.1152727 54.724,52.9029091 55.3301818,53.9090909 C55.936,54.9029091 56.2392727,56.0243636 56.2392727,57.2727273 C56.2392727,58.5210909 55.936,59.6483636 55.3301818,60.6545455 C54.724,61.6483636 53.8938182,62.4301818 52.8392727,63 C51.7847273,63.5698182 50.5967273,63.8545455 49.2756364,63.8545455 Z M49.2756364,61.3454545 C50.0269091,61.3454545 50.7058182,61.1756364 51.312,60.8363636 C51.9178182,60.4847273 52.3905455,60 52.7301818,59.3818182 C53.0814545,58.7636364 53.2574545,58.0607273 53.2574545,57.2727273 C53.2574545,56.4847273 53.0814545,55.7818182 52.7301818,55.1636364 C52.3905455,54.5454545 51.9178182,54.0665455 51.312,53.7272727 C50.7058182,53.3756364 50.0269091,53.2 49.2756364,53.2 C48.524,53.2 47.8450909,53.3756364 47.2392727,53.7272727 C46.6330909,54.0665455 46.1541818,54.5454545 45.8029091,55.1636364 C45.4632727,55.7818182 45.2938182,56.4847273 45.2938182,57.2727273 C45.2938182,58.0607273 45.4632727,58.7636364 45.8029091,59.3818182 C46.1541818,60 46.6330909,60.4847273 47.2392727,60.8363636 C47.8450909,61.1756364 48.524,61.3454545 49.2756364,61.3454545 Z" id="Shape" fill="#FFFFFF" fill-rule="nonzero"></path>
                    <path d="M67.4970909,63.6363636 L65.0425455,60.0909091 L64.8970909,60.0909091 L62.3334545,60.0909091 L62.3334545,63.6363636 L59.388,63.6363636 L59.388,50.9090909 L64.8970909,50.9090909 C66.0243636,50.9090909 67,51.0970909 67.8243636,51.4727273 C68.6607273,51.8483636 69.3029091,52.3818182 69.7516364,53.0727273 C70.2,53.7636364 70.4243636,54.5818182 70.4243636,55.5272727 C70.4243636,56.4727273 70.1938182,57.2909091 69.7334545,57.9818182 C69.2847273,58.6607273 68.6425455,59.1818182 67.8061818,59.5454545 L70.6607273,63.6363636 L67.4970909,63.6363636 Z M67.4425455,55.5272727 C67.4425455,54.812 67.212,54.2665455 66.7516364,53.8909091 C66.2909091,53.5029091 65.6181818,53.3090909 64.7334545,53.3090909 L62.3334545,53.3090909 L62.3334545,57.7454545 L64.7334545,57.7454545 C65.6181818,57.7454545 66.2909091,57.5516364 66.7516364,57.1636364 C67.212,56.7756364 67.4425455,56.2301818 67.4425455,55.5272727 Z" id="Shape" fill="#FFFFFF" fill-rule="nonzero"></path>
                    <path d="M82.0749091,60.9090909 L76.1658182,60.9090909 L75.0385455,63.6363636 L72.0203636,63.6363636 L77.6930909,50.9090909 L80.6021818,50.9090909 L86.2930909,63.6363636 L83.2021818,63.6363636 L82.0749091,60.9090909 Z M81.1476364,58.6727273 L79.1294545,53.8 L77.1112727,58.6727273 L81.1476364,58.6727273 Z" id="Shape" fill="#FFFFFF" fill-rule="nonzero"></path>
                    <polygon id="Path" fill="#FFFFFF" fill-rule="nonzero" points="90.5454545 53.3090909 86.4727273 53.3090909 86.4727273 50.9090909 97.5636364 50.9090909 97.5636364 53.3090909 93.4909091 53.3090909 93.4909091 63.6363636 90.5454545 63.6363636"></polygon>
                    <path d="M106.069818,63.8545455 C104.748727,63.8545455 103.554545,63.5698182 102.488,63 C101.433455,62.4301818 100.602909,61.6483636 99.9970909,60.6545455 C99.4029091,59.6483636 99.1061818,58.5210909 99.1061818,57.2727273 C99.1061818,56.0243636 99.4029091,54.9029091 99.9970909,53.9090909 C100.602909,52.9029091 101.433455,52.1152727 102.488,51.5454545 C103.554545,50.9756364 104.748727,50.6909091 106.069818,50.6909091 C107.390909,50.6909091 108.578909,50.9756364 109.633455,51.5454545 C110.688,52.1152727 111.518182,52.9029091 112.124364,53.9090909 C112.730182,54.9029091 113.033455,56.0243636 113.033455,57.2727273 C113.033455,58.5210909 112.730182,59.6483636 112.124364,60.6545455 C111.518182,61.6483636 110.688,62.4301818 109.633455,63 C108.578909,63.5698182 107.390909,63.8545455 106.069818,63.8545455 Z M106.069818,61.3454545 C106.821455,61.3454545 107.5,61.1756364 108.106182,60.8363636 C108.712364,60.4847273 109.185091,60 109.524364,59.3818182 C109.875636,58.7636364 110.051636,58.0607273 110.051636,57.2727273 C110.051636,56.4847273 109.875636,55.7818182 109.524364,55.1636364 C109.185091,54.5454545 108.712364,54.0665455 108.106182,53.7272727 C107.5,53.3756364 106.821455,53.2 106.069818,53.2 C105.318182,53.2 104.639273,53.3756364 104.033455,53.7272727 C103.427273,54.0665455 102.948364,54.5454545 102.597091,55.1636364 C102.257455,55.7818182 102.088,56.4847273 102.088,57.2727273 C102.088,58.0607273 102.257455,58.7636364 102.597091,59.3818182 C102.948364,60 103.427273,60.4847273 104.033455,60.8363636 C104.639273,61.1756364 105.318182,61.3454545 106.069818,61.3454545 Z" id="Shape" fill="#FFFFFF" fill-rule="nonzero"></path>
                    <polygon id="Path" stroke="#FFFFFF" stroke-width="0.727272727" points="34.1818182 38.3621818 34.1818182 12.9156364 56.2836364 0 78.42 12.9156364 78.42 38.3621818 63.2981818 29.6341818 63.2981818 21.6538182 56.2836364 17.532 49.2927273 21.6538182 49.2927273 29.6341818"></polygon>
                    <polyline id="Path" stroke="#FFFFFF" stroke-width="0.727272727" points="37.2534545 36.5632727 37.2534545 14.6603636 56.2836364 3.65272727 75.2727273 14.6603636 75.2727273 36.5632727"></polyline>
                    <polyline id="Path" stroke="#FFFFFF" stroke-width="0.727272727" points="40.2629091 34.6534545 40.2629091 16.2607273 56.2803636 7.01709091 72.2629091 16.2607273 72.2629091 34.6534545"></polyline>
                    <polyline id="Path" stroke="#FFFFFF" stroke-width="0.727272727" points="43.172 33.0170909 43.172 18.0123636 56.2770909 10.4716364 69.3538182 18.0123636 69.3538182 33.0170909"></polyline>
                    <polyline id="Path" stroke="#FFFFFF" stroke-width="0.727272727" points="46.0810909 31.5625455 46.0810909 19.9461818 56.2741818 14.108 66.4447273 19.9461818 66.4447273 31.5625455"></polyline>
                </g>
            </g>
        </g>
    </g>
</svg>