<?xml version="1.0" encoding="UTF-8"?>
<svg width="107px" height="32px" viewBox="0 0 107 32" version="1.1" xmlns="http://www.w3.org/2000/svg" xmlns:xlink="http://www.w3.org/1999/xlink">
    <title>33A72BEB-F78E-4A50-B9F0-678016EAD5A7</title>
    <defs>
        <linearGradient x1="60.7534827%" y1="4.84%" x2="26.7014638%" y2="71.968%" id="linearGradient-1">
            <stop stop-color="#00A0FF" offset="0%"></stop>
            <stop stop-color="#00A1FF" offset="0.7%"></stop>
            <stop stop-color="#00BEFF" offset="26%"></stop>
            <stop stop-color="#00D2FF" offset="51.2%"></stop>
            <stop stop-color="#00DFFF" offset="76%"></stop>
            <stop stop-color="#00E3FF" offset="100%"></stop>
        </linearGradient>
        <linearGradient x1="107.724138%" y1="49.4235294%" x2="-130.669951%" y2="49.4235294%" id="linearGradient-2">
            <stop stop-color="#FFE000" offset="0%"></stop>
            <stop stop-color="#FFBD00" offset="40.9%"></stop>
            <stop stop-color="#FFA500" offset="77.5%"></stop>
            <stop stop-color="#FF9C00" offset="100%"></stop>
        </linearGradient>
        <linearGradient x1="86.3892216%" y1="30.3470301%" x2="-49.8862275%" y2="138.165972%" id="linearGradient-3">
            <stop stop-color="#FF3A44" offset="0%"></stop>
            <stop stop-color="#C31162" offset="100%"></stop>
        </linearGradient>
        <linearGradient x1="-18.5808383%" y1="-13.2350202%" x2="42.2754491%" y2="34.6900277%" id="linearGradient-4">
            <stop stop-color="#32A071" offset="0%"></stop>
            <stop stop-color="#2DA771" offset="6.9%"></stop>
            <stop stop-color="#15CF74" offset="47.6%"></stop>
            <stop stop-color="#06E775" offset="80.1%"></stop>
            <stop stop-color="#00F076" offset="100%"></stop>
        </linearGradient>
    </defs>
    <g id="Email-Template" stroke="none" stroke-width="1" fill="none" fill-rule="evenodd">
        <g id="D---Email---Welcome-Email" transform="translate(-396.000000, -921.000000)" fill-rule="nonzero">
            <g id="Footer" transform="translate(0.000000, 737.000000)">
                <g id="Group-2" transform="translate(265.000000, 128.000000)">
                    <g id="App" transform="translate(0.000000, 56.000000)">
                        <g id="google-play" transform="translate(131.000000, 0.000000)">
                            <path d="M102.716049,32 L3.95061728,32 C1.7382716,32 0,30.24 0,28 L0,4 C0,1.76 1.7382716,0 3.95061728,0 L102.716049,0 C104.928395,0 106.666667,1.76 106.666667,4 L106.666667,28 C106.666667,30.24 104.928395,32 102.716049,32 Z" id="Path" fill="#000000"></path>
                            <path d="M102.716049,0.64 C104.533333,0.64 106.034568,2.16 106.034568,4 L106.034568,28 C106.034568,29.84 104.533333,31.36 102.716049,31.36 L3.95061728,31.36 C2.13333333,31.36 0.632098765,29.84 0.632098765,28 L0.632098765,4 C0.632098765,2.16 2.13333333,0.64 3.95061728,0.64 L102.716049,0.64 L102.716049,0.64 Z M102.716049,0 L3.95061728,0 C1.7382716,0 0,1.84 0,4 L0,28 C0,30.24 1.7382716,32 3.95061728,32 L102.716049,32 C104.928395,32 106.666667,30.24 106.666667,28 L106.666667,4 C106.666667,1.84 104.928395,0 102.716049,0 Z" id="Shape" fill="#000000"></path>
                            <path d="M37.4518519,8.16 C37.4518519,8.8 37.2938272,9.36 36.8987654,9.76 C36.4246914,10.24 35.8716049,10.48 35.1604938,10.48 C34.4493827,10.48 33.8962963,10.24 33.4222222,9.76 C32.9481481,9.28 32.7111111,8.72 32.7111111,8 C32.7111111,7.28 32.9481481,6.72 33.4222222,6.24 C33.8962963,5.76 34.4493827,5.52 35.1604938,5.52 C35.4765432,5.52 35.7925926,5.6 36.108642,5.76 C36.4246914,5.92 36.6617284,6.08 36.8197531,6.32 L36.4246914,6.72 C36.108642,6.32 35.7135802,6.16 35.1604938,6.16 C34.6864198,6.16 34.2123457,6.32 33.8962963,6.72 C33.5012346,7.04 33.3432099,7.52 33.3432099,8.08 C33.3432099,8.64 33.5012346,9.12 33.8962963,9.44 C34.291358,9.76 34.6864198,10 35.1604938,10 C35.7135802,10 36.108642,9.84 36.5037037,9.44 C36.7407407,9.2 36.8987654,8.88 36.8987654,8.48 L35.1604938,8.48 L35.1604938,7.84 L37.4518519,7.84 L37.4518519,8.16 L37.4518519,8.16 Z M41.0864198,6.16 L38.9530864,6.16 L38.9530864,7.68 L40.9283951,7.68 L40.9283951,8.24 L38.9530864,8.24 L38.9530864,9.76 L41.0864198,9.76 L41.0864198,10.4 L38.3209877,10.4 L38.3209877,5.6 L41.0864198,5.6 L41.0864198,6.16 Z M43.6938272,10.4 L43.0617284,10.4 L43.0617284,6.16 L41.7185185,6.16 L41.7185185,5.6 L45.037037,5.6 L45.037037,6.16 L43.6938272,6.16 L43.6938272,10.4 Z M47.3283951,10.4 L47.3283951,5.6 L47.9604938,5.6 L47.9604938,10.4 L47.3283951,10.4 Z M50.6469136,10.4 L50.0148148,10.4 L50.0148148,6.16 L48.6716049,6.16 L48.6716049,5.6 L51.9111111,5.6 L51.9111111,6.16 L50.5679012,6.16 L50.5679012,10.4 L50.6469136,10.4 Z M58.1530864,9.76 C57.6790123,10.24 57.1259259,10.48 56.4148148,10.48 C55.7037037,10.48 55.1506173,10.24 54.6765432,9.76 C54.2024691,9.28 53.9654321,8.72 53.9654321,8 C53.9654321,7.28 54.2024691,6.72 54.6765432,6.24 C55.1506173,5.76 55.7037037,5.52 56.4148148,5.52 C57.1259259,5.52 57.6790123,5.76 58.1530864,6.24 C58.6271605,6.72 58.8641975,7.28 58.8641975,8 C58.8641975,8.72 58.6271605,9.28 58.1530864,9.76 Z M55.1506173,9.36 C55.4666667,9.68 55.9407407,9.92 56.4148148,9.92 C56.8888889,9.92 57.362963,9.76 57.6790123,9.36 C57.9950617,9.04 58.2320988,8.56 58.2320988,8 C58.2320988,7.44 58.0740741,6.96 57.6790123,6.64 C57.362963,6.32 56.8888889,6.08 56.4148148,6.08 C55.9407407,6.08 55.4666667,6.24 55.1506173,6.64 C54.8345679,6.96 54.5975309,7.44 54.5975309,8 C54.5975309,8.56 54.7555556,9.04 55.1506173,9.36 Z M59.7333333,10.4 L59.7333333,5.6 L60.4444444,5.6 L62.7358025,9.36 L62.7358025,5.6 L63.3679012,5.6 L63.3679012,10.4 L62.7358025,10.4 L60.2864198,6.48 L60.2864198,10.4 L59.7333333,10.4 L59.7333333,10.4 Z" id="Shape" stroke="#FFFFFF" stroke-width="0.5" fill="#FFFFFF"></path>
                            <path d="M53.8074074,17.44 C51.9111111,17.44 50.4098765,18.88 50.4098765,20.88 C50.4098765,22.8 51.9111111,24.32 53.8074074,24.32 C55.7037037,24.32 57.2049383,22.88 57.2049383,20.88 C57.2049383,18.8 55.7037037,17.44 53.8074074,17.44 Z M53.8074074,22.88 C52.7802469,22.88 51.9111111,22 51.9111111,20.8 C51.9111111,19.6 52.7802469,18.72 53.8074074,18.72 C54.8345679,18.72 55.7037037,19.52 55.7037037,20.8 C55.7037037,22 54.8345679,22.88 53.8074074,22.88 Z M46.4592593,17.44 C44.562963,17.44 43.0617284,18.88 43.0617284,20.88 C43.0617284,22.8 44.562963,24.32 46.4592593,24.32 C48.3555556,24.32 49.8567901,22.88 49.8567901,20.88 C49.8567901,18.8 48.3555556,17.44 46.4592593,17.44 Z M46.4592593,22.88 C45.4320988,22.88 44.562963,22 44.562963,20.8 C44.562963,19.6 45.4320988,18.72 46.4592593,18.72 C47.4864198,18.72 48.3555556,19.52 48.3555556,20.8 C48.3555556,22 47.4864198,22.88 46.4592593,22.88 Z M37.6888889,18.48 L37.6888889,19.92 L41.0864198,19.92 C41.0074074,20.72 40.691358,21.36 40.2962963,21.76 C39.8222222,22.24 39.0320988,22.8 37.6888889,22.8 C35.5555556,22.8 33.9753086,21.12 33.9753086,18.96 C33.9753086,16.8 35.6345679,15.12 37.6888889,15.12 C38.7950617,15.12 39.6641975,15.6 40.2962963,16.16 L41.3234568,15.12 C40.454321,14.32 39.3481481,13.68 37.7679012,13.68 C34.9234568,13.68 32.4740741,16.08 32.4740741,18.96 C32.4740741,21.84 34.9234568,24.24 37.7679012,24.24 C39.3481481,24.24 40.454321,23.76 41.4024691,22.72 C42.3506173,21.76 42.6666667,20.4 42.6666667,19.36 C42.6666667,19.04 42.6666667,18.72 42.5876543,18.48 L37.6888889,18.48 L37.6888889,18.48 Z M73.5604938,19.6 C73.2444444,18.8 72.454321,17.44 70.7160494,17.44 C68.9777778,17.44 67.5555556,18.8 67.5555556,20.88 C67.5555556,22.8 68.9777778,24.32 70.8740741,24.32 C72.3753086,24.32 73.3234568,23.36 73.6395062,22.8 L72.5333333,22 C72.1382716,22.56 71.6641975,22.96 70.8740741,22.96 C70.0839506,22.96 69.6098765,22.64 69.2148148,21.92 L73.7185185,20 L73.5604938,19.6 L73.5604938,19.6 Z M68.9777778,20.72 C68.9777778,19.44 70.0049383,18.72 70.7160494,18.72 C71.2691358,18.72 71.8222222,19.04 71.9802469,19.44 L68.9777778,20.72 Z M65.2641975,24 L66.7654321,24 L66.7654321,14 L65.2641975,14 L65.2641975,24 Z M62.8938272,18.16 C62.4987654,17.76 61.8666667,17.36 61.0765432,17.36 C59.417284,17.36 57.837037,18.88 57.837037,20.8 C57.837037,22.72 59.3382716,24.16 61.0765432,24.16 C61.8666667,24.16 62.4987654,23.76 62.8148148,23.36 L62.8938272,23.36 L62.8938272,23.84 C62.8938272,25.12 62.182716,25.84 61.0765432,25.84 C60.2074074,25.84 59.5753086,25.2 59.417284,24.64 L58.1530864,25.2 C58.5481481,26.08 59.4962963,27.2 61.1555556,27.2 C62.8938272,27.2 64.3160494,26.16 64.3160494,23.68 L64.3160494,17.6 L62.8938272,17.6 L62.8938272,18.16 L62.8938272,18.16 Z M61.1555556,22.88 C60.1283951,22.88 59.2592593,22 59.2592593,20.8 C59.2592593,19.6 60.1283951,18.72 61.1555556,18.72 C62.182716,18.72 62.9728395,19.6 62.9728395,20.8 C62.9728395,22 62.182716,22.88 61.1555556,22.88 Z M80.4345679,14 L76.8790123,14 L76.8790123,24 L78.3802469,24 L78.3802469,20.24 L80.4345679,20.24 C82.0938272,20.24 83.6740741,19.04 83.6740741,17.12 C83.6740741,15.2 82.0938272,14 80.4345679,14 L80.4345679,14 Z M80.5135802,18.8 L78.3802469,18.8 L78.3802469,15.36 L80.5135802,15.36 C81.6197531,15.36 82.2518519,16.32 82.2518519,17.04 C82.1728395,17.92 81.5407407,18.8 80.5135802,18.8 Z M89.6,17.36 C88.4938272,17.36 87.3876543,17.84 86.9925926,18.88 L88.3358025,19.44 C88.6518519,18.88 89.1259259,18.72 89.6790123,18.72 C90.4691358,18.72 91.1802469,19.2 91.2592593,20 L91.2592593,20.08 C91.0222222,19.92 90.3901235,19.68 89.7580247,19.68 C88.3358025,19.68 86.9135802,20.48 86.9135802,21.92 C86.9135802,23.28 88.0987654,24.16 89.362963,24.16 C90.3901235,24.16 90.8641975,23.68 91.2592593,23.2 L91.3382716,23.2 L91.3382716,24 L92.7604938,24 L92.7604938,20.16 C92.6024691,18.4 91.2592593,17.36 89.6,17.36 L89.6,17.36 Z M89.4419753,22.88 C88.9679012,22.88 88.2567901,22.64 88.2567901,22 C88.2567901,21.2 89.1259259,20.96 89.837037,20.96 C90.4691358,20.96 90.7851852,21.12 91.1802469,21.28 C91.0222222,22.24 90.2320988,22.88 89.4419753,22.88 L89.4419753,22.88 Z M97.7382716,17.6 L96.0790123,21.92 L96,21.92 L94.2617284,17.6 L92.6814815,17.6 L95.2888889,23.68 L93.7876543,27.04 L95.2888889,27.04 L99.3185185,17.6 L97.7382716,17.6 L97.7382716,17.6 Z M84.4641975,24 L85.9654321,24 L85.9654321,14 L84.4641975,14 L84.4641975,24 Z" id="Shape" fill="#FFFFFF"></path>
                            <g id="Group" transform="translate(7.901235, 5.600000)">
                                <path d="M0.316049383,0.4 C0.0790123457,0.64 0,1.04 0,1.52 L0,19.2 C0,19.68 0.158024691,20.08 0.395061728,20.32 L0.474074074,20.4 L10.2716049,10.48 L10.2716049,10.32 L0.316049383,0.4 Z" id="Path" fill="url(#linearGradient-1)"></path>
                                <path d="M13.4320988,13.84 L10.1925926,10.56 L10.1925926,10.32 L13.4320988,7.04 L13.5111111,7.12 L17.382716,9.36 C18.4888889,10 18.4888889,11.04 17.382716,11.68 L13.4320988,13.84 L13.4320988,13.84 Z" id="Path" fill="url(#linearGradient-2)"></path>
                                <path d="M13.5111111,13.76 L10.1925926,10.4 L0.316049383,20.4 C0.711111111,20.8 1.26419753,20.8 1.97530864,20.48 L13.5111111,13.76" id="Path" fill="url(#linearGradient-3)"></path>
                                <path d="M13.5111111,7.04 L1.97530864,0.4 C1.26419753,5.55111512e-17 0.711111111,0.08 0.316049383,0.48 L10.1925926,10.4 L13.5111111,7.04 L13.5111111,7.04 Z" id="Path" fill="url(#linearGradient-4)"></path>
                                <path d="M13.4320988,13.68 L1.97530864,20.24 C1.34320988,20.64 0.790123457,20.56 0.395061728,20.24 L0.316049383,20.32 L0.395061728,20.4 C0.790123457,20.72 1.34320988,20.8 1.97530864,20.4 L13.4320988,13.68 Z" id="Path" fill="#000000" opacity="0.2"></path>
                                <path d="M0.316049383,20.24 C0.0790123457,20 -1.11022302e-16,19.6 -1.11022302e-16,19.12 L-1.11022302e-16,19.2 C-1.11022302e-16,19.68 0.158024691,20.08 0.395061728,20.32 L0.395061728,20.24 L0.316049383,20.24 Z M17.382716,11.44 L13.4320988,13.68 L13.5111111,13.76 L17.382716,11.52 C17.9358025,11.2 18.1728395,10.8 18.1728395,10.4 C18.1728395,10.8 17.8567901,11.12 17.382716,11.44 L17.382716,11.44 Z" id="Shape" fill="#000000" opacity="0.12"></path>
                                <path d="M1.97530864,0.48 L17.382716,9.36 C17.8567901,9.68 18.1728395,10 18.1728395,10.4 C18.1728395,10 17.9358025,9.6 17.382716,9.28 L1.97530864,0.4 C0.869135802,-0.24 0,0.24 0,1.52 L0,1.6 C0,0.4 0.869135802,-0.16 1.97530864,0.48 Z" id="Path" fill="#FFFFFF" opacity="0.25"></path>
                            </g>
                        </g>
                    </g>
                </g>
            </g>
        </g>
    </g>
</svg>