<?xml version="1.0" encoding="UTF-8"?>
<svg width="209px" height="50px" viewBox="0 0 209 50" version="1.1" xmlns="http://www.w3.org/2000/svg" xmlns:xlink="http://www.w3.org/1999/xlink">
    <title>E52FBBCC-EDCD-4BFD-85B8-3B778B790C85</title>
    <g id="Web-Layouts" stroke="none" stroke-width="1" fill="none" fill-rule="evenodd">
        <g id="3.-Homepage" transform="translate(-70.000000, -19.000000)">
            <g id="Logo" transform="translate(71.000000, 20.000000)">
                <g id="Group-2" transform="translate(67.404255, 31.146229)" fill="#FFFFFF" fill-rule="nonzero">
                    <path d="M1.11610292e-14,0.269275752 L7.13580742,0.269275752 C8.84122051,0.269275752 10.3446768,0.598240962 11.6461763,1.25662017 C12.9626654,1.89974043 13.9798994,2.81258523 14.6979681,3.99425698 C15.4310265,5.17592874 15.7975108,6.55237662 15.7975108,8.12315184 C15.7975108,9.69392706 15.4310265,11.0703749 14.6979681,12.2520467 C13.9798994,13.4337185 12.9626654,14.3537439 11.6461763,15.0121232 C10.3446768,15.6552434 8.84122051,15.9770279 7.13580742,15.9770279 L1.11610292e-14,15.9770279 L1.11610292e-14,0.269275752 Z M6.95629025,12.992555 C8.52706547,12.992555 9.77623568,12.5585723 10.7037111,11.6910556 C11.6461763,10.8082799 12.1174088,9.61897864 12.1174088,8.12315184 C12.1174088,6.62732504 11.6461763,5.44520449 10.7037111,4.57768778 C9.77623568,3.69491211 8.52706547,3.25374867 6.95629025,3.25374867 L3.63522265,3.25374867 L3.63522265,12.992555 L6.95629025,12.992555 Z" id="Shape"></path>
                    <polygon id="Path" points="31.8553214 13.059874 31.8553214 15.9770279 19.6930333 15.9770279 19.6930333 0.269275752 31.563606 0.269275752 31.563606 3.18642973 23.3058163 3.18642973 23.3058163 6.59725592 30.5987012 6.59725592 30.5987012 9.42465131 23.3058163 9.42465131 23.3058163 13.059874"></polygon>
                    <path d="M43.3753869,16.2463037 C41.7745425,16.2463037 40.323595,15.9020795 39.0220956,15.21408 C37.7354063,14.5108215 36.7179927,13.5459167 35.9703037,12.3193656 C35.2369761,11.0775556 34.870761,9.67911689 34.870761,8.12315184 C34.870761,6.56718679 35.2369761,5.17592874 35.9703037,3.94937769 C36.7179927,2.70756768 37.7354063,1.74266291 39.0220956,1.05466336 C40.323595,0.351404856 41.782172,6.37773098e-15 43.3978265,6.37773098e-15 C44.7590154,6.37773098e-15 45.9855665,0.239206626 47.0779285,0.718068671 C48.1846518,1.19693072 49.1123068,1.88493026 49.8604446,2.7825161 L47.5267214,4.93672211 C46.4644285,3.71017106 45.1481189,3.09667114 43.5773437,3.09667114 C42.6048094,3.09667114 41.7372927,3.31343812 40.9743448,3.74742088 C40.2113968,4.16614467 39.612707,4.75720495 39.1791731,5.52015291 C38.7600005,6.28310087 38.550863,7.15061759 38.550863,8.12315184 C38.550863,9.0956861 38.7600005,9.96320281 39.1791731,10.7261508 C39.612707,11.4890987 40.2113968,12.0873397 40.9743448,12.5213225 C41.7372927,12.9400462 42.6048094,13.1496325 43.5773437,13.1496325 C45.1481189,13.1496325 46.4644285,12.5289519 47.5267214,11.2871419 L49.8604446,13.4413479 C49.1123068,14.3537439 48.1846518,15.049373 47.0779285,15.528235 C45.9707563,16.0070971 44.7365758,16.2463037 43.3753869,16.2463037 Z" id="Path"></path>
                    <path d="M60.747712,16.2463037 C59.1167985,16.2463037 57.6434114,15.8948988 56.3271017,15.1916403 C55.0256023,14.4883818 54.0005592,13.523477 53.2528702,12.296926 C52.5195426,11.055116 52.1533276,9.66385793 52.1533276,8.12315184 C52.1533276,6.58244575 52.5195426,5.19836839 53.2528702,3.97181734 C54.0005592,2.73000733 55.0256023,1.75792187 56.3271017,1.05466336 C57.6434114,0.351404856 59.1167985,6.37773098e-15 60.747712,6.37773098e-15 C62.3781767,6.37773098e-15 63.8443831,0.351404856 65.1458826,1.05466336 C66.4473821,1.75792187 67.4719763,2.73000733 68.2201141,3.97181734 C68.9678031,5.19836839 69.3420964,6.58244575 69.3420964,8.12315184 C69.3420964,9.66385793 68.9678031,11.055116 68.2201141,12.296926 C67.4719763,13.523477 66.4473821,14.4883818 65.1458826,15.1916403 C63.8443831,15.8948988 62.3781767,16.2463037 60.747712,16.2463037 Z M60.747712,13.1496325 C61.6749182,13.1496325 62.5128145,12.9400462 63.2609523,12.5213225 C64.0086413,12.0873397 64.5920721,11.4890987 65.0112447,10.7261508 C65.4447787,9.96320281 65.6619945,9.0956861 65.6619945,8.12315184 C65.6619945,7.15061759 65.4447787,6.28310087 65.0112447,5.52015291 C64.5920721,4.75720495 64.0086413,4.16614467 63.2609523,3.74742088 C62.5128145,3.31343812 61.6749182,3.09667114 60.747712,3.09667114 C59.820057,3.09667114 58.9821606,3.31343812 58.2344716,3.74742088 C57.4863338,4.16614467 56.8952736,4.75720495 56.4617396,5.52015291 C56.042567,6.28310087 55.8334295,7.15061759 55.8334295,8.12315184 C55.8334295,9.0956861 56.042567,9.96320281 56.4617396,10.7261508 C56.8952736,11.4890987 57.4863338,12.0873397 58.2344716,12.5213225 C58.9821606,12.9400462 59.820057,13.1496325 60.747712,13.1496325 Z" id="Shape"></path>
                    <path d="M83.2362764,15.9770279 L80.2069242,11.601297 L80.027407,11.601297 L76.8634169,11.601297 L76.8634169,15.9770279 L73.2281943,15.9770279 L73.2281943,0.269275752 L80.027407,0.269275752 C81.4186651,0.269275752 82.6227765,0.501301691 83.64019,0.964904777 C84.6724137,1.42850786 85.464982,2.08688708 86.0187925,2.93959362 C86.5721542,3.79230017 86.8490594,4.80208424 86.8490594,5.96894583 C86.8490594,7.13580742 86.5645247,8.14559149 85.9963528,8.99829803 C85.4425424,9.83619442 84.6499741,10.4793147 83.6177504,10.9281076 L87.1407748,15.9770279 L83.2362764,15.9770279 Z M83.1689575,5.96894583 C83.1689575,5.08617016 82.8844227,4.41298078 82.3162509,3.94937769 C81.7476303,3.47051565 80.9173634,3.23130902 79.8254502,3.23130902 L76.8634169,3.23130902 L76.8634169,8.70658264 L79.8254502,8.70658264 C80.9173634,8.70658264 81.7476303,8.46737601 82.3162509,7.98851397 C82.8844227,7.50965192 83.1689575,6.83646254 83.1689575,5.96894583 Z" id="Shape"></path>
                    <path d="M101.227936,12.611081 L93.9350508,12.611081 L92.5437927,15.9770279 L88.8188115,15.9770279 L95.8199811,0.269275752 L99.4103244,0.269275752 L106.433934,15.9770279 L102.619194,15.9770279 L101.227936,12.611081 Z M100.083514,9.85100458 L97.5927131,3.83717946 L95.1019124,9.85100458 L100.083514,9.85100458 Z" id="Shape"></path>
                    <polygon id="Path" points="111.682118 3.23130902 106.655637 3.23130902 106.655637 0.269275752 120.343821 0.269275752 120.343821 3.23130902 115.317341 3.23130902 115.317341 15.9770279 111.682118 15.9770279"></polygon>
                    <path d="M130.841985,16.2463037 C129.211521,16.2463037 127.737685,15.8948988 126.421375,15.1916403 C125.119876,14.4883818 124.094833,13.523477 123.347144,12.296926 C122.613816,11.055116 122.247601,9.66385793 122.247601,8.12315184 C122.247601,6.58244575 122.613816,5.19836839 123.347144,3.97181734 C124.094833,2.73000733 125.119876,1.75792187 126.421375,1.05466336 C127.737685,0.351404856 129.211521,6.37773098e-15 130.841985,6.37773098e-15 C132.47245,6.37773098e-15 133.938656,0.351404856 135.240156,1.05466336 C136.541655,1.75792187 137.56625,2.73000733 138.314387,3.97181734 C139.062076,5.19836839 139.43637,6.58244575 139.43637,8.12315184 C139.43637,9.66385793 139.062076,11.055116 138.314387,12.296926 C137.56625,13.523477 136.541655,14.4883818 135.240156,15.1916403 C133.938656,15.8948988 132.47245,16.2463037 130.841985,16.2463037 Z M130.841985,13.1496325 C131.76964,13.1496325 132.607088,12.9400462 133.355226,12.5213225 C134.103363,12.0873397 134.686794,11.4890987 135.105518,10.7261508 C135.539052,9.96320281 135.756268,9.0956861 135.756268,8.12315184 C135.756268,7.15061759 135.539052,6.28310087 135.105518,5.52015291 C134.686794,4.75720495 134.103363,4.16614467 133.355226,3.74742088 C132.607088,3.31343812 131.76964,3.09667114 130.841985,3.09667114 C129.91433,3.09667114 129.076434,3.31343812 128.328745,3.74742088 C127.580607,4.16614467 126.989547,4.75720495 126.556013,5.52015291 C126.13684,6.28310087 125.927703,7.15061759 125.927703,8.12315184 C125.927703,9.0956861 126.13684,9.96320281 126.556013,10.7261508 C126.989547,11.4890987 127.580607,12.0873397 128.328745,12.5213225 C129.076434,12.9400462 129.91433,13.1496325 130.841985,13.1496325 Z" id="Shape"></path>
                </g>
                <g id="Group" transform="translate(-0.000000, 0.000000)" stroke="#FFFFFF" stroke-width="0.878886134">
                    <polygon id="Path" points="0 47.3458578 0 15.9402269 27.2776336 -6.37773098e-15 54.5979026 15.9402269 54.5979026 47.3458578 35.9348491 36.5739302 35.9348491 26.7247208 27.2776336 21.637653 18.6495898 26.7247208 18.6495898 36.5739302"></polygon>
                    <polyline id="Path" points="3.79095379 45.1256793 3.79095379 18.0935353 27.2776336 4.50812488 50.7135999 18.0935353 50.7135999 45.1256793"></polyline>
                    <polyline id="Path" points="7.50516399 42.7686188 7.50516399 20.068673 27.2735945 8.66035697 46.9989409 20.068673 46.9989409 42.7686188"></polyline>
                    <polyline id="Path" points="11.0955073 40.7490507 11.0955073 22.2305085 27.2695554 12.9238897 43.4085975 22.2305085 43.4085975 40.7490507"></polyline>
                    <polyline id="Path" points="14.6858507 38.953879 14.6858507 24.6171892 27.265965 17.4118189 39.8182542 24.6171892 39.8182542 38.953879"></polyline>
                </g>
            </g>
        </g>
    </g>
</svg>