<?xml version="1.0" encoding="UTF-8"?>
<svg width="32px" height="32px" viewBox="0 0 32 32" version="1.1" xmlns="http://www.w3.org/2000/svg" xmlns:xlink="http://www.w3.org/1999/xlink">
    <title>411F4A88-3127-4C2C-9FF5-3D71503C59DF</title>
    <g id="Email-Template" stroke="none" stroke-width="1" fill="none" fill-rule="evenodd">
        <g id="D---Email---Welcome-Email" transform="translate(-396.000000, -865.000000)">
            <g id="Footer" transform="translate(0.000000, 737.000000)">
                <g id="Group-2" transform="translate(265.000000, 128.000000)">
                    <g id="Social-Media" transform="translate(19.000000, 0.000000)">
                        <g id="Twitter" transform="translate(112.000000, 0.000000)">
                            <circle id="Oval" fill="#FFFFFF" cx="16" cy="16" r="16"></circle>
                            <path d="M18.6907124,10.0028857 L18.6907124,10 L19.4409378,10 L19.7150586,10.054828 C19.8978106,10.0904229 20.0637259,10.1370699 20.2128043,10.1947836 C20.3618972,10.2524972 20.5061713,10.3198346 20.6456267,10.3967814 C20.7850965,10.4737281 20.9115816,10.5521321 21.0250821,10.6319645 C21.1376159,10.7108446 21.2386078,10.7945294 21.3280577,10.8830189 C21.4165266,10.972475 21.5545537,10.9955605 21.74211,10.9522752 C21.9296664,10.90899 22.1316501,10.8488668 22.3480613,10.7719201 C22.5644725,10.6949734 22.7784887,10.6084029 22.9900812,10.5122087 C23.201688,10.4160144 23.3305825,10.354939 23.3767502,10.3289678 C23.4219513,10.3020444 23.4460018,10.287616 23.4488873,10.2856826 L23.4517583,10.2813541 L23.4661858,10.2741398 L23.4806132,10.2669256 L23.4950406,10.2597114 L23.509468,10.2524972 L23.5123535,10.2481687 L23.5166817,10.245283 L23.5210243,10.2423973 L23.5238954,10.2380688 L23.5383228,10.2337403 L23.5527502,10.2308546 L23.5498792,10.2524972 L23.5455365,10.2741398 L23.5383228,10.2957825 L23.5311091,10.3174251 L23.5238954,10.3318535 L23.5166817,10.3462819 L23.509468,10.3679245 C23.5046637,10.3823529 23.4998593,10.401586 23.4950406,10.4256382 C23.4902362,10.4496903 23.4445446,10.5458701 23.3579802,10.7142064 C23.2714157,10.8825427 23.1632101,11.0532741 23.0333634,11.2264151 C22.9035167,11.399556 22.7871452,11.530364 22.6842344,11.6188679 C22.5803571,11.7083241 22.5115816,11.7708424 22.477908,11.8064373 C22.4442489,11.8429845 22.403376,11.8766459 22.355275,11.9074362 L22.283138,11.9550499 L22.2687106,11.9622642 L22.2542831,11.9694784 L22.2514121,11.9738069 L22.2470694,11.9766926 L22.2427412,11.9795782 L22.2398557,11.9839068 L22.2254283,11.991121 L22.2110009,11.9983352 L22.2081298,12.0026637 L22.2037872,12.0055494 L22.199459,12.0084351 L22.1965735,12.0127636 L22.1937024,12.0170921 L22.1893598,12.0199778 L22.1850316,12.0228635 L22.1821461,12.027192 L22.2542831,12.027192 L22.6582507,11.9406215 C22.9275672,11.8829079 23.1848512,11.8131754 23.4301172,11.7314095 L23.8196573,11.6015538 L23.8629396,11.5871254 L23.8845807,11.5799112 L23.8990081,11.572697 L23.9134355,11.5654828 L23.9278629,11.5582686 L23.9422904,11.5510544 L23.9711452,11.5467259 L24,11.5438402 L24,11.572697 L23.9927863,11.5755827 L23.9855726,11.5799112 L23.9827015,11.5842397 L23.9783589,11.5871254 L23.9740307,11.5900111 L23.9711452,11.5943396 L23.9682741,11.5986681 L23.9639315,11.6015538 L23.9596032,11.6044395 L23.9567178,11.608768 L23.9538467,11.6130966 L23.9495041,11.6159822 L23.9422904,11.6304107 L23.9350766,11.6448391 L23.9307484,11.6477248 C23.9288296,11.6506104 23.8677583,11.7323618 23.7475203,11.8930078 C23.6272967,12.054606 23.5623733,12.1363574 23.5527502,12.1382908 C23.5431416,12.1411765 23.5296664,12.1556049 23.5123535,12.181576 C23.4960072,12.2084994 23.3940487,12.3157603 23.2064923,12.5033296 C23.018936,12.690899 22.8352462,12.857778 22.6553796,13.0039956 C22.4745609,13.1511654 22.3831776,13.3319967 22.3812588,13.5465039 C22.3783733,13.7600444 22.3673075,14.0014895 22.3480613,14.2708102 C22.3288296,14.5401454 22.292761,14.8311088 22.2398557,15.1437292 C22.1869648,15.4563496 22.1052047,15.8098457 21.9945897,16.2042175 C21.8839892,16.5985893 21.7493237,16.9833518 21.5906222,17.3584906 C21.4319206,17.7336293 21.2660054,18.0702875 21.0928765,18.3684795 C20.9197475,18.6666715 20.761046,18.9191687 20.6167719,19.1259711 C20.4724977,19.3327736 20.3258287,19.5275572 20.1767358,19.7103219 C20.0276573,19.8930866 19.8391488,20.0989367 19.6111957,20.3278579 C19.3822759,20.5558269 19.257248,20.6808779 19.236083,20.7029967 C19.2139657,20.7241632 19.1197115,20.8030433 18.9532913,20.9396226 C18.7878665,21.0771687 18.6099188,21.2147148 18.419477,21.3522752 C18.2300018,21.488869 18.0559062,21.6028535 17.8972047,21.6942286 C17.7385032,21.7856038 17.5471091,21.8899645 17.3229937,22.0073252 C17.0998593,22.1256382 16.858431,22.2352941 16.5987376,22.336293 C16.3390442,22.4372919 16.0649234,22.5310766 15.7763751,22.6176471 C15.4878269,22.7042175 15.2089017,22.7715549 14.9395852,22.8196448 C14.6702831,22.8677347 14.3648981,22.9086249 14.0234445,22.9422863 L13.5112714,22.9927858 L13.5112714,23 L12.5734896,23 L12.5734896,22.9927858 L12.4508566,22.9855716 C12.3691109,22.9807669 12.3017782,22.9759478 12.2488729,22.9711432 C12.195982,22.9663385 11.9963931,22.9398768 11.6501353,22.8917869 C11.3038774,22.843697 11.0321659,22.7955927 10.8349865,22.7475028 C10.6378215,22.6994129 10.3444545,22.6080233 9.95491434,22.4733629 C9.56537421,22.3387026 9.23210099,22.2025849 8.95509468,22.0650388 C8.679055,21.9284451 8.50592606,21.8418746 8.43570784,21.8053274 C8.36645627,21.7697325 8.28854824,21.725495 8.20198377,21.672586 L8.07213706,21.5932297 L8.06926601,21.5889012 L8.06492335,21.5860155 L8.06059513,21.5831299 L8.05770965,21.5788013 L8.04328224,21.5715871 L8.02885482,21.5643729 L8.02598377,21.5600444 L8.02164112,21.5571587 L8.01731289,21.554273 L8.01442741,21.5499445 L8.01155636,21.545616 L8.00721371,21.5427303 L8,21.5427303 L8,21.5138735 L8.01442741,21.5167592 L8.02885482,21.5210877 L8.09377818,21.5283019 C8.13706041,21.5331065 8.25488909,21.5403208 8.44724977,21.5499445 C8.63962489,21.5595683 8.84400361,21.5595683 9.06041479,21.5499445 C9.27682597,21.5403208 9.49805591,21.5186781 9.72407574,21.4850166 C9.95011001,21.4513552 10.2170171,21.3936415 10.5247971,21.3118757 C10.8325915,21.2301099 11.1153688,21.1329634 11.3731434,21.0204218 C11.6299513,20.9069279 11.8126889,20.8222764 11.921385,20.7664817 C12.0291001,20.7116537 12.1935726,20.6096881 12.4147881,20.4605993 L12.7466186,20.2369589 L12.7495041,20.2326304 L12.7538323,20.2297447 L12.7581749,20.226859 L12.761046,20.2225305 L12.7639315,20.218202 L12.7682597,20.2153163 L12.7726023,20.2124306 L12.7754734,20.2081021 L12.7899008,20.2037736 L12.8043282,20.2008879 L12.8072137,20.1864595 L12.8115419,20.1720311 L12.8158846,20.1691454 L12.8187556,20.1648169 L12.7033363,20.1576027 C12.626395,20.152798 12.5518485,20.1479789 12.4797115,20.1431743 C12.4075744,20.1383696 12.2945645,20.116727 12.1406673,20.0782464 C11.9867845,20.0397658 11.8208693,19.9820522 11.6429216,19.9051054 C11.4649883,19.8281587 11.2918593,19.7367691 11.1235347,19.6309656 C10.9552245,19.525162 10.8335437,19.4371343 10.7585212,19.3669256 C10.6844653,19.2976548 10.5882777,19.199556 10.4699729,19.072586 C10.3526348,18.9446637 10.2506763,18.8133507 10.1641118,18.6786903 C10.0775473,18.54403 9.99483499,18.3886648 9.91597475,18.2126526 L9.7962128,17.9500555 L9.7889991,17.9284129 L9.78178539,17.9067703 L9.77745717,17.8923418 L9.77457169,17.8779134 L9.7962128,17.8807991 L9.81785392,17.8851276 L9.97655546,17.9067703 C10.0823661,17.9211987 10.2482813,17.9260033 10.4743012,17.9211987 C10.7003354,17.916394 10.8566276,17.9067703 10.9431921,17.8923418 C11.0297565,17.8779134 11.0826619,17.8682897 11.1018936,17.863485 L11.1307484,17.8562708 L11.166817,17.8490566 L11.2028855,17.8418424 L11.205771,17.8375139 L11.2100992,17.8346282 L11.2144418,17.8317425 L11.2173129,17.827414 L11.1884581,17.8201998 L11.1596032,17.8129856 L11.1307484,17.8057714 L11.1018936,17.7985572 L11.0730388,17.791343 C11.053807,17.7865383 11.0201479,17.7769145 10.9720469,17.7624861 C10.9239603,17.7480577 10.7941136,17.6951487 10.5825068,17.6037736 C10.3709143,17.5123984 10.2025897,17.4234184 10.0775473,17.3368479 C9.95219499,17.2500265 9.83267184,17.1550761 9.71974752,17.0526082 C9.60721371,16.9487236 9.48362849,16.8150155 9.34896303,16.6514983 C9.21431199,16.4879811 9.09408837,16.2980022 8.98827773,16.081576 C8.88248151,15.8651498 8.80313075,15.6583474 8.75022543,15.4611543 C8.69753285,15.2651211 8.66276882,15.0647033 8.64636249,14.8623751 L8.62037872,14.5593785 L8.63480613,14.5622642 L8.64923354,14.5665927 L8.66366096,14.5738069 L8.67808837,14.5810211 L8.69251578,14.5882353 L8.70694319,14.5954495 L8.93056808,14.6964484 C9.07966096,14.7637858 9.26480794,14.8214994 9.48602344,14.8695893 C9.70725338,14.9176792 9.83949504,14.944141 9.88277728,14.9489456 L9.94770063,14.9561598 L10.0775473,14.9561598 L10.0746763,14.9518313 L10.0703336,14.9489456 L10.0660054,14.9460599 L10.0631199,14.9417314 L10.0602489,14.9374029 L10.0559062,14.9345172 L10.051578,14.9316315 L10.0486925,14.927303 L10.0342651,14.9200888 L10.0198377,14.9128746 L10.0169666,14.9085461 L10.012624,14.9056604 L10.0082958,14.9027747 L10.0054103,14.8984462 L9.99098287,14.891232 L9.97655546,14.8840178 L9.9736844,14.8796892 C9.97079892,14.8777558 9.92943553,14.84698 9.84959423,14.7873474 C9.77071957,14.7267481 9.68800721,14.6483585 9.60144274,14.5521643 C9.51487827,14.45597 9.4283138,14.3549711 9.34174932,14.2491676 C9.25502547,14.1431216 9.17778249,14.0296631 9.11091073,13.9100999 C9.04359243,13.7898679 8.97240757,13.6369123 8.89738503,13.4512764 C8.82332913,13.2665927 8.76706222,13.0804661 8.72858431,12.8928968 C8.69012083,12.7053274 8.66847971,12.5201676 8.66366096,12.3374029 C8.65885663,12.1546382 8.66366096,11.9983352 8.67808837,11.8684795 C8.69251578,11.7386238 8.7213706,11.5919301 8.76465284,11.4284129 C8.80793508,11.2648957 8.87046348,11.0917547 8.9522092,10.90899 L9.0748422,10.6348502 L9.08205591,10.6132075 L9.08926961,10.5915649 L9.09361226,10.5886792 L9.09648332,10.5843507 L9.0993688,10.5800222 L9.10369702,10.5771365 L9.10803968,10.5800222 L9.11091073,10.5843507 L9.11379621,10.5886792 L9.11812444,10.5915649 L9.12246709,10.5944506 L9.12533814,10.5987791 L9.12822362,10.6031077 L9.13255185,10.6059933 L9.13976555,10.6204218 L9.14697926,10.6348502 L9.15132191,10.6377358 L9.15419297,10.6420644 L9.34896303,10.8584906 C9.47880974,11.0027747 9.63270694,11.1638968 9.81064022,11.3418424 C9.98858792,11.519788 10.0871704,11.6121299 10.1064022,11.6188679 C10.1256483,11.6265583 10.1496844,11.648677 10.1785392,11.6852386 C10.207394,11.7208335 10.3035816,11.8059612 10.4670875,11.9406215 C10.6306078,12.0752819 10.8446096,12.2315993 11.1091073,12.409545 C11.3736195,12.5874906 11.666972,12.7630411 11.9891794,12.936182 C12.3114013,13.109323 12.6576592,13.265626 13.0279531,13.4051054 C13.3982615,13.5445849 13.6579549,13.63596 13.8070334,13.6792453 C13.9561262,13.7225305 14.2110009,13.7778346 14.5716862,13.845172 C14.9323715,13.9125094 15.2040974,13.9557947 15.386835,13.9750277 C15.569587,13.9942608 15.6946294,14.0053274 15.7619477,14.0082131 L15.8629396,14.0110988 L15.8600685,13.9894562 L15.8557259,13.9678135 L15.8268711,13.7874584 C15.8076393,13.6672264 15.7980162,13.4988901 15.7980162,13.2824639 C15.7980162,13.0660377 15.814853,12.8664495 15.8485122,12.6836848 C15.8821858,12.5009201 15.9326817,12.3157603 16,12.1281909 C16.0673327,11.9406215 16.1332227,11.7900755 16.1976555,11.6765816 C16.2630694,11.56404 16.3486673,11.4356271 16.4544635,11.291343 C16.5602741,11.1470588 16.6973345,10.99797 16.8656447,10.8440622 C17.0339693,10.6901543 17.22633,10.5530844 17.4427412,10.4328524 C17.6591524,10.3126204 17.8587412,10.2212309 18.0414788,10.1587125 C18.2242308,10.0961942 18.378128,10.0553041 18.503156,10.036071 C18.6281984,10.016838 18.6907124,10.0057714 18.6907124,10.0028857 Z" id="Path" fill="#212B36" fill-rule="nonzero"></path>
                        </g>
                    </g>
                </g>
            </g>
        </g>
    </g>
</svg>