<?xml version="1.0" encoding="UTF-8"?>
<svg width="32px" height="32px" viewBox="0 0 32 32" version="1.1" xmlns="http://www.w3.org/2000/svg" xmlns:xlink="http://www.w3.org/1999/xlink">
    <title>71A0AED4-6AEF-474E-AECF-5FF3910A4B6E</title>
    <g id="Email-Template" stroke="none" stroke-width="1" fill="none" fill-rule="evenodd">
        <g id="D---Email---Welcome-Email" transform="translate(-452.000000, -865.000000)">
            <g id="Footer" transform="translate(0.000000, 737.000000)">
                <g id="Group-2" transform="translate(265.000000, 128.000000)">
                    <g id="Social-Media" transform="translate(19.000000, 0.000000)">
                        <g id="YT" transform="translate(168.000000, 0.000000)">
                            <circle id="Oval" fill="#FFFFFF" cx="16" cy="16" r="16"></circle>
                            <path d="M16.3544705,21.985589 L13.0718907,21.9259222 C12.0090639,21.9051304 10.9435921,21.9466343 9.90160505,21.7312283 C8.3165023,21.4093939 8.20420816,19.8313696 8.08670408,18.507706 C7.92479533,16.646802 7.98747486,14.7521213 8.29301752,12.9067514 C8.46550645,11.8713049 9.14432093,11.2534465 10.1940828,11.1862118 C13.7378006,10.9422072 17.3050833,10.9711245 20.8409461,11.0849614 C21.2143782,11.0953972 21.5903752,11.1524351 21.9585974,11.2173597 C23.7762235,11.5340161 23.8205481,13.3222683 23.9383728,14.8276409 C24.0558768,16.3485475 24.0062622,17.8772611 23.7816739,19.3878116 C23.6014903,20.6385048 23.2567529,21.6873345 21.8018986,21.7885849 C19.9790625,21.9209831 18.1980662,22.0275709 16.3701003,21.9936349 C16.3701804,21.985589 16.3596804,21.985589 16.3544705,21.985589 Z M14.4246303,18.8191844 C15.7982899,18.0353104 17.1457394,17.2645011 18.511544,16.4858848 C17.1353195,15.7020109 15.7904349,14.9312015 14.4246303,14.1525852 L14.4246303,18.8191844 Z" id="Shape" fill="#212B36" fill-rule="nonzero"></path>
                        </g>
                    </g>
                </g>
            </g>
        </g>
    </g>
</svg>