<svg width="32" height="32" viewBox="0 0 32 32" fill="none" xmlns="http://www.w3.org/2000/svg">
<path d="M12.3827 18.5156C13.2155 18.5156 13.8907 19.1907 13.8907 20.0235V26.4922C13.8907 27.325 13.2155 28.0001 12.3827 28.0001C11.55 28.0001 10.8749 27.325 10.8749 26.4922V20.0235C10.8749 19.1908 11.55 18.5157 12.3827 18.5157V18.5156Z" fill="#212121"/>
<path d="M8.94023 10.7383C8.93525 10.7955 8.93091 10.8533 8.93091 10.9118V20.7125C8.93091 21.7665 9.7652 22.6156 10.8009 22.6156H20.7675C21.8033 22.6156 22.6376 21.7664 22.6376 20.7125V10.9118C22.6376 10.8533 22.6355 10.7953 22.6306 10.7383H8.94023Z" fill="#212121"/>
<path d="M19.1857 18.5155C20.0186 18.5155 20.6937 19.1906 20.6937 20.0234V26.4921C20.6937 27.3249 20.0186 28 19.1857 28C18.353 28 17.6779 27.3249 17.6779 26.4921V20.0234C17.6779 19.1907 18.353 18.5156 19.1857 18.5156V18.5155ZM6.50795 11.6105C7.34066 11.6105 8.0158 12.2856 8.0158 13.1184V19.5871C8.0158 20.42 7.34066 21.0951 6.50795 21.0951C5.67514 21.0951 5 20.42 5 19.5873V13.1185C4.99989 12.2857 5.67504 11.6105 6.50795 11.6105ZM25.0605 11.6105C25.8932 11.6105 26.5684 12.2856 26.5684 13.1184V19.5871C26.5684 20.42 25.8932 21.0951 25.0605 21.0951C24.2277 21.0951 23.5526 20.42 23.5526 19.5873V13.1185C23.5526 12.2857 24.2277 11.6105 25.0605 11.6105V11.6105ZM8.98415 10.0945C9.02608 7.08407 11.6536 4.61582 15.0263 4.29053H16.5418C19.9148 4.61592 22.5421 7.08428 22.584 10.0945H8.98415Z" fill="#212121"/>
<path d="M20.0362 6.50521L19.7861 6.93822L20.6522 7.43823L20.9022 7.00522L20.0362 6.50521ZM9.07565 4.24999L10.6663 7.0052L11.5323 6.50522L9.94168 3.75001L9.07565 4.24999ZM21.6269 3.75L20.0362 6.50521L20.9022 7.00522L22.4929 4.25L21.6269 3.75Z" fill="#212121"/>
<path d="M13.7584 7.39672C13.7597 7.81752 13.4114 8.15965 12.9804 8.16081C12.5497 8.16187 12.1994 7.82176 12.1981 7.40096V7.39672C12.197 6.97582 12.5452 6.6338 12.9761 6.63263C13.4068 6.63147 13.7571 6.97147 13.7584 7.39249V7.39672ZM19.5818 7.39672C19.5831 7.81752 19.2348 8.15965 18.8039 8.16081C18.3731 8.16187 18.0228 7.82176 18.0216 7.40096V7.39672C18.0204 6.97582 18.3687 6.6338 18.7995 6.63263C19.2303 6.63147 19.5805 6.97147 19.5818 7.39249V7.39672Z" fill="white"/>
</svg>
