<svg width="24" height="24" viewBox="0 0 24 24" fill="none" xmlns="http://www.w3.org/2000/svg">
<path d="M4.72712 17.792L3.7029 16.9219L4.72712 17.792Z" fill="#1B1B1B"/>
<path d="M10.9561 6.11001L9.76042 5.57312C9.41821 5.41952 9.01636 5.57766 8.87158 5.92282L8.26123 7.37828L10.6861 8.50342L11.3017 6.96196C11.4337 6.63148 11.2813 6.25606 10.9561 6.11001Z" fill="#1B1B1B"/>
<path d="M8.00382 7.99176L3.70801 18.2363L6.31584 19.4464L10.439 9.12169L8.00382 7.99176Z" fill="#1B1B1B"/>
<path d="M3.45369 18.8511L3.3335 22.6059L6.05111 20.0564L3.45369 18.8511Z" fill="#1B1B1B"/>
<path d="M17.8569 11.8868L18.9718 14.5456H24.0001V11.8868H17.8569Z" fill="#1B1B1B"/>
<path d="M17.5442 12.8646L13.1597 2.40845C13.0149 2.06329 12.613 1.90515 12.2708 2.05882L11.0752 2.59563C10.7499 2.74168 10.5976 3.11711 10.7296 3.44758L14.9677 14.0601L17.5442 12.8646Z" fill="#1B1B1B"/>
<path d="M17.8017 13.4781L15.2148 14.6784L15.9463 16.51L18.5776 15.3285L17.8017 13.4781Z" fill="#1B1B1B"/>
<path d="M18.7966 15.959L16.2586 17.0985L16.2551 17.1001C16.1742 17.704 16.1101 18.5337 16.3966 19.1845C17.0809 20.7396 18.4394 21.6452 18.2022 23C18.2022 23 19.9339 20.7547 20.1327 19.3091C20.3722 17.5671 19.4653 16.5378 18.7966 15.959Z" fill="#1B1B1B"/>
<path d="M8.99023 14.5456H14.4443L13.3826 11.8868H10.0519L8.99023 14.5456Z" fill="#1B1B1B"/>
<path d="M5.64819 11.8868H0V14.5456H4.53345L5.64819 11.8868Z" fill="#1B1B1B"/>
</svg>
