<svg width="32" height="32" viewBox="0 0 32 32" fill="none" xmlns="http://www.w3.org/2000/svg">
<path d="M22.8621 16.6827C22.8514 14.7162 23.7408 13.232 25.5412 12.139C24.5339 10.6976 23.0121 9.90465 21.0028 9.74926C19.1007 9.59923 17.0217 10.8584 16.2609 10.8584C15.4571 10.8584 13.6139 9.80284 12.1672 9.80284C9.17739 9.85106 6 12.1872 6 16.9399C6 18.3437 6.25719 19.7939 6.77157 21.2906C7.45742 23.2571 9.93289 28.0794 12.5155 27.999C13.8658 27.9669 14.8195 27.0399 16.577 27.0399C18.2809 27.0399 19.165 27.999 20.6706 27.999C23.2747 27.9615 25.5144 23.5786 26.1681 21.6068C22.6746 19.9618 22.8621 16.7845 22.8621 16.6827V16.6827ZM19.8294 7.88464C21.2922 6.14861 21.1582 4.56796 21.1154 4C19.824 4.07501 18.3291 4.87873 17.4772 5.86998C16.5395 6.93089 15.9876 8.24363 16.1055 9.72247C17.504 9.82963 18.7792 9.11164 19.8294 7.88464V7.88464Z" fill="#212121"/>
</svg>
