<svg width="5" height="20" viewBox="0 0 5 20" fill="none" xmlns="http://www.w3.org/2000/svg">
<path d="M2.3737 11.0417C2.94899 11.0417 3.41536 10.5753 3.41536 10C3.41536 9.42471 2.94899 8.95834 2.3737 8.95834C1.7984 8.95834 1.33203 9.42471 1.33203 10C1.33203 10.5753 1.7984 11.0417 2.3737 11.0417Z" stroke="#666666" stroke-width="1.5" stroke-linecap="round" stroke-linejoin="round"/>
<path d="M2.3737 3.74999C2.94899 3.74999 3.41536 3.28362 3.41536 2.70832C3.41536 2.13303 2.94899 1.66666 2.3737 1.66666C1.7984 1.66666 1.33203 2.13303 1.33203 2.70832C1.33203 3.28362 1.7984 3.74999 2.3737 3.74999Z" stroke="#666666" stroke-width="1.5" stroke-linecap="round" stroke-linejoin="round"/>
<path d="M2.3737 18.3333C2.94899 18.3333 3.41536 17.867 3.41536 17.2917C3.41536 16.7164 2.94899 16.25 2.3737 16.25C1.7984 16.25 1.33203 16.7164 1.33203 17.2917C1.33203 17.867 1.7984 18.3333 2.3737 18.3333Z" stroke="#666666" stroke-width="1.5" stroke-linecap="round" stroke-linejoin="round"/>
</svg>
