<svg width="24" height="24" viewBox="0 0 24 24" fill="none" xmlns="http://www.w3.org/2000/svg">
<path d="M20.4578 5.07961C19.9691 4.57883 19.3889 4.18157 18.7503 3.91054C18.1116 3.6395 17.4272 3.5 16.7359 3.5C16.0446 3.5 15.3601 3.6395 14.7215 3.91054C14.0829 4.18157 13.5026 4.57883 13.0139 5.07961C12.459 5.64798 11.5404 5.64798 10.9855 5.07961C9.99842 4.06854 8.6596 3.50052 7.26361 3.50052C5.86761 3.50052 4.52879 4.06854 3.54168 5.07961C2.55456 6.09068 2 7.46199 2 8.89186C2 10.3217 2.55456 11.693 3.54168 12.7041L10.5635 19.8963C11.3493 20.7012 12.6502 20.7012 13.436 19.8963L20.4578 12.7041C20.9467 12.2036 21.3346 11.6092 21.5992 10.9551C21.8638 10.301 22 9.5999 22 8.89186C22 8.18381 21.8638 7.4827 21.5992 6.82858C21.3346 6.17446 20.9467 5.58016 20.4578 5.07961Z" fill="#ED4247"/>
</svg>
