<svg width="24" height="22" viewBox="0 0 24 22" fill="none" xmlns="http://www.w3.org/2000/svg">
<path d="M21.0204 3.31166C20.4991 2.79014 19.8802 2.37644 19.199 2.09419C18.5178 1.81193 17.7877 1.66666 17.0503 1.66666C16.3129 1.66666 15.5828 1.81193 14.9016 2.09419C14.2204 2.37644 13.6015 2.79014 13.0802 3.31166L11.9984 4.39347L10.9166 3.31166C9.86368 2.25873 8.43561 1.6672 6.94655 1.6672C5.45748 1.6672 4.02941 2.25873 2.97648 3.31166C1.92356 4.36458 1.33203 5.79266 1.33203 7.28172C1.33203 8.77078 1.92356 10.1989 2.97648 11.2518L4.0583 12.3336L11.9984 20.2737L19.9385 12.3336L21.0204 11.2518C21.5419 10.7305 21.9556 10.1116 22.2378 9.4304C22.5201 8.74921 22.6654 8.01907 22.6654 7.28172C22.6654 6.54436 22.5201 5.81423 22.2378 5.13303C21.9556 4.45183 21.5419 3.83292 21.0204 3.31166Z" fill="url(#paint0_linear_219:8541)" stroke="url(#paint1_linear_219:8541)" stroke-width="1.5" stroke-linecap="round" stroke-linejoin="round"/>
<defs>
<linearGradient id="paint0_linear_219:8541" x1="22.6654" y1="20.2737" x2="4.88224" y2="23.205" gradientUnits="userSpaceOnUse">
<stop stop-color="#FA6400"/>
<stop offset="1" stop-color="#E0208C"/>
</linearGradient>
<linearGradient id="paint1_linear_219:8541" x1="22.6654" y1="20.2737" x2="4.88224" y2="23.205" gradientUnits="userSpaceOnUse">
<stop stop-color="#FA6400"/>
<stop offset="1" stop-color="#E0208C"/>
</linearGradient>
</defs>
</svg>
