<svg width="24" height="24" viewBox="0 0 24 24" fill="none" xmlns="http://www.w3.org/2000/svg">
<path d="M13.5506 5.60354L13.5507 5.60342C13.9706 5.17314 14.4682 4.8328 15.0145 4.60093C15.5608 4.36909 16.1457 4.25 16.7359 4.25C17.3261 4.25 17.911 4.36909 18.4573 4.60093C19.0036 4.8328 19.5012 5.17314 19.921 5.60342L19.9213 5.60367C20.3414 6.03378 20.6756 6.54543 20.9039 7.10984C21.1323 7.67428 21.25 8.27987 21.25 8.89186C21.25 9.50384 21.1323 10.1094 20.9039 10.6739C20.6756 11.2383 20.3414 11.7499 19.9213 12.18L19.9212 12.1802L12.8993 19.3724C12.4078 19.8759 11.5917 19.8759 11.1002 19.3724L4.07832 12.1802C3.2298 11.3111 2.75 10.1285 2.75 8.89186C2.75 7.65517 3.2298 6.47266 4.07832 5.60354C4.92625 4.73504 6.07241 4.25052 7.26361 4.25052C8.45481 4.25052 9.60096 4.73504 10.4489 5.60354C11.2981 6.47334 12.7014 6.47334 13.5506 5.60354Z" stroke="#ED4247" stroke-width="1.5"/>
</svg>
