<svg width="32" height="32" viewBox="0 0 32 32" fill="none" xmlns="http://www.w3.org/2000/svg">
<path d="M13.3338 16C13.3338 14.5273 14.5273 13.3331 16 13.3331C17.4727 13.3331 18.6669 14.5273 18.6669 16C18.6669 17.4727 17.4727 18.6669 16 18.6669C14.5273 18.6669 13.3338 17.4727 13.3338 16ZM11.8921 16C11.8921 18.2688 13.7312 20.1079 16 20.1079C18.2688 20.1079 20.1079 18.2688 20.1079 16C20.1079 13.7312 18.2688 11.8921 16 11.8921C13.7312 11.8921 11.8921 13.7312 11.8921 16ZM19.3105 11.7292C19.3105 12.2591 19.7402 12.6895 20.2708 12.6895C20.8006 12.6895 21.231 12.2591 21.231 11.7292C21.231 11.1994 20.8013 10.7696 20.2708 10.7696C19.7402 10.7696 19.3105 11.1994 19.3105 11.7292ZM12.7677 22.5118C11.9877 22.4763 11.5638 22.3464 11.2821 22.2365C10.9086 22.0911 10.6423 21.9179 10.3619 21.6381C10.0821 21.3583 9.90824 21.0921 9.76349 20.7186C9.65363 20.4368 9.52375 20.0129 9.48821 19.233C9.44943 18.3897 9.44168 18.1363 9.44168 16C9.44168 13.8637 9.45008 13.611 9.48821 12.767C9.52375 11.9871 9.65428 11.5638 9.76349 11.2814C9.90889 10.9079 10.0821 10.6417 10.3619 10.3612C10.6417 10.0814 10.9079 9.90759 11.2821 9.76284C11.5638 9.65299 11.9877 9.5231 12.7677 9.48756C13.611 9.44879 13.8643 9.44103 16 9.44103C18.1363 9.44103 18.389 9.44943 19.233 9.48756C20.0129 9.5231 20.4362 9.65363 20.7186 9.76284C21.0921 9.90759 21.3583 10.0814 21.6388 10.3612C21.9186 10.641 22.0918 10.9079 22.2372 11.2814C22.347 11.5632 22.4769 11.9871 22.5124 12.767C22.5512 13.611 22.559 13.8637 22.559 16C22.559 18.1357 22.5512 18.389 22.5124 19.233C22.4769 20.0129 22.3464 20.4368 22.2372 20.7186C22.0918 21.0921 21.9186 21.3583 21.6388 21.6381C21.359 21.9179 21.0921 22.0911 20.7186 22.2365C20.4368 22.3464 20.0129 22.4763 19.233 22.5118C18.3897 22.5506 18.1363 22.5583 16 22.5583C13.8643 22.5583 13.611 22.5506 12.7677 22.5118ZM12.7018 8.04847C11.8501 8.08724 11.2685 8.22229 10.7599 8.42003C10.2339 8.62423 9.78805 8.89822 9.34281 9.34281C8.89822 9.7874 8.62423 10.2333 8.42003 10.7599C8.22229 11.2685 8.08724 11.8501 8.04847 12.7018C8.00905 13.5548 8 13.8275 8 16C8 18.1725 8.00905 18.4452 8.04847 19.2982C8.08724 20.1499 8.22229 20.7315 8.42003 21.2401C8.62423 21.7661 8.89758 22.2126 9.34281 22.6572C9.7874 23.1018 10.2333 23.3751 10.7599 23.58C11.2691 23.7777 11.8501 23.9128 12.7018 23.9515C13.5554 23.9903 13.8275 24 16 24C18.1732 24 18.4452 23.991 19.2982 23.9515C20.1499 23.9128 20.7315 23.7777 21.2401 23.58C21.7661 23.3751 22.212 23.1018 22.6572 22.6572C23.1018 22.2126 23.3751 21.7661 23.58 21.2401C23.7777 20.7315 23.9134 20.1499 23.9515 19.2982C23.9903 18.4446 23.9994 18.1725 23.9994 16C23.9994 13.8275 23.9903 13.5548 23.9515 12.7018C23.9128 11.8501 23.7777 11.2685 23.58 10.7599C23.3751 10.2339 23.1018 9.78805 22.6572 9.34281C22.2126 8.89822 21.7661 8.62423 21.2407 8.42003C20.7315 8.22229 20.1499 8.08659 19.2989 8.04847C18.4459 8.00969 18.1732 8 16.0006 8C13.8275 8 13.5554 8.00905 12.7018 8.04847Z" fill="#1B1B1B"/>
<circle cx="16" cy="16" r="15.25" stroke="#1B1B1B" stroke-width="1.5" stroke-linecap="round" stroke-linejoin="round"/>
</svg>
