<svg width="24" height="24" viewBox="0 0 24 24" fill="none" xmlns="http://www.w3.org/2000/svg">
<mask id="mask0_180:1138" style="mask-type:alpha" maskUnits="userSpaceOnUse" x="0" y="0" width="24" height="24">
<circle cx="12" cy="12" r="12" fill="#C4C4C4"/>
</mask>
<g mask="url(#mask0_180:1138)">
<path d="M-6 0.00366211H39.5941V24H-6V0.00366211Z" fill="white"/>
<path d="M-6 0.00366211H39.5941V1.84953H-6V0.00366211Z" fill="#BF0A30"/>
<path d="M-6 3.69537H39.5941V5.54125H-6V3.69537Z" fill="#BF0A30"/>
<path d="M-6 7.3871H39.5941V9.23297H-6V7.3871Z" fill="#BF0A30"/>
<path d="M-6 11.0789H39.5941V12.9248H-6V11.0789Z" fill="#BF0A30"/>
<path d="M-6 14.7705H39.5941V16.6164H-6V14.7705Z" fill="#BF0A30"/>
<path d="M-6 18.4624H39.5941V20.3083H-6V18.4624Z" fill="#BF0A30"/>
<path d="M-6 22.1541H39.5941V24H-6V22.1541Z" fill="#BF0A30"/>
<path d="M-6 0H12.238V12.9211H-6V0Z" fill="#002868"/>
<path d="M1.77421 1.20008L1.60825 0.689438L1.44229 1.20008H0.904297L1.34016 1.51558L1.17421 2.02622L1.60825 1.70889L2.04229 2.02622L1.87633 1.51558L2.31038 1.20008H1.77421Z" fill="white"/>
<path d="M4.79777 1.20008L4.63182 0.689438L4.46768 1.20008H3.92969L4.36555 1.51558L4.19777 2.02622L4.63182 1.70889L5.06768 2.02622L4.8999 1.51558L5.33577 1.20008H4.79777Z" fill="white"/>
<path d="M7.92336 1.51558L8.35923 1.20008H7.82123L7.65527 0.689438L7.48931 1.20008H6.95312L7.38718 1.51558L7.22122 2.02622L7.65527 1.70889L8.08932 2.02622L7.92336 1.51558Z" fill="white"/>
<path d="M10.9466 1.51558L11.3807 1.20008H10.8445L10.6786 0.689438L10.5126 1.20008H9.97461L10.4105 1.51558L10.2445 2.02622L10.6786 1.70889L11.1126 2.02622L10.9466 1.51558Z" fill="white"/>
<path d="M0.262607 2.4951L0.0966516 1.98447L-0.0693043 2.4951H-0.605469L-0.171431 2.81061L-0.337386 3.32124L0.0966516 3.00574L0.530689 3.32124L0.364734 2.81061L0.798772 2.4951H0.262607Z" fill="white"/>
<path d="M3.2841 2.4951L3.11997 1.98447L2.95401 2.4951H2.41602L2.85188 2.81061L2.6841 3.32124L3.11997 3.00574L3.55401 3.32124L3.38805 2.81061L3.82209 2.4951H3.2841Z" fill="white"/>
<path d="M6.30947 2.4951L6.14352 1.98447L5.97939 2.4951H5.44141L5.87544 2.81061L5.70949 3.32124L6.14352 3.00574L6.57755 3.32124L6.4116 2.81061L6.84746 2.4951H6.30947Z" fill="white"/>
<path d="M9.33293 2.4951L9.16697 1.98447L9.00101 2.4951H8.46484L8.89889 2.81061L8.73293 3.32124L9.16697 3.00574L9.60101 3.32124L9.43506 2.81061L9.8691 2.4951H9.33293Z" fill="white"/>
<path d="M1.77421 3.79194L1.60825 3.27948L1.44229 3.79194L0.904297 3.79012L1.34016 4.10562L1.17421 4.61809L1.60825 4.30076L2.04229 4.61809L1.87633 4.10562L2.31038 3.79012L1.77421 3.79194Z" fill="white"/>
<path d="M4.79777 3.79194L4.63182 3.27948L4.46768 3.79194L3.92969 3.79012L4.36555 4.10562L4.19777 4.61809L4.63182 4.30076L5.06768 4.61809L4.8999 4.10562L5.33577 3.79012L4.79777 3.79194Z" fill="white"/>
<path d="M7.82123 3.79194L7.65527 3.27948L7.48931 3.79194L6.95312 3.79012L7.38718 4.10562L7.22122 4.61809L7.65527 4.30076L8.08932 4.61809L7.92336 4.10562L8.35923 3.79012L7.82123 3.79194Z" fill="white"/>
<path d="M10.9466 4.10562L11.3807 3.79012L10.8445 3.79194L10.6786 3.27948L10.5126 3.79194L9.97461 3.79012L10.4105 4.10562L10.2445 4.61809L10.6786 4.30076L11.1126 4.61809L10.9466 4.10562Z" fill="white"/>
<path d="M0.262607 5.02132L0.0966516 4.51068L-0.0693043 5.02132H-0.605469L-0.171431 5.33683L-0.337386 5.84747L0.0966516 5.53197L0.530689 5.84747L0.364734 5.33683L0.798772 5.02132H0.262607Z" fill="white"/>
<path d="M3.2841 5.02132L3.11997 4.51068L2.95401 5.02132H2.41602L2.85188 5.33683L2.6841 5.84747L3.11997 5.53197L3.55401 5.84747L3.38805 5.33683L3.82209 5.02132H3.2841Z" fill="white"/>
<path d="M6.30947 5.02132L6.14352 4.51068L5.97939 5.02132H5.44141L5.87544 5.33683L5.70949 5.84747L6.14352 5.53197L6.57755 5.84747L6.4116 5.33683L6.84746 5.02132H6.30947Z" fill="white"/>
<path d="M9.33293 5.02132L9.16697 4.51068L9.00101 5.02132H8.46484L8.89889 5.33683L8.73293 5.84747L9.16697 5.53197L9.60101 5.84747L9.43506 5.33683L9.8691 5.02132H9.33293Z" fill="white"/>
<path d="M1.77421 6.31817L1.60825 5.80571L1.44229 6.31817L0.904297 6.31635L1.34016 6.63185L1.17421 7.14249L1.60825 6.82699L2.04229 7.14249L1.87633 6.63185L2.31038 6.31635L1.77421 6.31817Z" fill="white"/>
<path d="M4.79777 6.31817L4.63182 5.80571L4.46768 6.31817L3.92969 6.31635L4.36555 6.63185L4.19777 7.14249L4.63182 6.82699L5.06768 7.14249L4.8999 6.63185L5.33577 6.31635L4.79777 6.31817Z" fill="white"/>
<path d="M7.82123 6.31817L7.65527 5.80571L7.48931 6.31817L6.95312 6.31635L7.38718 6.63185L7.22122 7.14249L7.65527 6.82699L8.08932 7.14249L7.92336 6.63185L8.35923 6.31635L7.82123 6.31817Z" fill="white"/>
<path d="M10.9466 6.63185L11.3807 6.31635L10.8445 6.31817L10.6786 5.80571L10.5126 6.31817L9.97461 6.31635L10.4105 6.63185L10.2445 7.14249L10.6786 6.82699L11.1126 7.14249L10.9466 6.63185Z" fill="white"/>
<path d="M0.262607 7.58401L0.0966516 7.07338L-0.0693043 7.58401H-0.605469L-0.171431 7.89951L-0.337386 8.41014L0.0966516 8.09465L0.530689 8.41014L0.364734 7.89951L0.798772 7.58401H0.262607Z" fill="white"/>
<path d="M3.2841 7.58401L3.11997 7.07338L2.95401 7.58401H2.41602L2.85188 7.89951L2.6841 8.41014L3.11997 8.09465L3.55401 8.41014L3.38805 7.89951L3.82209 7.58401H3.2841Z" fill="white"/>
<path d="M6.30947 7.58401L6.14352 7.07338L5.97939 7.58401H5.44141L5.87544 7.89951L5.70949 8.41014L6.14352 8.09465L6.57755 8.41014L6.4116 7.89951L6.84746 7.58401H6.30947Z" fill="white"/>
<path d="M9.33293 7.58401L9.16697 7.07338L9.00101 7.58401H8.46484L8.89889 7.89951L8.73293 8.41014L9.16697 8.09465L9.60101 8.41014L9.43506 7.89951L9.8691 7.58401H9.33293Z" fill="white"/>
<path d="M1.77421 8.88087L1.60825 8.36841L1.44229 8.88087L0.904297 8.87905L1.34016 9.19455L1.17421 9.70701L1.60825 9.38968L2.04229 9.70701L1.87633 9.19455L2.31038 8.87905L1.77421 8.88087Z" fill="white"/>
<path d="M4.79777 8.88087L4.63182 8.36841L4.46768 8.88087L3.92969 8.87905L4.36555 9.19455L4.19777 9.70701L4.63182 9.38968L5.06768 9.70701L4.8999 9.19455L5.33577 8.87905L4.79777 8.88087Z" fill="white"/>
<path d="M7.82123 8.88087L7.65527 8.36841L7.48931 8.88087L6.95312 8.87905L7.38718 9.19455L7.22122 9.70701L7.65527 9.38968L8.08932 9.70701L7.92336 9.19455L8.35923 8.87905L7.82123 8.88087Z" fill="white"/>
<path d="M10.9466 9.19455L11.3807 8.87905L10.8445 8.88087L10.6786 8.36841L10.5126 8.88087L9.97461 8.87905L10.4105 9.19455L10.2445 9.70701L10.6786 9.38968L11.1126 9.70701L10.9466 9.19455Z" fill="white"/>
<path d="M0.262607 10.1102L0.0966516 9.59959L-0.0693043 10.1102H-0.605469L-0.171431 10.4257L-0.337386 10.9364L0.0966516 10.6209L0.530689 10.9364L0.364734 10.4257L0.798772 10.1102H0.262607Z" fill="white"/>
<path d="M3.2841 10.1102L3.11997 9.59959L2.95401 10.1102H2.41602L2.85188 10.4257L2.6841 10.9364L3.11997 10.6209L3.55401 10.9364L3.38805 10.4257L3.82209 10.1102H3.2841Z" fill="white"/>
<path d="M6.30947 10.1102L6.14352 9.59959L5.97939 10.1102H5.44141L5.87544 10.4257L5.70949 10.9364L6.14352 10.6209L6.57755 10.9364L6.4116 10.4257L6.84746 10.1102H6.30947Z" fill="white"/>
<path d="M9.33293 10.1102L9.16697 9.59959L9.00101 10.1102H8.46484L8.89889 10.4257L8.73293 10.9364L9.16697 10.6209L9.60101 10.9364L9.43506 10.4257L9.8691 10.1102H9.33293Z" fill="white"/>
<path d="M1.77421 11.4071L1.60825 10.8946L1.44229 11.4071L0.904297 11.4053L1.34016 11.7208L1.17421 12.2314L1.60825 11.9159L2.04229 12.2314L1.87633 11.7208L2.31038 11.4053L1.77421 11.4071Z" fill="white"/>
<path d="M4.79777 11.4071L4.63182 10.8946L4.46768 11.4071L3.92969 11.4053L4.36555 11.7208L4.19777 12.2314L4.63182 11.9159L5.06768 12.2314L4.8999 11.7208L5.33577 11.4053L4.79777 11.4071Z" fill="white"/>
<path d="M7.82123 11.4071L7.65527 10.8946L7.48931 11.4071L6.95312 11.4053L7.38718 11.7208L7.22122 12.2314L7.65527 11.9159L8.08932 12.2314L7.92336 11.7208L8.35923 11.4053L7.82123 11.4071Z" fill="white"/>
<path d="M10.9466 11.7208L11.3807 11.4053L10.8445 11.4071L10.6786 10.8946L10.5126 11.4071L9.97461 11.4053L10.4105 11.7208L10.2445 12.2314L10.6786 11.9159L11.1126 12.2314L10.9466 11.7208Z" fill="white"/>
</g>
</svg>
