<svg width="24" height="24" viewBox="0 0 24 24" fill="none" xmlns="http://www.w3.org/2000/svg">
<path d="M16.8182 10.9091C16.8182 14.7273 11.9091 18 11.9091 18C11.9091 18 7 14.7273 7 10.9091C7 9.60712 7.51721 8.35847 8.43784 7.43784C9.35847 6.51721 10.6071 6 11.9091 6C13.2111 6 14.4597 6.51721 15.3803 7.43784C16.301 8.35847 16.8182 9.60712 16.8182 10.9091Z" stroke="white" stroke-width="1.5" stroke-linecap="round" stroke-linejoin="round"/>
<path d="M11.9098 12.5454C12.8135 12.5454 13.5462 11.8128 13.5462 10.9091C13.5462 10.0053 12.8135 9.27271 11.9098 9.27271C11.0061 9.27271 10.2734 10.0053 10.2734 10.9091C10.2734 11.8128 11.0061 12.5454 11.9098 12.5454Z" stroke="white" stroke-width="1.5" stroke-linecap="round" stroke-linejoin="round"/>
</svg>
