<svg width="165" height="40" viewBox="0 0 165 40" fill="none" xmlns="http://www.w3.org/2000/svg">
<path d="M20 40C31.0457 40 40 31.0457 40 20C40 8.9543 31.0457 0 20 0C8.95431 0 0 8.9543 0 20C0 31.0457 8.95431 40 20 40Z" fill="url(#paint0_linear)"/>
<mask id="mask0" style="mask-type:alpha" maskUnits="userSpaceOnUse" x="0" y="0" width="40" height="40">
<path d="M20 40C31.0457 40 40 31.0457 40 20C40 8.9543 31.0457 0 20 0C8.95431 0 0 8.9543 0 20C0 31.0457 8.95431 40 20 40Z" fill="url(#paint1_radial)"/>
</mask>
<g mask="url(#mask0)">
<g filter="url(#filter0_d)">
<path d="M14.6646 31.7135C15.1601 31.4469 15.6774 30.983 16.1202 30.4079C17.1198 29.1097 17.402 27.7349 16.7772 27.2105C16.1523 26.6857 14.9271 27.2693 13.9275 28.5676C13.4843 29.1428 13.1615 29.7695 13.0186 30.3321C12.8534 30.9814 12.9426 31.4903 13.2702 31.7649C13.3335 31.8178 13.4033 31.8601 13.4786 31.8914C13.7923 32.0218 14.2039 31.9617 14.6646 31.7135ZM13.6306 30.472C13.7476 30.0107 14.0321 29.4642 14.4102 28.9728C14.7886 28.4816 15.239 28.0744 15.6449 27.8557C15.925 27.7049 16.1711 27.6532 16.3115 27.7113C16.332 27.7199 16.3502 27.7309 16.3663 27.7441C16.4899 27.848 16.5095 28.1388 16.4164 28.5032C16.2997 28.9646 16.0153 29.5109 15.6372 30.0023C15.2588 30.4936 14.8088 30.9007 14.4021 31.1197C14.0815 31.2922 13.8047 31.3352 13.6814 31.2312C13.5574 31.1275 13.5382 30.8363 13.6306 30.472Z" fill="white"/>
<path d="M16.9469 31.1019C17.6335 30.2105 18.0949 29.2118 18.2464 28.2899C18.4084 27.3033 18.2014 26.5113 17.6633 26.0595C17.1248 25.6077 16.3394 25.5667 15.4517 25.9442C14.6216 26.2973 13.7866 26.9825 13.1 27.8738C12.418 28.7598 11.958 29.7521 11.8035 30.6697C11.9516 31.0976 12.1663 31.4857 12.4496 31.817C12.3677 31.528 12.3586 31.1715 12.4252 30.7648C12.5576 29.9596 12.9688 29.0767 13.5832 28.279C14.1971 27.4816 14.9342 26.8724 15.6596 26.5643C16.19 26.3389 16.6559 26.2991 17.0058 26.4442C17.0961 26.4817 17.1783 26.5314 17.2522 26.5932C17.6123 26.8956 17.7432 27.47 17.6212 28.211C17.4888 29.0161 17.0779 29.8991 16.4635 30.6967C15.8496 31.4943 15.1121 32.1032 14.3872 32.4116C14.0599 32.5509 13.7564 32.6191 13.4902 32.6168C13.8961 32.8095 14.3413 32.9135 14.8068 32.9333C15.5664 32.5595 16.3192 31.9173 16.9469 31.1019Z" fill="white"/>
<path d="M18.4442 25.0458C17.7026 24.4235 16.6456 24.3223 15.4676 24.7607C14.3378 25.1811 13.2208 26.0548 12.3232 27.2214C12.0584 27.5654 11.8212 27.9237 11.615 28.2893C11.5418 28.8205 11.5375 29.3374 11.6037 29.8231C11.8612 29.074 12.2711 28.3216 12.8056 27.6266C13.6253 26.5627 14.6349 25.7688 15.648 25.3914C16.3888 25.116 17.0594 25.091 17.5902 25.3112C17.7515 25.3781 17.8996 25.4675 18.0327 25.5793C18.6053 26.0595 18.8495 26.9088 18.7209 27.9703C18.586 29.0847 18.0609 30.2845 17.2412 31.3486C16.775 31.9544 16.247 32.472 15.6917 32.8756C16.1901 32.7921 16.6982 32.624 17.1989 32.3764C17.3809 32.1799 17.5561 31.9722 17.724 31.754C18.6217 30.5876 19.1993 29.2612 19.3497 28.0192C19.5071 26.7236 19.1855 25.6678 18.4442 25.0458Z" fill="white"/>
<path d="M28.3849 18.3092C28.4633 17.8337 28.4825 17.3425 28.4295 16.8625C28.3732 16.3532 28.2354 15.8567 27.9999 15.4053C27.589 14.6173 26.9074 14.038 26.2215 13.4961C24.7286 12.3159 24.5435 12.284 23.7231 11.473C23.3648 11.119 22.8533 10.6077 22.3451 9.83382C21.8409 9.06587 21.5327 8.33342 21.3407 7.75067C21.3268 7.68198 21.3052 7.61578 21.2783 7.55279C21.2505 7.46322 21.2264 7.37829 21.2044 7.29818C21.196 7.32512 21.188 7.35188 21.18 7.37847C21.0462 7.1888 20.8556 7.08299 20.6483 6.99699C20.5649 6.96237 20.457 6.95667 20.3678 6.95667C20.2541 6.95667 20.1619 7.04891 20.1619 7.16275V24.1797L20.1626 24.213C20.1744 24.4264 20.1824 24.6768 20.1845 24.9455C19.9875 24.5117 19.7133 24.1422 19.3648 23.8497C18.4354 23.0697 17.1056 22.9444 15.6207 23.4972C14.5797 23.8845 13.5468 24.5756 12.6218 25.4918C12.2371 26.1386 11.9556 26.8115 11.7791 27.477C11.8822 27.3282 11.99 27.1808 12.1015 27.0356C13.1673 25.652 14.4811 24.6193 15.8011 24.1281C16.7755 23.7655 17.6599 23.7338 18.3622 24.0251C18.5776 24.1142 18.7751 24.2337 18.9539 24.3832C19.7147 25.0215 20.0398 26.1434 19.8705 27.5427C19.6946 28.9945 19.0112 30.556 17.9458 31.9397C17.944 31.942 17.942 31.9443 17.9406 31.9468C18.4354 31.6162 18.9125 31.2069 19.3516 30.7239C20.258 29.9579 20.8982 28.4594 21.1245 27.3452C21.3336 26.3142 21.4169 25.2156 21.3607 24.1632V16.1968C22.9352 17.0564 24.4945 17.973 25.8778 19.12C26.7693 19.8588 27.2972 20.8985 27.2665 22.0649C27.2414 23.0468 26.9794 23.9566 26.7075 24.8907C26.6957 24.9314 26.6838 24.9731 26.6884 25.0151C26.7066 25.1808 26.9147 25.1673 27.0028 25.0732C27.1502 24.916 27.2391 24.6247 27.3527 24.4373C27.484 24.2212 27.582 23.9975 27.6755 23.7627C27.8487 23.3259 27.9922 22.878 28.0682 22.4136C28.1465 21.9381 28.1658 21.4468 28.1132 20.9669C28.0737 20.6148 27.9958 20.2689 27.8737 19.9397C27.9151 19.8474 27.9542 19.7537 27.9922 19.6581C28.1655 19.2213 28.3089 18.7736 28.3849 18.3092ZM27.5834 17.9605C27.5733 18.3586 27.5238 18.7447 27.4507 19.1253C27.0394 18.5263 26.4738 18.0505 25.9048 17.6005C24.4119 16.4205 24.2268 16.3886 23.4064 15.5776C23.0481 15.2234 22.5362 14.7121 22.0281 13.9382C21.7506 13.5155 21.5329 13.1035 21.3607 12.7213V11.92C23.0426 12.8302 24.718 13.7917 26.1947 15.0154C27.1175 15.7805 27.6152 16.7492 27.5834 17.9605Z" fill="white"/>
</g>
</g>
<path d="M54.15 31.6151H58.0324V18.0108H62.4602V14.8023H57.9682V13.8718C57.9682 12.1071 58.7383 11.3049 60.2142 11.3049C61.0484 11.3049 61.7222 11.4654 62.4923 11.722V8.44932C61.626 8.19264 60.6955 8.00012 59.3479 8.00012C57.6794 8.00012 56.4281 8.44932 55.5297 9.34772C54.6313 10.2461 54.15 11.6579 54.15 13.5509V14.7702H52.0003V18.0108H54.15V31.6151Z" fill="black"/>
<path d="M78.4493 31.6151V21.5723C78.4493 17.0483 76.0108 14.4172 71.0055 14.4172C68.2461 14.4172 66.4172 14.9948 64.5563 15.829L65.6151 18.9413C67.1552 18.2996 68.567 17.8825 70.46 17.8825C73.1552 17.8825 74.6311 19.1659 74.6311 21.5081V21.829C73.3156 21.4119 72.0001 21.1231 69.9467 21.1231C66.0001 21.1231 63.0803 22.9199 63.0803 26.6739V26.7381C63.0803 30.1392 65.9039 31.968 69.1124 31.968C71.6793 31.968 73.444 30.9092 74.5991 29.5295V31.6151H78.4493ZM74.6953 25.4868C74.6953 27.6044 72.7702 29.0483 70.2033 29.0483C68.3745 29.0483 66.9306 28.1499 66.9306 26.5456V26.4814C66.9306 24.845 68.3745 23.8504 70.813 23.8504C72.321 23.8504 73.7007 24.1392 74.6953 24.5242V25.4868Z" fill="black"/>
<path d="M82.4252 31.6151H86.3075V22.0536C86.3075 19.4226 87.8797 17.8504 90.1257 17.8504C92.4359 17.8504 93.7514 19.3584 93.7514 21.9894V31.6151H97.6337V20.8343C97.6337 16.8878 95.4198 14.321 91.6017 14.321C88.9706 14.321 87.3984 15.7007 86.3075 17.3049V14.6739H82.4252V31.6151Z" fill="black"/>
<path d="M109.509 32.0001C112.814 32.0001 114.771 30.6846 116.44 28.8237L114.097 26.5135C112.878 27.7648 111.531 28.6311 109.702 28.6311C106.718 28.6311 104.632 26.1926 104.632 23.1766V23.1124C104.632 20.1606 106.686 17.722 109.509 17.722C111.466 17.722 112.718 18.5884 113.905 19.8397L116.311 17.2408C114.739 15.5081 112.75 14.321 109.541 14.321C104.472 14.321 100.75 18.3638 100.75 23.1766V23.2408C100.75 28.0536 104.472 32.0001 109.509 32.0001Z" fill="black"/>
<path d="M119.593 31.6151H123.476V8.19264H119.593V31.6151Z" fill="black"/>
<path d="M133.747 31.968C136.378 31.968 137.951 30.5884 139.041 28.9841V31.6151H142.924V14.6739H139.041V24.2354C139.041 26.8664 137.469 28.4386 135.223 28.4386C132.913 28.4386 131.598 26.9306 131.598 24.2996V14.6739H127.715V25.4547C127.715 29.4012 129.929 31.968 133.747 31.968Z" fill="black"/>
<path d="M156.788 31.968C160.831 31.968 164.682 28.7916 164.682 23.1766V23.1124C164.682 17.4974 160.799 14.321 156.788 14.321C154.061 14.321 152.297 15.7327 151.045 17.4974V8.19264H147.163V31.6151H151.045V28.9841C152.232 30.5563 153.997 31.968 156.788 31.968ZM155.89 28.5991C153.259 28.5991 150.949 26.4493 150.949 23.1766V23.1124C150.949 19.8718 153.259 17.69 155.89 17.69C158.521 17.69 160.735 19.8397 160.735 23.1124V23.1766C160.735 26.5135 158.553 28.5991 155.89 28.5991Z" fill="black"/>
<defs>
<filter id="filter0_d" x="7.55695" y="6.95667" width="24.9024" height="33.9766" filterUnits="userSpaceOnUse" color-interpolation-filters="sRGB">
<feFlood flood-opacity="0" result="BackgroundImageFix"/>
<feColorMatrix in="SourceAlpha" type="matrix" values="0 0 0 0 0 0 0 0 0 0 0 0 0 0 0 0 0 0 127 0" result="hardAlpha"/>
<feOffset dy="4"/>
<feGaussianBlur stdDeviation="2"/>
<feComposite in2="hardAlpha" operator="out"/>
<feColorMatrix type="matrix" values="0 0 0 0 0 0 0 0 0 0 0 0 0 0 0 0 0 0 0.25 0"/>
<feBlend mode="normal" in2="BackgroundImageFix" result="effect1_dropShadow"/>
<feBlend mode="normal" in="SourceGraphic" in2="effect1_dropShadow" result="shape"/>
</filter>
<linearGradient id="paint0_linear" x1="11.1382" y1="40.7551" x2="20" y2="-4.63349" gradientUnits="userSpaceOnUse">
<stop stop-color="#E0208C"/>
<stop offset="1" stop-color="#FA6400"/>
</linearGradient>
<radialGradient id="paint1_radial" cx="0" cy="0" r="1" gradientUnits="userSpaceOnUse" gradientTransform="translate(20 20) scale(27.6176)">
<stop stop-color="#33658A"/>
<stop offset="1" stop-color="#2F4858"/>
</radialGradient>
</defs>
</svg>
