<svg width="42" height="42" viewBox="0 0 42 42" fill="none" xmlns="http://www.w3.org/2000/svg">
<circle cx="21" cy="21" r="20" stroke="#666666" stroke-width="1.5" stroke-linecap="round" stroke-linejoin="round"/>
<path d="M20.3737 22.0417C20.949 22.0417 21.4154 21.5753 21.4154 21C21.4154 20.4247 20.949 19.9583 20.3737 19.9583C19.7984 19.9583 19.332 20.4247 19.332 21C19.332 21.5753 19.7984 22.0417 20.3737 22.0417Z" stroke="#666666" stroke-width="1.5" stroke-linecap="round" stroke-linejoin="round"/>
<path d="M20.3737 14.75C20.949 14.75 21.4154 14.2836 21.4154 13.7083C21.4154 13.133 20.949 12.6667 20.3737 12.6667C19.7984 12.6667 19.332 13.133 19.332 13.7083C19.332 14.2836 19.7984 14.75 20.3737 14.75Z" stroke="#666666" stroke-width="1.5" stroke-linecap="round" stroke-linejoin="round"/>
<path d="M20.3737 29.3333C20.949 29.3333 21.4154 28.867 21.4154 28.2917C21.4154 27.7164 20.949 27.25 20.3737 27.25C19.7984 27.25 19.332 27.7164 19.332 28.2917C19.332 28.867 19.7984 29.3333 20.3737 29.3333Z" stroke="#666666" stroke-width="1.5" stroke-linecap="round" stroke-linejoin="round"/>
</svg>
