<svg width="24" height="24" viewBox="0 0 24 24" fill="none" xmlns="http://www.w3.org/2000/svg">
<path d="M12 18H6C4.89543 18 4 17.1046 4 16V8C4 6.89543 4.89543 6 6 6H18C19.1046 6 20 6.89543 20 8" stroke="#212121" stroke-width="1.5" stroke-linecap="round" stroke-linejoin="round"/>
<path d="M12 11H4" stroke="#212121" stroke-width="1.5" stroke-linecap="round" stroke-linejoin="round"/>
<path d="M17.5 10V11" stroke="#212121" stroke-width="1.5" stroke-linecap="round" stroke-linejoin="round"/>
<path d="M17.5 17V18" stroke="#212121" stroke-width="1.5" stroke-linecap="round" stroke-linejoin="round"/>
<path d="M19.5833 11H16.4583C16.0716 11 15.7006 11.158 15.4271 11.4393C15.1536 11.7206 15 12.1022 15 12.5C15 12.8978 15.1536 13.2794 15.4271 13.5607C15.7006 13.842 16.0716 14 16.4583 14H18.5417C18.9284 14 19.2994 14.158 19.5729 14.4393C19.8464 14.7206 20 15.1022 20 15.5C20 15.8978 19.8464 16.2794 19.5729 16.5607C19.2994 16.842 18.9284 17 18.5417 17H15" stroke="#212121" stroke-width="1.5" stroke-linecap="round" stroke-linejoin="round"/>
</svg>
