<svg width="24" height="24" viewBox="0 0 24 24" fill="none" xmlns="http://www.w3.org/2000/svg">
<path d="M17.7914 7.21616L4.72322 0.299398C4.04411 -0.0600173 3.30775 -0.0783855 2.67041 0.151338L13.8039 11.1582L17.7914 7.21616Z" fill="#1B1B1B"/>
<path d="M22.6646 9.79556L18.9004 7.80322L14.6553 12L18.9004 16.1968L22.6646 14.2044C24.4453 13.262 24.4453 10.738 22.6646 9.79556Z" fill="#1B1B1B"/>
<path d="M1.65097 0.827148C1.25168 1.26101 1 1.84021 1 2.50384V21.4962C1 22.1598 1.25168 22.739 1.65092 23.1729L12.9523 12L1.65097 0.827148Z" fill="#1B1B1B"/>
<path d="M2.67041 23.8486C3.3077 24.0783 4.04411 24.06 4.72322 23.7006L17.7914 16.7838L13.8039 12.8417L2.67041 23.8486Z" fill="#1B1B1B"/>
</svg>
