<svg width="24" height="24" viewBox="0 0 24 24" fill="none" xmlns="http://www.w3.org/2000/svg">
<path d="M5 10.5613C5 9.95368 5.27618 9.37906 5.75061 8.99951L10.7506 4.99951C11.481 4.41516 12.519 4.41516 13.2494 4.99951L18.2494 8.99951C18.7238 9.37906 19 9.95368 19 10.5612V18.4C19 18.8243 18.8361 19.2313 18.5444 19.5314C18.2527 19.8314 17.857 20 17.4444 20H16C14.8954 20 14 19.1046 14 18V16C14 14.8954 13.1046 14 12 14V14C10.8954 14 10 14.8954 10 16V18C10 19.1046 9.10457 20 8 20H6.55556C6.143 20 5.74733 19.8314 5.45561 19.5314C5.16389 19.2313 5 18.8243 5 18.4V10.5613Z" stroke="#1B1B1B" stroke-width="1.5" stroke-linecap="round" stroke-linejoin="round"/>
</svg>
