<svg width="24" height="24" viewBox="0 0 24 24" fill="none" xmlns="http://www.w3.org/2000/svg">
<path d="M17 4.00012L18 4.00012C19.1046 4.00012 20 4.89555 20 6.00012L20 18.0001C20 19.1047 19.1046 20.0001 18 20.0001L6 20.0001C4.89543 20.0001 4 19.1047 4 18.0001L4 13.0001" stroke="#1B1B1B" stroke-width="1.5" stroke-linecap="round" stroke-linejoin="round"/>
<path d="M13.2289 4.77109C12.9846 4.52663 12.6944 4.33271 12.3751 4.20041C12.0558 4.0681 11.7136 4 11.3679 4C11.0223 4 10.6801 4.0681 10.3607 4.20041C10.0414 4.33271 9.75132 4.52663 9.50697 4.77109L8.99987 5.27819L8.49277 4.77109C7.99921 4.27753 7.3298 4.00026 6.6318 4.00026C5.93381 4.00026 5.2644 4.27753 4.77084 4.77109C4.27728 5.26465 4 5.93406 4 6.63206C4 7.33006 4.27728 7.99947 4.77084 8.49303L5.27794 9.00013L8.99987 12.7221L12.7218 9.00013L13.2289 8.49303C13.4734 8.24868 13.6673 7.95857 13.7996 7.63926C13.9319 7.31995 14 6.9777 14 6.63206C14 6.28642 13.9319 5.94417 13.7996 5.62486C13.6673 5.30555 13.4734 5.01544 13.2289 4.77109V4.77109Z" stroke="#1B1B1B" stroke-width="1.5" stroke-linecap="round" stroke-linejoin="round"/>
</svg>
