<svg width="24" height="24" viewBox="0 0 24 24" fill="none" xmlns="http://www.w3.org/2000/svg">
<path d="M11.435 5.83718C11.8006 5.08955 12.8661 5.08955 13.2317 5.83718L14.677 8.7929C14.8218 9.08904 15.1032 9.29479 15.4294 9.34291L18.6785 9.82232C19.4955 9.94286 19.8225 10.9457 19.2336 11.5247L16.8722 13.8464C16.639 14.0757 16.5327 14.4046 16.5874 14.727L17.1429 17.9962C17.2819 18.8145 16.4212 19.4361 15.6881 19.047L12.8022 17.515C12.509 17.3593 12.1577 17.3593 11.8644 17.515L8.97854 19.047C8.24547 19.4361 7.38476 18.8145 7.52378 17.9962L8.07923 14.727C8.13401 14.4046 8.02767 14.0757 7.79446 13.8464L5.43305 11.5247C4.84418 10.9457 5.1712 9.94286 5.98818 9.82231L9.2373 9.34291C9.56342 9.29479 9.84488 9.08904 9.98969 8.7929L11.435 5.83718Z" stroke="#212121" stroke-width="1.5"/>
</svg>
