<svg width="24" height="24" viewBox="0 0 24 24" fill="none" xmlns="http://www.w3.org/2000/svg">
<path d="M16 12C16 12.3536 15.8595 12.6928 15.6095 12.9428C15.3594 13.1929 15.0203 13.3333 14.6667 13.3333H6.66667L4 16V5.33333C4 4.97971 4.14048 4.64057 4.39052 4.39052C4.64057 4.14048 4.97971 4 5.33333 4H14.6667C15.0203 4 15.3594 4.14048 15.6095 4.39052C15.8595 4.64057 16 4.97971 16 5.33333V12Z" stroke="#212121" stroke-width="1.5" stroke-linecap="round" stroke-linejoin="round"/>
<path d="M8 14V16C8 16.3536 8.14048 16.6928 8.39052 16.9428C8.64057 17.1929 8.97971 17.3333 9.33333 17.3333H17.3333L20 20V9.33333C20 8.97971 19.8595 8.64057 19.6095 8.39052C19.3594 8.14048 19.0203 8 18.6667 8H16" stroke="#212121" stroke-width="1.5" stroke-linecap="round" stroke-linejoin="round"/>
</svg>
