<svg width="24" height="24" viewBox="0 0 24 24" fill="none" xmlns="http://www.w3.org/2000/svg">
<path d="M12 20C16.4183 20 20 16.4183 20 12C20 7.58172 16.4183 4 12 4C7.58172 4 4 7.58172 4 12C4 16.4183 7.58172 20 12 20Z" stroke="#212121" stroke-width="1.5" stroke-linecap="round" stroke-linejoin="round"/>
<path d="M9.67188 9.60001C9.85996 9.06534 10.2312 8.6145 10.7198 8.32732C11.2085 8.04014 11.783 7.93516 12.3416 8.03098C12.9002 8.1268 13.4069 8.41723 13.7719 8.85083C14.1369 9.28444 14.3367 9.83323 14.3359 10.4C14.3359 12 11.9359 12.8 11.9359 12.8" stroke="#212121" stroke-width="1.5" stroke-linecap="round" stroke-linejoin="round"/>
<path d="M12 16H12.008" stroke="#212121" stroke-width="1.5" stroke-linecap="round" stroke-linejoin="round"/>
</svg>
