<svg width="32" height="32" viewBox="0 0 32 32" fill="none" xmlns="http://www.w3.org/2000/svg">
<path opacity="0.87" d="M13.0318 22.0081C19.0699 22.0081 22.3718 17.004 22.3718 12.6647C22.3718 12.5225 22.3689 12.3811 22.3625 12.2402C23.005 11.7751 23.5595 11.1993 24 10.5397C23.4118 10.8013 22.7789 10.9774 22.1149 11.0567C22.7926 10.6502 23.3129 10.0071 23.5584 9.24042C22.914 9.62283 22.2091 9.8924 21.4739 10.0375C20.8749 9.39922 20.0221 9 19.0778 9C17.2649 9 15.7949 10.4706 15.7949 12.2834C15.7949 12.5411 15.8237 12.7917 15.8801 13.0322C13.1518 12.8949 10.7325 11.5881 9.11343 9.60117C8.82182 10.1023 8.66843 10.6719 8.66894 11.2517C8.66894 12.391 9.24846 13.3968 10.1298 13.9852C9.60846 13.9693 9.0986 13.8284 8.64306 13.5745C8.64257 13.5883 8.64257 13.6017 8.64257 13.6164C8.64257 15.2068 9.77408 16.5346 11.2761 16.8355C10.994 16.9123 10.7029 16.9512 10.4105 16.951C10.1994 16.951 9.99359 16.9302 9.79359 16.8918C10.2115 18.1966 11.4233 19.1461 12.8601 19.1726C11.7366 20.0536 10.3213 20.5783 8.78302 20.5783C8.52135 20.5785 8.25989 20.5633 8 20.5328C9.45281 21.4644 11.1779 22.0079 13.032 22.0079" fill="#1B1B1B"/>
<circle cx="16" cy="16" r="15.25" stroke="#1B1B1B" stroke-width="1.5" stroke-linecap="round" stroke-linejoin="round"/>
</svg>
