<svg width="32" height="32" viewBox="0 0 32 32" fill="none" xmlns="http://www.w3.org/2000/svg">
<path fill-rule="evenodd" clip-rule="evenodd" d="M16 7.5508C17.7532 9.80964 18.7918 12.5468 18.9743 15.4085C16.9958 15.5931 15.0042 15.5931 13.0256 15.4084C13.2081 12.5468 14.2467 9.80964 16 7.5508ZM25.7698 16.1131C24.1796 16.5901 22.5632 16.9482 20.9336 17.1871C20.6379 20.3749 19.4093 23.4073 17.4003 25.9028C22.246 25.2237 25.9782 21.0719 25.9999 16.044L25.7698 16.1131ZM25.8038 14.0193C25.7734 14.0255 25.743 14.0331 25.7126 14.0422L25.1951 14.1974C23.8022 14.6153 22.3878 14.9361 20.9621 15.1599C20.7259 11.8455 19.4821 8.68317 17.4003 6.09729C21.6073 6.6868 24.9749 9.89393 25.8038 14.0193ZM14.5996 6.09729C12.5178 8.68317 11.274 11.8455 11.0379 15.1599C9.61212 14.9361 8.1978 14.6153 6.80485 14.1974L6.28733 14.0422C6.25699 14.033 6.22655 14.0255 6.1961 14.0193C7.02501 9.89393 10.3926 6.6868 14.5996 6.09729ZM6.00006 16.044C6.02173 21.0719 9.75389 25.2237 14.5997 25.9028C12.5906 23.4073 11.362 20.3749 11.0663 17.1871C9.43678 16.9481 7.82037 16.5901 6.23016 16.1131L6.00006 16.044ZM16 24.4492C14.4174 22.4102 13.417 19.9816 13.1031 17.4233C15.0308 17.5882 16.9691 17.5882 18.8968 17.4233C18.5829 19.9816 17.5826 22.4102 16 24.4492Z" fill="#212121"/>
</svg>
