<svg width="32" height="32" viewBox="0 0 32 32" fill="none" xmlns="http://www.w3.org/2000/svg">
<path fill-rule="evenodd" clip-rule="evenodd" d="M20.774 11.0836C21.6131 11.1327 22.0252 11.2618 22.405 11.9636C22.8005 12.6645 23 13.8718 23 15.9982V16.0009V16.0055C23 18.1218 22.8005 19.3382 22.4059 20.0318C22.0261 20.7336 21.614 20.8609 20.7749 20.92C19.9358 20.97 17.8279 21 16.0017 21C14.1721 21 12.0634 20.97 11.2251 20.9191C10.3878 20.86 9.97562 20.7327 9.59237 20.0309C9.20125 19.3373 9 18.1209 9 16.0045V16.0027V16V15.9973C9 13.8718 9.20125 12.6645 9.59237 11.9636C9.97562 11.2609 10.3886 11.1327 11.226 11.0827C12.0634 11.0245 14.1721 11 16.0017 11C17.8279 11 19.9358 11.0245 20.774 11.0836ZM18.625 16L14.25 13.2727V18.7273L18.625 16Z" fill="#1B1B1B"/>
<circle cx="16" cy="16" r="15.25" stroke="#1B1B1B" stroke-width="1.5" stroke-linecap="round" stroke-linejoin="round"/>
</svg>
