<?xml version="1.0" encoding="UTF-8"?>
<svg width="140px" height="40px" viewBox="0 0 140 40" version="1.1" xmlns="http://www.w3.org/2000/svg" xmlns:xlink="http://www.w3.org/1999/xlink">
    <title>7405D6C8-17D5-4BB3-A39D-E10EC0FEEA8F</title>
    <g id="Web-Layouts" stroke="none" stroke-width="1" fill="none" fill-rule="evenodd">
        <g id="3.-Homepage" transform="translate(-71.000000, -3826.000000)" fill-rule="nonzero">
            <g id="Footer" transform="translate(0.000000, 3618.000000)">
                <g id="Left" transform="translate(71.000000, 136.000000)">
                    <g id="aivalable-on-the-app-store-2" transform="translate(0.000000, 72.000000)">
                        <path d="M139.205471,35.964122 C139.205471,38.1761336 137.41377,39.9677471 135.197664,39.9677471 L4.0406996,39.9677471 C1.82563912,39.9677471 0.0277535893,38.1761336 0.0277535893,35.964122 L0.0277535893,4.03651827 C0.0277535893,1.82563912 1.82572623,0.0276664783 4.0406996,0.0276664783 L135.196532,0.0276664783 C137.413683,0.0276664783 139.205471,1.82563912 139.205471,4.03651827 L139.205471,35.964122 Z" id="Path" fill="#000000"></path>
                        <path d="M30.5911107,19.7781869 C30.5607961,16.4090788 33.3497443,14.7699968 33.477275,14.6936875 C31.8977769,12.3908191 29.4496943,12.0761738 28.5893853,12.0510859 C26.5332154,11.8347019 24.5387202,13.2814427 23.4912966,13.2814427 C22.4229663,13.2814427 20.8100176,12.0719925 19.0716289,12.1075338 C16.8346165,12.1420298 14.741947,13.4371973 13.5940844,15.4484179 C11.2254471,19.549259 12.9919726,25.5756033 15.2614775,28.890354 C16.396622,30.5148014 17.7232366,32.3263634 19.4594475,32.2625981 C21.1581135,32.1936061 21.7926306,31.1806785 23.8425284,31.1806785 C25.8735232,31.1806785 26.4694501,32.2625981 28.240157,32.2218301 C30.0633047,32.1936061 31.2109932,30.5911107 32.3065892,28.953074 C33.618482,27.0934267 34.1452427,25.2599128 34.1662365,25.1658328 C34.124336,25.1511982 30.626652,23.8152627 30.5911107,19.7781869 L30.5911107,19.7781869 Z M27.2460453,9.87052136 C28.1595792,8.72797247 28.7847754,7.1735624 28.6112502,5.596155 C27.2888169,5.65469365 25.6351873,6.51082132 24.6828019,7.62828222 C23.8402635,8.61298584 23.0876238,10.2269799 23.2820558,11.7448033 C24.767561,11.8556086 26.2927017,10.9952996 27.2460453,9.87052136 L27.2460453,9.87052136 Z" id="Shape" fill="#FFFFFF"></path>
                        <g id="Group" transform="translate(43.436859, 17.882619)" fill="#FFFFFF">
                            <path d="M11.7582533,14.1468695 L9.38430217,14.1468695 L8.083908,10.0606631 L3.5638013,10.0606631 L2.32508177,14.1468695 L0.0139377724,14.1468695 L4.49318938,0.235578843 L7.25914032,0.235578843 L11.7582533,14.1468695 Z M7.69199527,8.34631706 L6.51599572,4.71378512 C6.3916011,4.34269193 6.15744652,3.4687936 5.81449021,2.09313546 L5.772764,2.09313546 C5.63478006,2.6847939 5.41421481,3.55869223 5.11211359,4.71378512 L3.95597537,8.34631706 L7.69199527,8.34631706 Z M23.2549119,9.0080128 C23.2549119,10.7139961 22.7918295,12.0624756 21.864532,13.052493 C21.0346248,13.9336216 20.0028812,14.3737939 18.7724372,14.3737939 C17.4438191,14.3737939 16.4883848,13.9001709 15.908225,12.9510957 L15.908225,18.214347 L13.6795752,18.214347 L13.6795752,7.41283475 C13.6795752,6.34128138 13.6514383,5.24272358 13.597081,4.11585468 L15.5570802,4.11585468 L15.6814749,5.70580607 L15.7232011,5.70580607 C16.4664328,4.50785453 17.594347,3.90879165 19.1079891,3.90879165 C20.291306,3.90879165 21.2791456,4.37605547 22.0694173,5.31162845 C22.8586437,6.2493792 23.2549119,7.48078139 23.2549119,9.0080128 L23.2549119,9.0080128 Z M20.9843617,9.08954877 C20.9843617,8.11320781 20.7648418,7.30830146 20.3237113,6.67378437 C19.8418128,6.01417929 19.1947517,5.68394119 18.3835734,5.68394119 C17.8337283,5.68394119 17.3340591,5.86783268 16.887702,6.2305632 C16.4402995,6.59642973 16.1476062,7.07414688 16.0107547,7.66580532 C15.9417628,7.94177321 15.9072668,8.16651979 15.9072668,8.3443135 L15.9072668,10.0178044 C15.9072668,10.7464015 16.130968,11.3621897 16.5783705,11.8660401 C17.025773,12.3678 17.6069781,12.6196381 18.3219858,12.6196381 C19.1614753,12.6196381 19.8148084,12.2946267 20.2819851,11.6495691 C20.7502071,11.002508 20.9843617,10.1495164 20.9843617,9.08954877 L20.9843617,9.08954877 Z M34.7921644,9.0080128 C34.7921644,10.7139961 34.3290819,12.0624756 33.4018716,13.052493 C32.5708319,13.9336216 31.5401337,14.3737939 30.3087315,14.3737939 C28.9801133,14.3737939 28.024679,13.9001709 27.4445192,12.9510957 L27.4445192,18.214347 L25.2158694,18.214347 L25.2158694,7.41283475 C25.2158694,6.34128138 25.1876454,5.24272358 25.1332881,4.11585468 L27.0932874,4.11585468 L27.217682,5.70580607 L27.2594953,5.70580607 C28.0016817,4.50785453 29.1295959,3.90879165 30.6441962,3.90879165 C31.8264678,3.90879165 32.8143074,4.37605547 33.6067569,5.31162845 C34.395025,6.2493792 34.7921644,7.48078139 34.7921644,9.0080128 Z M32.5206559,9.08954877 C32.5206559,8.11320781 32.3001778,7.30830146 31.8589602,6.67378437 C31.3770617,6.01417929 30.7320913,5.68394119 29.9209129,5.68394119 C29.3710678,5.68394119 28.8713987,5.86783268 28.4229509,6.2305632 C27.9755484,6.59642973 27.6839876,7.07414688 27.5469619,7.66580532 C27.4790152,7.94177321 27.4424286,8.16651979 27.4424286,8.3443135 L27.4424286,10.0178044 C27.4424286,10.7464015 27.6671751,11.3621897 28.112487,11.8660401 C28.5598895,12.3667546 29.1410946,12.6196381 29.858193,12.6196381 C30.6985535,12.6196381 31.3518866,12.2946267 31.8181922,11.6495691 C32.2865014,11.002508 32.5206559,10.1495164 32.5206559,9.08954877 L32.5206559,9.08954877 Z M47.6915728,10.2446417 C47.6915728,11.4290039 47.2776209,12.3917555 46.455031,13.1349872 C45.5496856,13.9461656 44.2859652,14.3528001 42.665612,14.3528001 C41.1686953,14.3528001 39.9686531,14.0642882 39.0633948,13.4862191 L39.5787439,11.6286625 C40.5561302,12.2077769 41.6296871,12.4962888 42.7983693,12.4962888 C43.638817,12.4962888 44.2921501,12.3060382 44.7583686,11.928673 C45.2255453,11.5502625 45.4618776,11.0443214 45.4618776,10.4129403 C45.4618776,9.84750226 45.2664004,9.37387933 44.8827632,8.98823859 C44.4970353,8.60355607 43.8593822,8.24500687 42.963619,7.915727 C40.5279062,7.00733268 39.309048,5.67871453 39.309048,3.93091787 C39.309048,2.78941431 39.7397252,1.85488666 40.5990759,1.12419895 C41.4583396,0.394556559 42.5977525,0.0298224774 44.015224,0.0298224774 C45.2811221,0.0298224774 46.3358631,0.250387726 47.1731748,0.69047289 L46.6139216,2.50717441 C45.8257406,2.08067858 44.9360752,1.86743066 43.9409182,1.86743066 C43.154915,1.86743066 42.5380814,2.06081725 42.0969509,2.44549977 C41.7258577,2.78941431 41.5376978,3.20867992 41.5376978,3.70617129 C41.5376978,4.25505819 41.7520782,4.71082334 42.1784869,5.06832721 C42.5485348,5.39751997 43.2238198,5.75615628 44.2001608,6.14083879 C45.3981123,6.62378261 46.2781955,7.18617173 46.8417171,7.83218748 C47.4093329,8.47802901 47.6915728,9.2839807 47.6915728,10.2446417 L47.6915728,10.2446417 Z M55.0790277,5.78838737 L52.6224082,5.78838737 L52.6224082,10.6585935 C52.6224082,11.897313 53.0552632,12.5151048 53.9228895,12.5151048 C54.3210742,12.5151048 54.6514865,12.481567 54.9128198,12.4116168 L54.9744073,14.1040108 C54.5354546,14.2682152 53.9572984,14.3507094 53.2412453,14.3507094 C52.361075,14.3507094 51.6732459,14.0820589 51.1767128,13.5447577 C50.6822703,13.0074566 50.4335682,12.1074249 50.4335682,10.8404814 L50.4335682,5.78420604 L48.970015,5.78420604 L48.970015,4.11167335 L50.4335682,4.11167335 L50.4335682,2.27502339 L52.6224082,1.61437298 L52.6224082,4.11167335 L55.0790277,4.11167335 L55.0790277,5.78838737 L55.0790277,5.78838737 Z M66.1406537,9.04878079 C66.1406537,10.5905598 65.6996103,11.8564579 64.8193529,12.8464753 C63.8984145,13.8656749 62.6732844,14.3737067 61.1460529,14.3737067 C59.6721335,14.3737067 58.5003153,13.8855363 57.626417,12.9102406 C56.7525186,11.9327672 56.3155695,10.7014522 56.3155695,9.21603406 C56.3155695,7.66153688 56.7671533,6.38840848 57.6671849,5.39847819 C58.5693073,4.40750257 59.7840712,3.91210187 61.3112155,3.91210187 C62.7830443,3.91210187 63.965403,4.40123057 64.8601208,5.37757153 C65.7152903,6.32464317 66.1406537,7.5476827 66.1406537,9.04878079 L66.1406537,9.04878079 Z M63.8304679,9.1000021 C63.8304679,8.18106734 63.6319418,7.39288631 63.2335828,6.73328123 C62.766319,5.93673754 62.0973059,5.5385528 61.2307249,5.5385528 C60.3380106,5.5385528 59.6534046,5.93673754 59.187099,6.73328123 C58.7877818,7.39288631 58.5891686,8.19465667 58.5891686,9.14172831 C58.5891686,10.0617084 58.7877818,10.851893 59.187099,11.5094945 C59.6689975,12.3060382 60.3411466,12.70431 61.2119089,12.70431 C62.0638553,12.70431 62.731823,12.2976755 63.2147668,11.4896332 C63.6246244,10.8143481 63.8304679,10.0209404 63.8304679,9.1000021 L63.8304679,9.1000021 Z M73.388034,6.07585393 C73.1674688,6.03499884 72.9312235,6.01409218 72.6855703,6.01409218 C71.9015706,6.01409218 71.2952775,6.30896317 70.8688688,6.90262517 C70.4988209,7.42529163 70.3126645,8.08594205 70.3126645,8.88353107 L70.3126645,14.1467824 L68.0840147,14.1467824 L68.0840147,7.2748508 C68.0840147,6.11975791 68.0620627,5.06606232 68.0192041,4.11690002 L69.9604744,4.11690002 L70.0420104,6.03604417 L70.103685,6.03604417 C70.3399303,5.3765262 70.7099781,4.84436463 71.21801,4.44609278 C71.7145431,4.0876307 72.2507118,3.90879165 72.828868,3.90879165 C73.0347115,3.90879165 73.2208679,3.92342631 73.3860305,3.94964675 L73.388034,6.07585393 L73.388034,6.07585393 Z M83.3552835,8.65678094 C83.3552835,9.05609812 83.3290631,9.39260821 83.2736604,9.66761788 L76.587711,9.66761788 C76.612799,10.6585935 76.9369393,11.4175052 77.55778,11.9401717 C78.1213015,12.4064773 78.8498115,12.6405447 79.7446165,12.6405447 C80.7345467,12.6405447 81.6376273,12.4837448 82.4499381,12.1670089 L82.7990793,13.7130563 C81.849917,14.1270082 80.7293201,14.3329388 79.4362432,14.3329388 C77.8808749,14.3329388 76.659839,13.8749958 75.771306,12.961462 C74.8848637,12.0467956 74.4406843,10.8174841 74.4406843,9.2777087 C74.4406843,7.76607017 74.8535908,6.5065311 75.680362,5.50196615 C76.5459848,4.42945456 77.7156252,3.89311166 79.1875411,3.89311166 C80.6332366,3.89311166 81.727613,4.42936745 82.4708447,5.50196615 C83.0593672,6.35182182 83.3552835,7.40551742 83.3552835,8.65678094 L83.3552835,8.65678094 Z M81.2300345,8.07871183 C81.2457145,7.41701608 81.0993679,6.84730963 80.7972667,6.36541115 C80.4114518,5.74448339 79.8177898,5.43506484 79.0222914,5.43506484 C78.2936943,5.43506484 77.6999452,5.73716606 77.2483614,6.34345916 C76.8772682,6.82535764 76.656703,7.40447209 76.5888434,8.07662116 L81.2300345,8.07871183 Z" id="Shape"></path>
                        </g>
                        <g id="Group" transform="translate(44.277276, 5.891984)" fill="#FFFFFF">
                            <path d="M5.77697582,7.24729321 L4.60925183,7.24729321 L3.97055341,5.23920865 L1.74922093,5.23920865 L1.13979183,7.24729321 L0.00351493198,7.24729321 L2.20498609,0.409770509 L3.5639189,0.409770509 L5.77697582,7.24729321 Z M3.77821215,4.39667031 L3.20014304,2.61124166 C3.13951373,2.4283084 3.0276631,2.0028579 2.85518317,1.32339149 L2.83427651,1.32339149 C2.76319387,1.61713004 2.66179658,2.04362588 2.50917797,2.61124166 L1.94156219,4.39667031 L3.77821215,4.39667031 Z M11.2816119,2.31750311 L9.41464731,7.24729321 L8.34936595,7.24729321 L6.54311775,2.31750311 L7.72016263,2.31750311 L8.56270097,4.92456344 C8.70486625,5.36046727 8.82612487,5.77650978 8.91706884,6.17164563 L8.94738349,6.17164563 C9.02900657,5.81727776 9.15017808,5.40123526 9.30175136,4.92456344 L10.1338364,2.31750311 L11.2816119,2.31750311 L11.2816119,2.31750311 Z M15.2559677,7.24729321 L15.1744318,6.67959032 L15.14403,6.67959032 C14.8095235,7.13640081 14.3223983,7.35905673 13.7036483,7.35905673 C12.8213002,7.35905673 12.1920098,6.74021963 12.1920098,5.90813462 C12.1920098,4.69136709 13.2467507,4.06207666 15.0729474,4.06207666 L15.0729474,3.9711327 C15.0729474,3.32198095 14.7279875,2.9968824 14.0485211,2.9968824 C13.5613088,2.9968824 13.1349001,3.11918636 12.7606709,3.36274893 L12.5379279,2.64251454 C12.9947384,2.35818398 13.5624413,2.2160187 14.2324126,2.2160187 C15.5202627,2.2160187 16.1704598,2.89548511 16.1704598,4.25546325 L16.1704598,6.07120655 C16.1704598,6.56878503 16.1913665,6.95451288 16.2415425,7.24825144 L15.2559677,7.24729321 L15.2559677,7.24729321 Z M15.1033491,4.79180616 C13.8856234,4.79180616 13.2771525,5.08659004 13.2771525,5.78591778 C13.2771525,6.30335758 13.5917977,6.55632815 14.0277015,6.55632815 C14.5858222,6.55632815 15.1033491,6.13087764 15.1033491,5.55280853 L15.1033491,4.79180616 Z M18.6104411,1.50527942 C18.2456199,1.50527942 17.9612894,1.22094886 17.9612894,0.845674342 C17.9612894,0.470399819 18.255115,0.196522591 18.6313478,0.196522591 C19.0066223,0.196522591 19.3108142,0.470399819 19.300448,0.845674342 C19.300448,1.24185552 19.0171627,1.50527942 18.6104411,1.50527942 Z M19.1791022,7.24729321 L18.0835933,7.24729321 L18.0835933,2.31750311 L19.1791022,2.31750311 L19.1791022,7.24729321 Z M22.2210211,7.24729321 L21.1255121,7.24729321 L21.1255121,0.0554026454 L22.2210211,0.0554026454 L22.2210211,7.24729321 Z M26.8769339,7.24729321 L26.7953109,6.67959032 L26.7650833,6.67959032 C26.4305768,7.13640081 25.9434516,7.35905673 25.3246145,7.35905673 C24.4423535,7.35905673 23.8130631,6.74021963 23.8130631,5.90813462 C23.8130631,4.69136709 24.8677169,4.06207666 26.6939136,4.06207666 L26.6939136,3.9711327 C26.6939136,3.32198095 26.3489537,2.9968824 25.6694873,2.9968824 C25.1823621,2.9968824 24.7558663,3.11918636 24.3816371,3.36274893 L24.158023,2.64146921 C24.6148335,2.35713865 25.1824493,2.21497337 25.8525077,2.21497337 C27.1403578,2.21497337 27.7904678,2.89443978 27.7904678,4.25441792 L27.7904678,6.07016122 C27.7904678,6.5677397 27.8125069,6.95346755 27.8605922,7.2472061 L26.8769339,7.2472061 L26.8769339,7.24729321 Z M26.7243153,4.79180616 C25.5065025,4.79180616 24.8981187,5.08659004 24.8981187,5.78591778 C24.8981187,6.30335758 25.2126768,6.55632815 25.6485806,6.55632815 C26.2067884,6.55632815 26.7243153,6.13087764 26.7243153,5.55280853 L26.7243153,4.79180616 L26.7243153,4.79180616 Z M32.2291257,7.35914384 C31.5297979,7.35914384 31.0133163,7.06435995 30.6788098,6.48629084 L30.6568578,6.48629084 L30.5941378,7.24729321 L29.6606555,7.24729321 C29.6909702,6.85215737 29.7014235,6.40475487 29.7014235,5.91867506 L29.7014235,0.0554026454 L30.7979778,0.0554026454 L30.7979778,3.03878283 L30.8188844,3.03878283 C31.1438958,2.49102838 31.6698725,2.21715115 32.3910651,2.21715115 C33.5785634,2.21715115 34.4106484,3.23216942 34.4106484,4.71236086 C34.4106484,6.24272827 33.4865741,7.35914384 32.2291257,7.35914384 L32.2291257,7.35914384 Z M32.0063826,3.07746015 C31.3760469,3.07746015 30.7991102,3.62521461 30.7991102,4.38621698 L30.7991102,5.24861665 C30.7991102,5.92808305 31.3175082,6.48629084 31.9876537,6.48629084 C32.8082401,6.48629084 33.2964106,5.81727776 33.2964106,4.75208351 C33.2952781,3.75797189 32.7872463,3.07746015 32.0063826,3.07746015 L32.0063826,3.07746015 Z M37.125378,7.24729321 L36.0310015,7.24729321 L36.0310015,0.0554026454 L37.125378,0.0554026454 L37.125378,7.24729321 Z M43.0890895,5.04582206 L39.8004721,5.04582206 C39.8224241,5.97930437 40.4390834,6.50615217 41.3527044,6.50615217 C41.8398295,6.50615217 42.2861867,6.4246162 42.6813225,6.27304292 L42.8517118,7.0340453 C42.3854933,7.23683988 41.8377388,7.33823718 41.1990404,7.33823718 C39.656129,7.33823718 38.7435534,6.36398689 38.7435534,4.8534808 C38.7435534,3.34192938 39.6781681,2.20565249 41.0756911,2.20565249 C42.3333138,2.20565249 43.125589,3.13913479 43.125589,4.54928892 C43.1297704,4.74163018 43.1203624,4.91411011 43.0890895,5.04582206 L43.0890895,5.04582206 Z M42.0844374,4.26495836 C42.0844374,3.50395599 41.6986225,2.96665486 40.9983365,2.96665486 C40.368959,2.96665486 39.8735583,3.51440932 39.800385,4.26495836 L42.0844374,4.26495836 L42.0844374,4.26495836 Z M49.7289571,7.35914384 C48.2884884,7.35914384 47.3550061,6.28349625 47.3550061,4.82316615 C47.3550061,3.3011614 48.3083497,2.21610581 49.8115385,2.21610581 C51.2299681,2.21610581 52.1854895,3.24053209 52.1854895,4.74267551 C52.1855766,6.28349625 51.2007859,7.35914384 49.7289571,7.35914384 Z M49.7707705,3.01683084 C48.9794534,3.01683084 48.4725541,3.75692656 48.4725541,4.79180616 C48.4725541,5.80682443 48.9899939,6.54692015 49.7604042,6.54692015 C50.5308146,6.54692015 51.0471236,5.75560312 51.0471236,4.7708995 C51.0481673,3.76737988 50.5411808,3.01683084 49.7707705,3.01683084 L49.7707705,3.01683084 Z M58.0748953,7.24729321 L56.9805188,7.24729321 L56.9805188,4.41653164 C56.9805188,3.54472397 56.6459252,3.10777481 55.9864072,3.10777481 C55.3372554,3.10777481 54.8898529,3.66598259 54.8898529,4.31513434 L54.8898529,7.24729321 L53.7953894,7.24729321 L53.7953894,3.7266119 C53.7953894,3.29070807 53.7838907,2.82344425 53.7546214,2.31645778 L54.7184183,2.31645778 L54.7696397,3.07746015 L54.7999543,3.07746015 C55.0925604,2.55061235 55.6926686,2.21506048 56.3616817,2.21506048 C57.395516,2.21506048 58.0749824,3.00637751 58.0749824,4.29422768 L58.0749824,7.24729321 L58.0748953,7.24729321 L58.0748953,7.24729321 Z M65.2427432,3.13913479 L64.0374743,3.13913479 L64.0374743,5.53294721 C64.0374743,6.14237631 64.249764,6.44656819 64.6751274,6.44656819 C64.868514,6.44656819 65.0315859,6.42566153 65.1622525,6.39534687 L65.1926543,7.22743189 C64.9793193,7.30905497 64.6939434,7.34973584 64.3416662,7.34973584 C63.4782212,7.34973584 62.9628721,6.87306402 62.9628721,5.6249365 L62.9628721,3.13913479 L62.243683,3.13913479 L62.243683,2.31750311 L62.9628721,2.31750311 L62.9628721,1.41433546 L64.0374743,1.08923691 L64.0374743,2.31645778 L65.2427432,2.31645778 L65.2427432,3.13913479 Z M71.0444281,7.24729321 L69.9477867,7.24729321 L69.9477867,4.43743829 C69.9477867,3.5551773 69.6132802,3.10882014 68.9537622,3.10882014 C68.3860593,3.10882014 67.8592986,3.49454799 67.8592986,4.27541169 L67.8592986,7.24729321 L66.7627444,7.24729321 L66.7627444,0.0554026454 L67.8592986,0.0554026454 L67.8592986,3.01683084 L67.8802053,3.01683084 C68.2251651,2.47952971 68.7227436,2.21506048 69.361442,2.21506048 C70.4057296,2.21506048 71.0444281,3.02623884 71.0444281,4.31513434 L71.0444281,7.24729321 L71.0444281,7.24729321 Z M76.6421859,5.04582206 L73.3546138,5.04582206 C73.3755205,5.97930437 73.9922669,6.50615217 74.905975,6.50615217 C75.3941455,6.50615217 75.8393702,6.4246162 76.2345932,6.27304292 L76.4060278,7.0340453 C75.9397222,7.23683988 75.3910095,7.33823718 74.7523111,7.33823718 C73.2093997,7.33823718 72.296824,6.36398689 72.296824,4.8534808 C72.296824,3.34192938 73.2314388,2.20565249 74.6289618,2.20565249 C75.8865844,2.20565249 76.6788597,3.13913479 76.6788597,4.54928892 C76.6828668,4.74163018 76.6724135,4.91411011 76.6421859,5.04582206 L76.6421859,5.04582206 Z M75.6375339,4.26495836 C75.6375339,3.50395599 75.2528513,2.96665486 74.5524783,2.96665486 C73.9221425,2.96665486 73.4266547,3.51440932 73.3545267,4.26495836 L75.6375339,4.26495836 L75.6375339,4.26495836 Z" id="Shape"></path>
                        </g>
                    </g>
                </g>
            </g>
        </g>
    </g>
</svg>