<?xml version="1.0" encoding="UTF-8"?>
<svg width="135px" height="40px" viewBox="0 0 135 40" version="1.1" xmlns="http://www.w3.org/2000/svg" xmlns:xlink="http://www.w3.org/1999/xlink">
    <title>0C4D3D35-A945-45EE-B36C-BDDFE8C4C463</title>
    <defs>
        <linearGradient x1="61.024%" y1="4.84%" x2="26.11536%" y2="71.968%" id="linearGradient-1">
            <stop stop-color="#00A0FF" offset="0%"></stop>
            <stop stop-color="#00A1FF" offset="0.7%"></stop>
            <stop stop-color="#00BEFF" offset="26%"></stop>
            <stop stop-color="#00D2FF" offset="51.2%"></stop>
            <stop stop-color="#00DFFF" offset="76%"></stop>
            <stop stop-color="#00E3FF" offset="100%"></stop>
        </linearGradient>
        <linearGradient x1="107.724138%" y1="49.4235294%" x2="-130.669951%" y2="49.4235294%" id="linearGradient-2">
            <stop stop-color="#FFE000" offset="0%"></stop>
            <stop stop-color="#FFBD00" offset="40.9%"></stop>
            <stop stop-color="#FFA500" offset="77.5%"></stop>
            <stop stop-color="#FF9C00" offset="100%"></stop>
        </linearGradient>
        <linearGradient x1="86.3892216%" y1="30.8292932%" x2="-49.8862275%" y2="136.002473%" id="linearGradient-3">
            <stop stop-color="#FF3A44" offset="0%"></stop>
            <stop stop-color="#C31162" offset="100%"></stop>
        </linearGradient>
        <linearGradient x1="-18.5808383%" y1="-11.6832997%" x2="42.2754491%" y2="35.0657182%" id="linearGradient-4">
            <stop stop-color="#32A071" offset="0%"></stop>
            <stop stop-color="#2DA771" offset="6.9%"></stop>
            <stop stop-color="#15CF74" offset="47.6%"></stop>
            <stop stop-color="#06E775" offset="80.1%"></stop>
            <stop stop-color="#00F076" offset="100%"></stop>
        </linearGradient>
    </defs>
    <g id="Web-Layouts" stroke="none" stroke-width="1" fill="none" fill-rule="evenodd">
        <g id="3.-Homepage" transform="translate(-217.000000, -3826.000000)" fill-rule="nonzero">
            <g id="Footer" transform="translate(0.000000, 3618.000000)">
                <g id="Left" transform="translate(71.000000, 136.000000)">
                    <g id="google-play-badge-1" transform="translate(146.000000, 72.000000)">
                        <path d="M129.954516,39.9860049 L4.99825061,39.9860049 C2.19923027,39.9860049 0,37.7867746 0,34.9877543 L0,4.99825061 C0,2.19923027 2.19923027,0 4.99825061,0 L129.954516,0 C132.753536,0 134.952767,2.19923027 134.952767,4.99825061 L134.952767,34.9877543 C134.952767,37.7867746 132.753536,39.9860049 129.954516,39.9860049 Z" id="Path" fill="#000000"></path>
                        <path d="M68.0761733,21.7923727 C65.677013,21.7923727 63.7776778,23.5917429 63.7776778,26.0908682 C63.7776778,28.4900285 65.677013,30.3893637 68.0761733,30.3893637 C70.4753336,30.3893637 72.3746689,28.5899935 72.3746689,26.0908682 C72.3746689,23.4917779 70.4753336,21.7923727 68.0761733,21.7923727 Z M68.0761733,28.5899935 C66.7766282,28.5899935 65.677013,27.4903784 65.677013,25.9909032 C65.677013,24.491428 66.7766282,23.3918129 68.0761733,23.3918129 C69.3757185,23.3918129 70.4753336,24.391463 70.4753336,25.9909032 C70.4753336,27.4903784 69.3757185,28.5899935 68.0761733,28.5899935 Z M58.7794272,21.7923727 C56.3802669,21.7923727 54.4809317,23.5917429 54.4809317,26.0908682 C54.4809317,28.4900285 56.3802669,30.3893637 58.7794272,30.3893637 C61.1785875,30.3893637 63.0779227,28.5899935 63.0779227,26.0908682 C63.0779227,23.4917779 61.1785875,21.7923727 58.7794272,21.7923727 Z M58.7794272,28.5899935 C57.479882,28.5899935 56.3802669,27.4903784 56.3802669,25.9909032 C56.3802669,24.491428 57.479882,23.3918129 58.7794272,23.3918129 C60.0789724,23.3918129 61.1785875,24.391463 61.1785875,25.9909032 C61.1785875,27.4903784 60.0789724,28.5899935 58.7794272,28.5899935 Z M47.6833108,23.0919178 L47.6833108,24.891288 L51.9818064,24.891288 C51.8818414,25.8909382 51.4819813,26.6906583 50.9821562,27.1904833 C50.3823662,27.7902734 49.382716,28.4900285 47.6833108,28.4900285 C44.9842555,28.4900285 42.9849553,26.3907632 42.9849553,23.6917079 C42.9849553,20.9926526 45.0842205,18.8933873 47.6833108,18.8933873 C49.082821,18.8933873 50.1824361,19.4931774 50.9821562,20.1929325 L52.2817014,18.8933873 C51.1820863,17.8937372 49.7825761,17.0940171 47.7832759,17.0940171 C44.1845354,17.0940171 41.08562,20.0929675 41.08562,23.6917079 C41.08562,27.2904483 44.1845354,30.2893987 47.7832759,30.2893987 C49.7825761,30.2893987 51.1820863,29.6896086 52.3816664,28.3900635 C53.5812466,27.1904833 53.9811066,25.4910781 53.9811066,24.191533 C53.9811066,23.7916729 53.9811066,23.3918129 53.8811416,23.0919178 L47.6833108,23.0919178 L47.6833108,23.0919178 Z M93.0674264,24.491428 C92.6675664,23.4917779 91.6679162,21.7923727 89.468686,21.7923727 C87.2694557,21.7923727 85.4700855,23.4917779 85.4700855,26.0908682 C85.4700855,28.4900285 87.2694557,30.3893637 89.668616,30.3893637 C91.5679512,30.3893637 92.7675314,29.1897836 93.1673914,28.4900285 L91.7678812,27.4903784 C91.2680562,28.1901335 90.6682661,28.6899585 89.668616,28.6899585 C88.6689659,28.6899585 88.0691758,28.2900985 87.5693507,27.3904134 L93.2673564,24.9912531 L93.0674264,24.491428 L93.0674264,24.491428 Z M87.2694557,25.8909382 C87.2694557,24.291498 88.5690008,23.3918129 89.468686,23.3918129 C90.168441,23.3918129 90.8681961,23.7916729 91.0681262,24.291498 L87.2694557,25.8909382 Z M82.5711001,29.9895037 L84.4704353,29.9895037 L84.4704353,17.4938771 L82.5711001,17.4938771 L82.5711001,29.9895037 Z M79.5721497,22.6920578 C79.0723247,22.1922327 78.2726046,21.6924077 77.2729545,21.6924077 C75.1736892,21.6924077 73.174389,23.5917429 73.174389,25.9909032 C73.174389,28.3900635 75.0737242,30.1894337 77.2729545,30.1894337 C78.2726046,30.1894337 79.0723247,29.6896086 79.4721847,29.1897836 L79.5721497,29.1897836 L79.5721497,29.7895736 C79.5721497,31.3890138 78.6724646,32.288699 77.2729545,32.288699 C76.1733393,32.288699 75.3736192,31.4889789 75.1736892,30.7892238 L73.574249,31.4889789 C74.0740741,32.588594 75.2736542,33.9881042 77.3729195,33.9881042 C79.5721497,33.9881042 81.37152,32.688559 81.37152,29.5896436 L81.37152,21.9923027 L79.5721497,21.9923027 L79.5721497,22.6920578 L79.5721497,22.6920578 Z M77.3729195,28.5899935 C76.0733743,28.5899935 74.9737592,27.4903784 74.9737592,25.9909032 C74.9737592,24.491428 76.0733743,23.3918129 77.3729195,23.3918129 C78.6724646,23.3918129 79.6721148,24.491428 79.6721148,25.9909032 C79.6721148,27.4903784 78.6724646,28.5899935 77.3729195,28.5899935 Z M101.764382,17.4938771 L97.2659569,17.4938771 L97.2659569,29.9895037 L99.1652921,29.9895037 L99.1652921,25.2911481 L101.764382,25.2911481 C103.863648,25.2911481 105.862948,23.7916729 105.862948,21.3925126 C105.862948,18.9933523 103.863648,17.4938771 101.764382,17.4938771 L101.764382,17.4938771 Z M101.864347,23.4917779 L99.1652921,23.4917779 L99.1652921,19.1932824 L101.864347,19.1932824 C103.263858,19.1932824 104.063578,20.3928625 104.063578,21.2925476 C103.963613,22.3921627 103.163893,23.4917779 101.864347,23.4917779 Z M113.360324,21.6924077 C111.960814,21.6924077 110.561304,22.2921977 110.061478,23.5917429 L111.760884,24.291498 C112.160744,23.5917429 112.760534,23.3918129 113.460289,23.3918129 C114.459939,23.3918129 115.359624,23.9916029 115.459589,24.9912531 L115.459589,25.0912181 C115.159694,24.891288 114.359974,24.591393 113.560254,24.591393 C111.760884,24.591393 109.961513,25.5910431 109.961513,27.3904134 C109.961513,29.0898186 111.460989,30.1894337 113.060429,30.1894337 C114.359974,30.1894337 114.959764,29.5896436 115.459589,28.9898536 L115.559554,28.9898536 L115.559554,29.9895037 L117.358924,29.9895037 L117.358924,25.1911831 C117.158994,22.9919528 115.459589,21.6924077 113.360324,21.6924077 L113.360324,21.6924077 Z M113.160394,28.5899935 C112.560604,28.5899935 111.660919,28.2900985 111.660919,27.4903784 C111.660919,26.4907282 112.760534,26.1908332 113.660219,26.1908332 C114.459939,26.1908332 114.859799,26.3907632 115.359624,26.5906933 C115.159694,27.7902734 114.160044,28.5899935 113.160394,28.5899935 L113.160394,28.5899935 Z M123.65672,21.9923027 L121.557455,27.3904134 L121.45749,27.3904134 L119.25826,21.9923027 L117.258959,21.9923027 L120.557805,29.5896436 L118.65847,33.7881741 L120.557805,33.7881741 L125.65602,21.9923027 L123.65672,21.9923027 L123.65672,21.9923027 Z M106.862598,29.9895037 L108.761933,29.9895037 L108.761933,17.4938771 L106.862598,17.4938771 L106.862598,29.9895037 Z" id="Shape" fill="#FFFFFF"></path>
                        <path d="M10.3963613,7.49737592 C10.0964662,7.79727096 9.99650122,8.29709602 9.99650122,8.89688609 L9.99650122,30.9891538 C9.99650122,31.5889439 10.1964312,32.0887689 10.4963263,32.388664 L10.5962913,32.488629 L22.9919528,20.0929675 L22.9919528,19.8930374 L10.3963613,7.49737592 Z" id="Path" fill="url(#linearGradient-1)"></path>
                        <path d="M26.9905533,24.291498 L22.8919878,20.1929325 L22.8919878,19.8930374 L26.9905533,15.7944719 L27.0905183,15.8944369 L31.9888039,18.6934573 C33.3883141,19.4931774 33.3883141,20.7927225 31.9888039,21.5924426 L26.9905533,24.291498 L26.9905533,24.291498 Z" id="Path" fill="url(#linearGradient-2)"></path>
                        <path d="M27.0905183,24.191533 L22.8919878,19.9930024 L10.3963613,32.488629 C10.8961863,32.988454 11.5959414,32.988454 12.4956265,32.588594 L27.0905183,24.191533" id="Path" fill="url(#linearGradient-3)"></path>
                        <path d="M27.0905183,15.7944719 L12.4956265,7.49737592 C11.5959414,6.99755086 10.8961863,7.09751587 10.3963613,7.59734093 L22.8919878,19.9930024 L27.0905183,15.7944719 L27.0905183,15.7944719 Z" id="Path" fill="url(#linearGradient-4)"></path>
                        <path d="M26.9905533,24.091568 L12.4956265,32.288699 C11.6959064,32.788524 10.9961513,32.688559 10.4963263,32.288699 L10.3963613,32.388664 L10.4963263,32.488629 C10.9961513,32.888489 11.6959064,32.988454 12.4956265,32.488629 L26.9905533,24.091568 Z" id="Path" fill="#000000" opacity="0.2"></path>
                        <path d="M10.3963613,32.288699 C10.0964662,31.9888039 9.99650122,31.4889789 9.99650122,30.8891888 L9.99650122,30.9891538 C9.99650122,31.5889439 10.1964312,32.0887689 10.4963263,32.388664 L10.4963263,32.288699 L10.3963613,32.288699 Z M31.9888039,21.2925476 L26.9905533,24.091568 L27.0905183,24.191533 L31.9888039,21.3925126 C32.688559,20.9926526 32.988454,20.4928275 32.988454,19.9930024 C32.988454,20.4928275 32.588594,20.8926876 31.9888039,21.2925476 L31.9888039,21.2925476 Z" id="Shape" fill="#000000" opacity="0.12"></path>
                        <path d="M12.4956265,7.59734093 L31.9888039,18.6934573 C32.588594,19.0933173 32.988454,19.4931774 32.988454,19.9930024 C32.988454,19.4931774 32.688559,18.9933523 31.9888039,18.5934923 L12.4956265,7.49737592 C11.0961164,6.69765582 9.99650122,7.29744589 9.99650122,8.89688609 L9.99650122,8.9968511 C9.99650122,7.49737592 11.0961164,6.79762083 12.4956265,7.59734093 Z" id="Path" fill="#FFFFFF" opacity="0.25"></path>
                        <path d="M46.1838357,12.1957315 C45.5840456,12.7955216 44.8842905,13.0954166 43.9846054,13.0954166 C43.0849203,13.0954166 42.3851652,12.7955216 41.7853751,12.1957315 C41.185585,11.5959414 40.88569,10.8961863 40.88569,9.99650122 C40.88569,9.09681611 41.185585,8.39706103 41.7853751,7.79727096 C42.3851652,7.19748088 43.0849203,6.89758584 43.9846054,6.89758584 C44.8842905,6.89758584 45.5840456,7.19748088 46.1838357,7.79727096 C46.7836257,8.39706103 47.0835208,9.09681611 47.0835208,9.99650122 C47.0835208,10.8961863 46.7836257,11.5959414 46.1838357,12.1957315 Z M42.3851652,11.6959064 C42.7850252,12.0957665 43.3848153,12.3956615 43.9846054,12.3956615 C44.5843955,12.3956615 45.1841855,12.1957315 45.5840456,11.6959064 C45.9839056,11.2960464 46.2838007,10.6962563 46.2838007,9.99650122 C46.2838007,9.29674614 46.0838706,8.69695607 45.5840456,8.29709602 C45.1841855,7.89723597 44.5843955,7.59734093 43.9846054,7.59734093 C43.3848153,7.59734093 42.7850252,7.79727096 42.3851652,8.29709602 C41.9853051,8.69695607 41.6854101,9.29674614 41.6854101,9.99650122 C41.6854101,10.6962563 41.8853401,11.2960464 42.3851652,11.6959064 Z M48.1831359,12.9954516 L48.1831359,6.99755086 L49.082821,6.99755086 L51.9818064,11.6959064 L51.9818064,6.99755086 L52.7815265,6.99755086 L52.7815265,12.9954516 L51.9818064,12.9954516 L48.982856,8.09716599 L48.982856,12.9954516 L48.1831359,12.9954516 Z M56.1803369,12.9954516 L55.3806168,12.9954516 L55.3806168,7.69730594 L53.6812116,7.69730594 L53.6812116,6.99755086 L57.7797771,6.99755086 L57.7797771,7.69730594 L56.0803719,7.69730594 L56.0803719,12.9954516 L56.1803369,12.9954516 Z M58.8793922,12.9954516 L58.8793922,6.99755086 L60.6787624,6.99755086 C61.5784475,6.99755086 62.3781676,7.29744589 62.8779927,7.79727096 C63.4777828,8.39706103 63.6777128,9.09681611 63.6777128,9.99650122 C63.6777128,10.8961863 63.3778178,11.5959414 62.8779927,12.1957315 C62.2782026,12.7955216 61.5784475,12.9954516 60.6787624,12.9954516 L58.8793922,12.9954516 Z M59.5791473,12.2956965 L60.6787624,12.2956965 C61.3785175,12.2956965 61.8783426,12.0957665 62.2782026,11.6959064 C62.6780627,11.2960464 62.8779927,10.6962563 62.8779927,9.99650122 C62.8779927,9.29674614 62.6780627,8.69695607 62.2782026,8.29709602 C61.8783426,7.89723597 61.2785525,7.69730594 60.6787624,7.69730594 L59.5791473,7.69730594 L59.5791473,12.2956965 L59.5791473,12.2956965 Z M68.2761034,7.69730594 L65.577048,7.69730594 L65.577048,9.59664118 L68.0761733,9.59664118 L68.0761733,10.2963963 L65.577048,10.2963963 L65.577048,12.1957315 L68.2761034,12.1957315 L68.2761034,12.9954516 L64.7773279,12.9954516 L64.7773279,6.99755086 L68.2761034,6.99755086 L68.2761034,7.69730594 Z M73.9741091,6.99755086 L71.7748788,9.59664118 L74.1740391,12.9954516 L73.274354,12.9954516 L71.2750537,10.1964312 L70.3753686,11.2960464 L70.3753686,12.9954516 L69.5756485,12.9954516 L69.5756485,6.99755086 L70.3753686,6.99755086 L70.3753686,10.0964662 L72.9744589,6.99755086 L73.9741091,6.99755086 Z M76.8730944,12.9954516 L76.8730944,6.99755086 L77.6728145,6.99755086 L77.6728145,9.59664118 L80.6717649,9.59664118 L80.6717649,6.99755086 L81.471485,6.99755086 L81.471485,12.9954516 L80.6717649,12.9954516 L80.6717649,10.2963963 L77.6728145,10.2963963 L77.6728145,12.9954516 L76.8730944,12.9954516 Z M86.3697706,7.69730594 L83.6707152,7.69730594 L83.6707152,9.59664118 L86.1698406,9.59664118 L86.1698406,10.2963963 L83.6707152,10.2963963 L83.6707152,12.1957315 L86.3697706,12.1957315 L86.3697706,12.9954516 L82.8709952,12.9954516 L82.8709952,6.99755086 L86.3697706,6.99755086 L86.3697706,7.69730594 Z M89.568651,12.9954516 L88.7689309,12.9954516 L88.7689309,7.69730594 L87.0695257,7.69730594 L87.0695257,6.99755086 L91.1680912,6.99755086 L91.1680912,7.69730594 L89.468686,7.69730594 L89.468686,12.9954516 L89.568651,12.9954516 Z M99.0653271,12.1957315 C98.4655371,12.7955216 97.765782,13.0954166 96.8660969,13.0954166 C95.9664118,13.0954166 95.2666567,12.7955216 94.6668666,12.1957315 C94.0670765,11.5959414 93.7671815,10.8961863 93.7671815,9.99650122 C93.7671815,9.09681611 94.0670765,8.39706103 94.6668666,7.79727096 C95.2666567,7.19748088 95.9664118,6.89758584 96.8660969,6.89758584 C97.765782,6.89758584 98.4655371,7.19748088 99.0653271,7.79727096 C99.6651172,8.39706103 99.9650122,9.09681611 99.9650122,9.99650122 C99.9650122,10.8961863 99.6651172,11.5959414 99.0653271,12.1957315 Z M95.2666567,11.6959064 C95.6665167,12.0957665 96.2663068,12.3956615 96.8660969,12.3956615 C97.4658869,12.3956615 98.065677,12.1957315 98.4655371,11.6959064 C98.8653971,11.2960464 99.1652921,10.6962563 99.1652921,9.99650122 C99.1652921,9.29674614 98.9653621,8.69695607 98.4655371,8.29709602 C98.065677,7.89723597 97.4658869,7.59734093 96.8660969,7.59734093 C96.2663068,7.59734093 95.6665167,7.79727096 95.2666567,8.29709602 C94.8667966,8.69695607 94.5669016,9.29674614 94.5669016,9.99650122 C94.5669016,10.6962563 94.7668316,11.2960464 95.2666567,11.6959064 Z M101.764382,12.9954516 L100.964662,12.9954516 L100.964662,6.99755086 L102.963963,6.99755086 C103.463788,6.99755086 103.863648,7.19748088 104.263508,7.49737592 C104.663368,7.79727096 104.863298,8.29709602 104.863298,8.79692108 C104.863298,9.29674614 104.663368,9.69660619 104.263508,10.0964662 C103.863648,10.3963613 103.463788,10.5962913 102.963963,10.5962913 L101.664417,10.5962913 L101.664417,12.9954516 L101.764382,12.9954516 Z M101.764382,9.7965712 L103.063928,9.7965712 C103.363823,9.7965712 103.663718,9.69660619 103.863648,9.49667616 C104.063578,9.29674614 104.163543,8.9968511 104.163543,8.79692108 C104.163543,8.59699105 104.063578,8.29709602 103.863648,8.09716599 C103.663718,7.89723597 103.363823,7.79727096 103.063928,7.79727096 L101.764382,7.79727096 L101.764382,9.7965712 Z" id="Shape" stroke="#FFFFFF" stroke-width="0.5" fill="#FFFFFF"></path>
                    </g>
                </g>
            </g>
        </g>
    </g>
</svg>