<?xml version="1.0" encoding="UTF-8"?>
<svg width="32px" height="32px" viewBox="0 0 32 32" version="1.1" xmlns="http://www.w3.org/2000/svg" xmlns:xlink="http://www.w3.org/1999/xlink">
    <title>D1377E62-95AC-46A7-A6C6-1242805088D5</title>
    <g id="Web-Layouts" stroke="none" stroke-width="1" fill="none" fill-rule="evenodd">
        <g id="3.-Homepage" transform="translate(-1151.000000, -3842.000000)">
            <g id="Footer" transform="translate(0.000000, 3618.000000)">
                <g id="Group-3" transform="translate(1094.000000, 184.000000)">
                    <g id="Social-Media" transform="translate(1.000000, 40.000000)">
                        <g id="Insta" transform="translate(56.000000, 0.000000)">
                            <circle id="Oval" fill="#FFFFFF" cx="16" cy="16" r="16"></circle>
                            <path d="M13.3339796,16 C13.3339796,14.5273021 14.5275657,13.3331179 16.0003231,13.3331179 C17.4730805,13.3331179 18.6673129,14.5273021 18.6673129,16 C18.6673129,17.4726979 17.4730805,18.6668821 16.0003231,18.6668821 C14.5275657,18.6668821 13.3339796,17.4726979 13.3339796,16 M11.8922412,16 C11.8922412,18.2688207 13.7314108,20.107916 16.0003231,20.107916 C18.2692354,20.107916 20.108405,18.2688207 20.108405,16 C20.108405,13.7311793 18.2692354,11.892084 16.0003231,11.892084 C13.7314108,11.892084 11.8922412,13.7311793 11.8922412,16 M19.3109576,11.7292407 C19.3109576,12.2591276 19.7407004,12.6894992 20.2712549,12.6894992 C20.8011632,12.6894992 21.2315522,12.2591276 21.2315522,11.7292407 C21.2315522,11.1993538 20.8018094,10.7696284 20.2712549,10.7696284 C19.7407004,10.7696284 19.3109576,11.1993538 19.3109576,11.7292407 M12.7678824,22.5117932 C11.9878832,22.476252 11.5639565,22.3463651 11.2822004,22.2365105 C10.9086797,22.0911147 10.6424331,21.9179321 10.3619694,21.638126 C10.0821519,21.3583199 9.90831617,21.092084 9.76356073,20.7185784 C9.65370168,20.4368336 9.52380952,20.0129241 9.48826689,19.2329564 C9.44949311,18.3896607 9.44173836,18.1363489 9.44173836,16 C9.44173836,13.8636511 9.45013934,13.6109855 9.48826689,12.7670436 C9.52380952,11.9870759 9.65434791,11.5638126 9.76356073,11.2814216 C9.9089624,10.907916 10.0821519,10.6416801 10.3619694,10.3612278 C10.6417868,10.0814216 10.9080334,9.90759289 11.2822004,9.7628433 C11.5639565,9.65298869 11.9878832,9.52310178 12.7678824,9.48756058 C13.6112121,9.44878837 13.8645341,9.44103393 16.0003231,9.44103393 C18.1367584,9.44103393 18.3894341,9.44943457 19.2334101,9.48756058 C20.0134093,9.52310178 20.4366897,9.65363489 20.719092,9.7628433 C21.0926128,9.90759289 21.3588594,10.0814216 21.6393231,10.3612278 C21.9191405,10.6410339 22.0923301,10.907916 22.2377317,11.2814216 C22.3475908,11.5631664 22.4774829,11.9870759 22.5130256,12.7670436 C22.5517993,13.6109855 22.5595541,13.8636511 22.5595541,16 C22.5595541,18.1357027 22.5517993,18.3890145 22.5130256,19.2329564 C22.4774829,20.0129241 22.3469445,20.4368336 22.2377317,20.7185784 C22.0923301,21.092084 21.9191405,21.3583199 21.6393231,21.638126 C21.3595056,21.9179321 21.0926128,22.0911147 20.719092,22.2365105 C20.4373359,22.3463651 20.0134093,22.476252 19.2334101,22.5117932 C18.3900804,22.5505654 18.1367584,22.5583199 16.0003231,22.5583199 C13.8645341,22.5583199 13.6112121,22.5505654 12.7678824,22.5117932 M12.701967,8.04846527 C11.8502363,8.08723748 11.2686296,8.22229402 10.7600469,8.42003231 C10.2340159,8.62423263 9.78811745,8.89822294 9.34286522,9.34281099 C8.89825922,9.78739903 8.62425785,10.2332795 8.42004928,10.7599354 C8.222303,11.2684976 8.087241,11.8500808 8.04846722,12.7017771 C8.00904722,13.5547658 8,13.8274637 8,16 C8,18.1725363 8.00904722,18.4452342 8.04846722,19.2982229 C8.087241,20.1499192 8.222303,20.7315024 8.42004928,21.2400646 C8.62425785,21.7660743 8.89761299,22.212601 9.34286522,22.657189 C9.78747122,23.1017771 10.2333697,23.3751212 10.7600469,23.5799677 C11.2692758,23.777706 11.8502363,23.9127625 12.701967,23.9515347 C13.5556363,23.9903069 13.827699,24 16.0003231,24 C18.1735934,24 18.4456561,23.9909532 19.2986793,23.9515347 C20.15041,23.9127625 20.7320166,23.777706 21.2405994,23.5799677 C21.7666303,23.3751212 22.2125288,23.1017771 22.657781,22.657189 C23.102387,22.212601 23.3757422,21.7660743 23.580597,21.2400646 C23.7783432,20.7315024 23.9140515,20.1499192 23.952179,19.2982229 C23.9909528,18.444588 24,18.1725363 24,16 C24,13.8274637 23.9909528,13.5547658 23.952179,12.7017771 C23.9134052,11.8500808 23.7783432,11.2684976 23.580597,10.7599354 C23.3757422,10.2339257 23.102387,9.78804523 22.657781,9.34281099 C22.213175,8.89822294 21.7666303,8.62423263 21.2412456,8.42003231 C20.7320166,8.22229402 20.15041,8.08659128 19.2993255,8.04846527 C18.4463024,8.00969305 18.1735934,8 16.0009693,8 C13.827699,8 13.5556363,8.00904685 12.701967,8.04846527" id="Shape" fill="#212B36" fill-rule="nonzero"></path>
                        </g>
                    </g>
                </g>
            </g>
        </g>
    </g>
</svg>