<?xml version="1.0" encoding="UTF-8"?>
<svg width="127px" height="73px" viewBox="0 0 127 73" version="1.1" xmlns="http://www.w3.org/2000/svg" xmlns:xlink="http://www.w3.org/1999/xlink">
    <title>9F184E23-7BE1-4A87-922D-C9602BA5D1FE</title>
    <g id="Web-Layouts" stroke="none" stroke-width="1" fill="none" fill-rule="evenodd">
        <g id="13.-404" transform="translate(-1167.000000, -23.000000)">
            <g id="DECORATO-Logo-FE" transform="translate(1167.000000, 24.000000)">
                <path d="M0,57.4031891 L6.49936271,57.4031891 C8.05266952,57.4031891 9.42203211,57.7037358 10.6074505,58.3052392 C11.8065216,58.8928018 12.7330282,59.7267882 13.3870521,60.8063781 C14.0547288,61.8859681 14.3885263,63.143508 14.3885263,64.5785877 C14.3885263,66.0136674 14.0547288,67.2712073 13.3870521,68.3507973 C12.7330282,69.4303872 11.8065216,70.2709339 10.6074505,70.8724374 C9.42203211,71.46 8.05266952,71.7539863 6.49936271,71.7539863 L0,71.7539863 L0,57.4031891 Z M6.33585673,69.0273349 C7.76653406,69.0273349 8.90429042,68.6308428 9.74904407,67.8382688 C10.6074505,67.031754 11.0366537,65.9451936 11.0366537,64.5785877 C11.0366537,63.2119818 10.6074505,62.1319818 9.74904407,61.3394077 C8.90429042,60.5328929 7.76653406,60.1298405 6.33585673,60.1298405 L3.3109961,60.1298405 L3.3109961,69.0273349 L6.33585673,69.0273349 Z" id="Shape" fill="#FFFFFF" fill-rule="nonzero"></path>
                <polygon id="Path" fill="#FFFFFF" fill-rule="nonzero" points="29.0141362 69.0888383 29.0141362 71.7539863 17.936606 71.7539863 17.936606 57.4031891 28.748439 57.4031891 28.748439 60.0683371 21.2271639 60.0683371 21.2271639 63.1845103 27.8695943 63.1845103 27.8695943 65.7676538 21.2271639 65.7676538 21.2271639 69.0888383"></polygon>
                <path d="M39.5067237,72 C38.0486591,72 36.727122,71.6855125 35.5417037,71.0569476 C34.3697746,70.4144419 33.4431044,69.5328929 32.762102,68.4123007 C32.0941801,67.2777677 31.7606279,66.0001367 31.7606279,64.5785877 C31.7606279,63.1570387 32.0941801,61.8859681 32.762102,60.7653759 C33.4431044,59.6308428 34.3697746,58.7492938 35.5417037,58.1207289 C36.727122,57.4782232 38.0556081,57.1571754 39.5271619,57.1571754 C40.766946,57.1571754 41.8841007,57.3757175 42.8790345,57.8132118 C43.8870489,58.2507062 44.7319661,58.8792711 45.4133772,59.6993166 L43.2877995,61.667426 C42.3202529,60.5468337 41.1213453,59.9863326 39.6906679,59.9863326 C38.8048743,59.9863326 38.0147316,60.1843736 37.3198312,60.5808656 C36.6249308,60.9634169 36.0796384,61.5034169 35.6847714,62.2004556 C35.3029849,62.8974943 35.1125005,63.6900683 35.1125005,64.5785877 C35.1125005,65.4671071 35.3029849,66.2596811 35.6847714,66.9567198 C36.0796384,67.6537585 36.6249308,68.2003189 37.3198312,68.5968109 C38.0147316,68.9793622 38.8048743,69.1708428 39.6906679,69.1708428 C41.1213453,69.1708428 42.3202529,68.6037813 43.2877995,67.4692483 L45.4133772,69.4373576 C44.7319661,70.2709339 43.8870489,70.9064692 42.8790345,71.3439636 C41.8706114,71.7814579 40.7465078,72 39.5067237,72 Z" id="Path" fill="#FFFFFF" fill-rule="nonzero"></path>
                <path d="M55.3296062,72 C53.8441543,72 52.502179,71.6789522 51.3032714,71.0364465 C50.1178531,70.3939408 49.1842339,69.5123918 48.5032315,68.3917995 C47.8353096,67.2572665 47.5017574,65.9861959 47.5017574,64.5785877 C47.5017574,63.1709795 47.8353096,61.9064692 48.5032315,60.785877 C49.1842339,59.651344 50.1178531,58.7632346 51.3032714,58.1207289 C52.502179,57.4782232 53.8441543,57.1571754 55.3296062,57.1571754 C56.8146492,57.1571754 58.1500843,57.4782232 59.3355027,58.1207289 C60.520921,58.7632346 61.4541314,59.651344 62.1355426,60.785877 C62.816545,61.9064692 63.157455,63.1709795 63.157455,64.5785877 C63.157455,65.9861959 62.816545,67.2572665 62.1355426,68.3917995 C61.4541314,69.5123918 60.520921,70.3939408 59.3355027,71.0364465 C58.1500843,71.6789522 56.8146492,72 55.3296062,72 Z M55.3296062,69.1708428 C56.1741146,69.1708428 56.9372787,68.9793622 57.6186899,68.5968109 C58.2996923,68.2003189 58.8310867,67.6537585 59.2128732,66.9567198 C59.6077401,66.2596811 59.8055824,65.4671071 59.8055824,64.5785877 C59.8055824,63.6900683 59.6077401,62.8974943 59.2128732,62.2004556 C58.8310867,61.5034169 58.2996923,60.9634169 57.6186899,60.5808656 C56.9372787,60.1843736 56.1741146,59.9863326 55.3296062,59.9863326 C54.484689,59.9863326 53.7215249,60.1843736 53.0405224,60.5808656 C52.3591113,60.9634169 51.8207678,61.5034169 51.4259009,62.2004556 C51.0441144,62.8974943 50.85363,63.6900683 50.85363,64.5785877 C50.85363,65.4671071 51.0441144,66.2596811 51.4259009,66.9567198 C51.8207678,67.6537585 52.3591113,68.2003189 53.0405224,68.5968109 C53.7215249,68.9793622 54.484689,69.1708428 55.3296062,69.1708428 Z" id="Shape" fill="#FFFFFF" fill-rule="nonzero"></path>
                <path d="M75.8124091,71.7539863 L73.0532457,67.7562642 L72.8897397,67.7562642 L70.0079468,67.7562642 L70.0079468,71.7539863 L66.6969507,71.7539863 L66.6969507,57.4031891 L72.8897397,57.4031891 C74.156911,57.4031891 75.2536274,57.6151708 76.1802975,58.0387244 C77.1204569,58.4622779 77.8423358,59.0637813 78.3467518,59.8428246 C78.850759,60.6218679 79.1029669,61.5444191 79.1029669,62.6104784 C79.1029669,63.6765376 78.8438099,64.5990888 78.3263135,65.3781321 C77.8218976,66.1436446 77.1000187,66.7312073 76.1598593,67.1412301 L79.3686641,71.7539863 L75.8124091,71.7539863 Z M75.7510943,62.6104784 C75.7510943,61.8039636 75.4919374,61.1889294 74.9744409,60.7653759 C74.4565357,60.3278815 73.7003206,60.1093394 72.7057955,60.1093394 L70.0079468,60.1093394 L70.0079468,65.1116173 L72.7057955,65.1116173 C73.7003206,65.1116173 74.4565357,64.8930752 74.9744409,64.4555809 C75.4919374,64.0180866 75.7510943,63.4030524 75.7510943,62.6104784 Z" id="Shape" fill="#FFFFFF" fill-rule="nonzero"></path>
                <path d="M92.1993872,68.6788155 L85.5569567,68.6788155 L84.2897854,71.7539863 L80.8970363,71.7539863 L87.2737695,57.4031891 L90.5438891,57.4031891 L96.9410606,71.7539863 L93.4665585,71.7539863 L92.1993872,68.6788155 Z M91.1570366,66.1571754 L88.8883911,60.6628702 L86.6197456,66.1571754 L91.1570366,66.1571754 Z" id="Shape" fill="#FFFFFF" fill-rule="nonzero"></path>
                <polygon id="Path" fill="#FFFFFF" fill-rule="nonzero" points="101.721158 60.1093394 97.1429905 60.1093394 97.1429905 57.4031891 109.610321 57.4031891 109.610321 60.1093394 105.032154 60.1093394 105.032154 71.7539863 101.721158 71.7539863"></polygon>
                <path d="M119.172151,72 C117.687108,72 116.344724,71.6789522 115.145816,71.0364465 C113.960398,70.3939408 113.026779,69.5123918 112.345777,68.3917995 C111.677855,67.2572665 111.344302,65.9861959 111.344302,64.5785877 C111.344302,63.1709795 111.677855,61.9064692 112.345777,60.785877 C113.026779,59.651344 113.960398,58.7632346 115.145816,58.1207289 C116.344724,57.4782232 117.687108,57.1571754 119.172151,57.1571754 C120.657194,57.1571754 121.992629,57.4782232 123.178048,58.1207289 C124.363466,58.7632346 125.296676,59.651344 125.978088,60.785877 C126.65909,61.9064692 127,63.1709795 127,64.5785877 C127,65.9861959 126.65909,67.2572665 125.978088,68.3917995 C125.296676,69.5123918 124.363466,70.3939408 123.178048,71.0364465 C121.992629,71.6789522 120.657194,72 119.172151,72 Z M119.172151,69.1708428 C120.017068,69.1708428 120.779824,68.9793622 121.461235,68.5968109 C122.142646,68.2003189 122.674041,67.6537585 123.055418,66.9567198 C123.450285,66.2596811 123.648127,65.4671071 123.648127,64.5785877 C123.648127,63.6900683 123.450285,62.8974943 123.055418,62.2004556 C122.674041,61.5034169 122.142646,60.9634169 121.461235,60.5808656 C120.779824,60.1843736 120.017068,59.9863326 119.172151,59.9863326 C118.327234,59.9863326 117.56407,60.1843736 116.883067,60.5808656 C116.201656,60.9634169 115.663313,61.5034169 115.268446,62.2004556 C114.886659,62.8974943 114.696175,63.6900683 114.696175,64.5785877 C114.696175,65.4671071 114.886659,66.2596811 115.268446,66.9567198 C115.663313,67.6537585 116.201656,68.2003189 116.883067,68.5968109 C117.56407,68.9793622 118.327234,69.1708428 119.172151,69.1708428 Z" id="Shape" fill="#FFFFFF" fill-rule="nonzero"></path>
                <polygon id="Path" stroke="#FFFFFF" stroke-width="0.818181818" points="38.3625906 43.2557631 38.3625906 14.5631891 63.2073243 0 88.0908907 14.5631891 88.0908907 43.2557631 71.0924002 33.4143964 71.0924002 24.4160364 63.2073243 19.7684282 55.3488181 24.4160364 55.3488181 33.4143964"></polygon>
                <polyline id="Path" stroke="#FFFFFF" stroke-width="0.818181818" points="41.8154281 41.2273804 41.8154281 16.5304784 63.2073243 4.11867882 84.55303 16.5304784 84.55303 41.2273804"></polyline>
                <polyline id="Path" stroke="#FFFFFF" stroke-width="0.818181818" points="45.1983669 39.0739408 45.1983669 18.3349886 63.2036454 7.91220957 81.1696825 18.3349886 81.1696825 39.0739408"></polyline>
                <polyline id="Path" stroke="#FFFFFF" stroke-width="0.818181818" points="48.4684865 37.2288383 48.4684865 20.3100683 63.1999665 11.807426 77.8995629 20.3100683 77.8995629 37.2288383"></polyline>
                <polyline id="Path" stroke="#FFFFFF" stroke-width="0.818181818" points="51.7386061 35.5887472 51.7386061 22.4905695 63.1966964 15.9076538 74.6294433 22.4905695 74.6294433 35.5887472"></polyline>
            </g>
        </g>
    </g>
</svg>