<?xml version="1.0" encoding="UTF-8"?>
<svg width="24px" height="24px" viewBox="0 0 24 24" version="1.1" xmlns="http://www.w3.org/2000/svg" xmlns:xlink="http://www.w3.org/1999/xlink">
    <title>5686640E-0139-4B23-B9DC-65C971494473</title>
    <g id="Web-Layouts" stroke="none" stroke-width="1" fill="none" fill-rule="evenodd">
        <g id="5.2-Add-Review-" transform="translate(-71.000000, -1528.000000)">
            <g id="Reviews-&amp;-Ratings" transform="translate(71.000000, 1166.000000)">
                <g id="Add-Reviews" transform="translate(0.000000, 128.000000)">
                    <g id="Attach-Image" transform="translate(0.000000, 138.000000)">
                        <g id="paperclip" transform="translate(0.000000, 96.000000)">
                            <rect id="Rectangle" fill="#D8D8D8" opacity="0" x="0" y="0" width="24" height="24"></rect>
                            <path d="M18,11.5631955 L11.853898,17.8056263 C10.285974,19.3981246 7.74386695,19.3981246 6.17594298,17.8056263 C4.60801901,16.213128 4.60801901,13.6311782 6.17594298,12.0386799 L12.322045,5.79624911 C13.3673277,4.73458362 15.0620657,4.73458363 16.1073483,5.79624914 C17.1526309,6.85791464 17.152631,8.57921452 16.1073483,9.64088004 L9.95455849,15.8833108 C9.43191716,16.4141436 8.58454815,16.4141436 8.06190683,15.8833108 C7.5392655,15.3524781 7.5392655,14.4918281 8.06190683,13.9609954 L13.7398618,8.2008416" id="Path" stroke="#212B36" stroke-width="1.35852683" stroke-linecap="round" stroke-linejoin="round"></path>
                        </g>
                    </g>
                </g>
            </g>
        </g>
    </g>
</svg>