<?xml version="1.0" encoding="UTF-8"?>
<svg width="24px" height="24px" viewBox="0 0 24 24" version="1.1" xmlns="http://www.w3.org/2000/svg" xmlns:xlink="http://www.w3.org/1999/xlink">
    <title>phone</title>
    <g id="Void" stroke="none" stroke-width="1" fill="none" fill-rule="evenodd">
        <g id="phone">
            <rect id="Rectangle" x="0" y="0" width="24" height="24"></rect>
            <g transform="translate(3.000000, 3.000000)" id="Path" stroke="#11B0B7" stroke-linecap="round" stroke-linejoin="round" stroke-width="2">
                <path d="M18.0000149,16.128 C18.0020572,16.6348306 17.7903432,17.1190425 17.4168701,17.4616784 C17.043397,17.8043143 16.5427775,17.9736193 16.038,17.928 C13.2685505,17.6270767 10.6082992,16.6807301 8.271,15.165 C6.09644531,13.7831975 4.25280253,11.9395547 2.871,9.765 C1.34998025,7.41708358 0.403418702,4.7438951 0.108,1.962 C0.0625258893,1.4587851 0.230644807,0.959627181 0.571289202,0.58645895 C0.911933596,0.213290719 1.39373482,0.000475821216 1.899,-0.000175231955 L4.599,-0.000175231955 C5.50247765,-0.00889214144 6.27255076,0.653370734 6.399,1.548 C6.51296071,2.41205981 6.72430451,3.26045419 7.029,4.077 C7.2762615,4.73478753 7.11811356,5.47632564 6.624,5.976 L5.481,7.119 C6.76219992,9.37219125 8.62780875,11.2378001 10.881,12.519 L12.024,11.376 C12.5236744,10.8818864 13.2652125,10.7237385 13.923,10.971 C14.7395458,11.2756955 15.5879402,11.4870393 16.452,11.601 C17.0553376,11.6861162 17.5713426,13.1951162 18.0000149,16.128 Z"></path>
            </g>
        </g>
    </g>
</svg>