<svg width="38" height="24" viewBox="0 0 38 24" fill="none" xmlns="http://www.w3.org/2000/svg">
<path opacity="0.07" d="M35 0H3C1.3 0 0 1.3 0 3V21C0 22.7 1.4 24 3 24H35C36.7 24 38 22.7 38 21V3C38 1.3 36.6 0 35 0Z" fill="black"/>
<path d="M35 1C36.1 1 37 1.9 37 3V21C37 22.1 36.1 23 35 23H3C1.9 23 1 22.1 1 21V3C1 1.9 1.9 1 3 1H35Z" fill="#006FCF"/>
<path fill-rule="evenodd" clip-rule="evenodd" d="M14.978 8.006H10.983L10.716 8H7.286L4 15.68H7.911L8.406 14.49H9.536L10.03 15.68H26.94L28.065 14.49L29.143 15.68H33.977L30.494 11.852L34.013 8H29.25L28.135 9.19L27.057 8H16.687L15.865 9.941L14.978 8.006ZM25.046 10.346H22.069V11.173H24.998V12.412H22.075V13.334H25.052V14.073L27.129 11.828L25.052 9.488L25.046 10.346ZM8.971 10.268L9.745 12.144H8.203L8.971 10.268ZM19.646 9.084H17.407L15.907 12.62L14.282 9.084H12.06V13.894L10 9.084H8.007L5.625 14.596H7.18L7.674 13.406H10.27L10.764 14.596H13.484V10.661L15.235 14.602H16.425L18.165 10.673V14.603H19.623L19.647 9.083L19.646 9.084ZM31.517 9.084L28.986 11.852H28.987L31.499 14.602H29.624L28.076 12.864L26.462 14.602H20.652V9.084H26.546L28.094 10.81L29.695 9.084H31.517Z" fill="white"/>
</svg>
