<svg width="24" height="24" viewBox="0 0 24 24" fill="none" xmlns="http://www.w3.org/2000/svg">
<path d="M9.88889 16.4444H7.55556L4 20V5.77778C4 5.30628 4.1873 4.8541 4.5207 4.5207C4.8541 4.1873 5.30628 4 5.77778 4H18.2222C18.6937 4 19.1459 4.1873 19.4793 4.5207C19.8127 4.8541 20 5.30628 20 5.77778V10.2222" stroke="#4C65FF" stroke-width="1.5" stroke-linecap="round" stroke-linejoin="round"/>
<path d="M15.7904 12V11.25C15.3762 11.25 15.0404 11.5858 15.0404 12H15.7904ZM17.6728 12H18.4228C18.4228 11.5858 18.087 11.25 17.6728 11.25V12ZM15.7904 13.1018L16.0404 13.809C16.3401 13.703 16.5404 13.4197 16.5404 13.1018H15.7904ZM14.8964 13.6189L14.5214 14.2684C14.7968 14.4274 15.1425 14.3955 15.3841 14.1887L14.8964 13.6189ZM13.9412 13.0674L14.3162 12.4179C13.9575 12.2108 13.4988 12.3337 13.2917 12.6924L13.9412 13.0674ZM13 14.6976L12.3505 14.3226C12.251 14.4949 12.2241 14.6996 12.2756 14.8917C12.327 15.0839 12.4527 15.2477 12.625 15.3471L13 14.6976ZM13.9551 15.249L14.6926 15.3851C14.7502 15.0729 14.605 14.7582 14.3301 14.5995L13.9551 15.249ZM13.9551 16.2807L14.3301 16.9302C14.6051 16.7715 14.7503 16.4567 14.6927 16.1445L13.9551 16.2807ZM13 16.8322L12.625 16.1826C12.4527 16.2821 12.327 16.4459 12.2756 16.638C12.2241 16.8302 12.251 17.0349 12.3505 17.2072L13 16.8322ZM13.9412 18.4623L13.2917 18.8373C13.3911 19.0096 13.5549 19.1353 13.7471 19.1868C13.9392 19.2382 14.1439 19.2113 14.3162 19.1118L13.9412 18.4623ZM14.8966 17.9107L15.3843 17.3409C15.1427 17.1341 14.797 17.1022 14.5216 17.2612L14.8966 17.9107ZM15.7904 18.4276H16.5404C16.5404 18.1097 16.3401 17.8264 16.0404 17.7204L15.7904 18.4276ZM15.7904 19.5294H15.0404C15.0404 19.9436 15.3762 20.2794 15.7904 20.2794V19.5294ZM17.6728 19.5294V20.2794C18.087 20.2794 18.4228 19.9436 18.4228 19.5294H17.6728ZM17.6728 18.4276L17.4229 17.7204C17.1232 17.8264 16.9228 18.1097 16.9228 18.4276H17.6728ZM18.5661 17.9112L18.9411 17.2617C18.6658 17.1027 18.3201 17.1346 18.0785 17.3413L18.5661 17.9112ZM19.5207 18.4623L19.1457 19.1118C19.3179 19.2113 19.5226 19.2382 19.7148 19.1868C19.9069 19.1353 20.0707 19.0096 20.1702 18.8373L19.5207 18.4623ZM20.4618 16.8322L21.1114 17.2072C21.3185 16.8484 21.1956 16.3897 20.8368 16.1826L20.4618 16.8322ZM19.508 16.2814L18.7705 16.145C18.7127 16.4573 18.8579 16.7722 19.133 16.931L19.508 16.2814ZM19.508 15.2483L19.133 14.5988C18.858 14.7576 18.7128 15.0723 18.7705 15.3846L19.508 15.2483ZM20.4618 14.6976L20.8368 15.3471C21.1956 15.14 21.3185 14.6813 21.1114 14.3226L20.4618 14.6976ZM19.5207 13.0674L20.1702 12.6924C19.9631 12.3337 19.5044 12.2108 19.1457 12.4179L19.5207 13.0674ZM18.5663 13.6184L18.0787 14.1883C18.3203 14.395 18.666 14.4269 18.9413 14.268L18.5663 13.6184ZM17.6728 13.1018H16.9228C16.9228 13.4197 17.1232 13.703 17.4229 13.809L17.6728 13.1018ZM15.7904 12.75H17.6728V11.25H15.7904V12.75ZM16.5404 13.1018V12H15.0404V13.1018H16.5404ZM15.3841 14.1887C15.5763 14.0241 15.7983 13.8945 16.0404 13.809L15.5405 12.3947C15.1213 12.5429 14.7386 12.7667 14.4086 13.0492L15.3841 14.1887ZM13.5662 13.717L14.5214 14.2684L15.2714 12.9694L14.3162 12.4179L13.5662 13.717ZM13.6495 15.0726L14.5907 13.4424L13.2917 12.6924L12.3505 14.3226L13.6495 15.0726ZM14.3301 14.5995L13.375 14.0481L12.625 15.3471L13.5801 15.8985L14.3301 14.5995ZM14.6581 15.7647C14.6581 15.6345 14.67 15.5077 14.6926 15.3851L13.2175 15.1129C13.1784 15.3248 13.1581 15.5427 13.1581 15.7647H14.6581ZM14.6927 16.1445C14.67 16.0219 14.6581 15.895 14.6581 15.7647H13.1581C13.1581 15.9868 13.1784 16.2049 13.2176 16.4169L14.6927 16.1445ZM13.375 17.4817L14.3301 16.9302L13.5801 15.6312L12.625 16.1826L13.375 17.4817ZM14.5907 18.0873L13.6495 16.4572L12.3505 17.2072L13.2917 18.8373L14.5907 18.0873ZM14.5216 17.2612L13.5662 17.8128L14.3162 19.1118L15.2716 18.5602L14.5216 17.2612ZM16.0404 17.7204C15.7984 17.6349 15.5764 17.5054 15.3843 17.3409L14.4089 18.4805C14.7388 18.7629 15.1214 18.9866 15.5405 19.1347L16.0404 17.7204ZM16.5404 19.5294V18.4276H15.0404V19.5294H16.5404ZM17.6728 18.7794H15.7904V20.2794H17.6728V18.7794ZM16.9228 18.4276V19.5294H18.4228V18.4276H16.9228ZM18.0785 17.3413C17.8865 17.5056 17.6647 17.635 17.4229 17.7204L17.9227 19.1347C18.3415 18.9867 18.7238 18.7632 19.0536 18.4811L18.0785 17.3413ZM19.8957 17.8128L18.9411 17.2617L18.1911 18.5607L19.1457 19.1118L19.8957 17.8128ZM19.8123 16.4572L18.8711 18.0873L20.1702 18.8373L21.1114 17.2072L19.8123 16.4572ZM19.133 16.931L20.0868 17.4817L20.8368 16.1826L19.883 15.6319L19.133 16.931ZM18.8051 15.7647C18.8051 15.8952 18.7932 16.0223 18.7705 16.145L20.2455 16.4178C20.2847 16.2055 20.3051 15.9872 20.3051 15.7647H18.8051ZM18.7705 15.3846C18.7932 15.5073 18.8051 15.6343 18.8051 15.7647H20.3051C20.3051 15.5424 20.2848 15.3242 20.2455 15.112L18.7705 15.3846ZM20.0868 14.0481L19.133 14.5988L19.883 15.8978L20.8368 15.3471L20.0868 14.0481ZM18.8711 13.4424L19.8123 15.0726L21.1114 14.3226L20.1702 12.6924L18.8711 13.4424ZM18.9413 14.268L19.8957 13.717L19.1457 12.4179L18.1913 12.9689L18.9413 14.268ZM17.4229 13.809C17.6647 13.8945 17.8866 14.0239 18.0787 14.1883L19.0539 13.0486C18.7241 12.7664 18.3416 12.5428 17.9227 12.3947L17.4229 13.809ZM16.9228 12V13.1018H18.4228V12H16.9228Z" fill="#4C65FF"/>
</svg>
