<svg width="38" height="24" viewBox="0 0 38 24" fill="none" xmlns="http://www.w3.org/2000/svg">
<path opacity="0.07" d="M35.4883 24H2.51169C1.12455 24 0 22.9039 0 21.5518V2.4482C0 1.09601 1.12455 0 2.51169 0H35.4883C36.8756 0 38 1.09601 38 2.4482V21.5518C38 22.9039 36.8756 24 35.4883 24Z" fill="black"/>
<path fill-rule="evenodd" clip-rule="evenodd" d="M34.6205 23H3.37949C2.06537 23 1 21.9952 1 20.7558V3.24418C1 2.00467 2.06537 1 3.37949 1H34.6205C35.9348 1 37 2.00467 37 3.24418V20.7558C37 21.9952 35.9348 23 34.6205 23Z" fill="white"/>
<path fill-rule="evenodd" clip-rule="evenodd" d="M3.88916 9.53063V14.3876C3.95553 14.3876 4.02079 14.388 4.08528 14.3883C4.22517 14.3891 4.36145 14.3898 4.49768 14.3869C4.62456 14.3842 4.75175 14.3839 4.87896 14.3837C5.18592 14.3831 5.49296 14.3825 5.7959 14.3468C7.49976 14.1451 8.4402 12.2412 7.57841 10.7183C7.14078 9.94485 6.41946 9.59561 5.55922 9.53688C5.18567 9.51139 4.81019 9.51411 4.43474 9.51682C4.27062 9.51801 4.1065 9.51919 3.94256 9.51802C3.93098 9.51794 3.91946 9.52156 3.90746 9.52533C3.9015 9.52721 3.89542 9.52912 3.88916 9.53063ZM5.01337 13.5548C4.95835 13.554 4.90261 13.5531 4.84584 13.5531V10.3508C5.43885 10.337 6.01513 10.3471 6.46708 10.8126C7.09328 11.4575 7.0554 12.5853 6.38519 13.1793C6.09331 13.4379 5.73951 13.5269 5.36429 13.5511C5.24884 13.5586 5.13284 13.5568 5.01337 13.5548Z" fill="#303030"/>
<path fill-rule="evenodd" clip-rule="evenodd" d="M30.8887 9.52258C30.8839 9.52398 30.8785 9.52556 30.8721 9.52707L30.8721 14.3799H31.8241V12.4441C31.9212 12.4053 31.959 12.4571 31.9995 12.5177C32.1659 12.7664 32.3326 13.0147 32.4994 13.263C32.7314 13.6085 32.9634 13.9539 33.1942 14.3002C33.2362 14.3633 33.2793 14.3929 33.3578 14.3893C33.4584 14.3848 33.5593 14.3858 33.6603 14.3867C33.7027 14.3871 33.7451 14.3875 33.7874 14.3875H34.4307C34.0658 13.9001 33.7087 13.423 33.3521 12.9465C33.2015 12.7452 33.0509 12.544 32.8998 12.3422C32.9154 12.3379 32.9295 12.3341 32.9425 12.3306C32.9682 12.3236 32.9898 12.3178 33.0114 12.3117C33.2352 12.2473 33.4404 12.1498 33.6113 11.987C33.8884 11.7229 33.9818 11.3875 34.005 11.0192C34.0457 10.3736 33.7046 9.84666 33.0908 9.64609C32.9099 9.58689 32.717 9.54161 32.5283 9.53513C32.1365 9.52175 31.7442 9.52078 31.352 9.51981C31.2051 9.51945 31.0583 9.51908 30.9115 9.51807C30.9046 9.51799 30.8977 9.51999 30.8887 9.52258ZM31.9144 11.7605C31.8847 11.7603 31.8549 11.7601 31.825 11.76L31.825 10.2946C31.8405 10.2941 31.8559 10.2935 31.8713 10.293C32.1492 10.2829 32.4234 10.2729 32.6792 10.4033C32.9191 10.5255 33.0183 10.7343 33.0213 10.9955C33.0244 11.2667 32.9365 11.4925 32.6882 11.63C32.4455 11.7642 32.1823 11.7624 31.9144 11.7605Z" fill="#303030"/>
<path d="M27.5518 9.52246C28.4471 9.52246 29.3351 9.52246 30.2321 9.52246C30.2321 9.79652 30.2321 10.0652 30.2321 10.3438C29.6595 10.3438 29.0879 10.3438 28.5071 10.3438C28.5071 10.7047 28.5071 11.0559 28.5071 11.4201C29.0588 11.4201 29.6073 11.4201 30.1642 11.4201C30.1642 11.7013 30.1642 11.9693 30.1642 12.2486C29.6109 12.2486 29.0622 12.2486 28.506 12.2486C28.506 12.6871 28.506 13.1147 28.506 13.5561C29.0823 13.5561 29.6566 13.5561 30.2356 13.5561C30.2356 13.836 30.2356 14.102 30.2356 14.3778C29.3408 14.3778 28.4504 14.3778 27.5518 14.3778C27.5518 12.7632 27.5518 11.1499 27.5518 9.52246Z" fill="#303030"/>
<path d="M12.8429 9.98521C12.6749 10.2043 12.513 10.4153 12.3471 10.6313C12.1651 10.4375 11.9727 10.2813 11.7113 10.248C11.4498 10.2148 11.2049 10.2575 11.0106 10.4518C10.8008 10.6613 10.8252 10.974 11.0761 11.1294C11.2442 11.2334 11.4346 11.3018 11.6149 11.3863C11.8903 11.5156 12.1752 11.6284 12.4392 11.7783C12.8207 11.9948 12.9927 12.3454 13.01 12.7803C13.033 13.3556 12.8586 13.8426 12.3808 14.1906C12.0204 14.4531 11.606 14.5265 11.1685 14.5008C10.5026 14.4619 10.0136 14.1316 9.65967 13.6021C9.85582 13.3925 10.0476 13.1879 10.232 12.9909C10.3513 13.1283 10.4459 13.2668 10.5686 13.3727C10.8424 13.6092 11.1681 13.6864 11.5199 13.5992C11.877 13.5107 12.0916 13.1645 12.0166 12.8252C11.9775 12.6486 11.8748 12.514 11.7169 12.435C11.5389 12.3461 11.351 12.2767 11.1674 12.1991C10.9698 12.1158 10.7674 12.0421 10.5757 11.947C9.96167 11.6422 9.77356 11.1103 9.94844 10.4469C10.0948 9.89215 10.6022 9.50375 11.2296 9.44827C11.8207 9.39579 12.3467 9.56585 12.8044 9.94404C12.8158 9.95326 12.8247 9.96563 12.8429 9.98521Z" fill="#303030"/>
<path d="M22.4419 9.51723C22.7751 9.51723 23.0986 9.51447 23.4219 9.52155C23.4521 9.52215 23.4929 9.57932 23.5086 9.61835C23.8447 10.4565 24.1776 11.2962 24.5116 12.1355C24.5936 12.3417 24.6765 12.5475 24.7668 12.7732C24.7899 12.722 24.8069 12.6871 24.8215 12.6514C25.2293 11.6389 25.6375 10.6267 26.043 9.61354C26.0703 9.54557 26.1006 9.51314 26.1806 9.5147C26.4857 9.51998 26.791 9.51687 27.114 9.51687C27.0956 9.56514 27.0827 9.60249 27.0674 9.63865C26.3961 11.2304 25.7241 12.8216 25.0553 14.4142C25.0235 14.49 24.9848 14.5159 24.9057 14.5114C24.7967 14.505 24.6865 14.5156 24.5779 14.5067C24.5395 14.5036 24.4839 14.4726 24.4705 14.44C23.7942 12.8179 23.1219 11.194 22.4494 9.57019C22.4453 9.56047 22.4461 9.54858 22.4419 9.51723Z" fill="#303030"/>
<path d="M17.0757 10.8108C16.9226 10.6962 16.7919 10.581 16.6451 10.4917C16.0786 10.1473 15.3509 10.2279 14.8401 10.682C14.0774 11.36 14.1129 12.6834 14.9098 13.2964C15.5074 13.756 16.3407 13.7324 16.9111 13.2397C16.959 13.1982 17.0066 13.1563 17.076 13.096C17.076 13.1687 17.076 13.219 17.076 13.2695C17.0759 13.5558 17.0744 13.842 17.0773 14.1284C17.0779 14.1892 17.059 14.2212 17.0023 14.2484C15.8385 14.803 14.4122 14.4247 13.7195 13.3556C12.7634 11.8799 13.52 9.86252 15.3547 9.46704C15.922 9.34502 16.4725 9.4058 16.9938 9.67108C17.0276 9.68826 17.0718 9.72981 17.0723 9.7608C17.0778 10.1063 17.0757 10.4522 17.0757 10.8108Z" fill="#303030"/>
<path d="M22.424 11.9569C22.4458 13.2523 21.3781 14.3098 20.0248 14.3078C18.6625 14.3058 17.6164 13.293 17.6241 11.9294C17.6316 10.6418 18.6914 9.62688 20.0258 9.6187C21.3851 9.61041 22.4457 10.677 22.424 11.9569Z" fill="#FF6F00"/>
<path d="M9.2825 14.3816C8.96609 14.3816 8.65859 14.3816 8.34326 14.3816C8.34326 12.7622 8.34326 11.1489 8.34326 9.52637C8.65534 9.52637 8.96514 9.52637 9.2825 9.52637C9.2825 11.1425 9.2825 12.7559 9.2825 14.3816Z" fill="#303030"/>
</svg>
