<svg width="40" height="40" viewBox="0 0 40 40" fill="none" xmlns="http://www.w3.org/2000/svg">
<path d="M30.6665 13.667H9.33317C7.86041 13.667 6.6665 14.8609 6.6665 16.3337V29.667C6.6665 31.1398 7.86041 32.3337 9.33317 32.3337H30.6665C32.1393 32.3337 33.3332 31.1398 33.3332 29.667V16.3337C33.3332 14.8609 32.1393 13.667 30.6665 13.667Z" stroke="#4C65FF" stroke-width="1.5" stroke-linecap="round" stroke-linejoin="round"/>
<path d="M25.3332 32.3335V11.0002C25.3332 10.2929 25.0522 9.61464 24.5521 9.11454C24.052 8.61445 23.3737 8.3335 22.6665 8.3335H17.3332C16.6259 8.3335 15.9477 8.61445 15.4476 9.11454C14.9475 9.61464 14.6665 10.2929 14.6665 11.0002V32.3335" stroke="#4C65FF" stroke-width="1.5" stroke-linecap="round" stroke-linejoin="round"/>
</svg>
