<svg width="16" height="16" viewBox="0 0 16 16" fill="none" xmlns="http://www.w3.org/2000/svg">
<path d="M6.85455 3.76715C7.23 3.67927 7.6144 3.63534 8 3.63624C11.8182 3.63624 14 7.99988 14 7.99988C13.6689 8.6193 13.274 9.20246 12.8218 9.73988M9.15636 9.15624C9.00656 9.31702 8.8259 9.44597 8.62517 9.5354C8.42445 9.62484 8.20776 9.67293 7.98805 9.67681C7.76833 9.68068 7.55009 9.64027 7.34633 9.55797C7.14258 9.47567 6.95748 9.35317 6.8021 9.19778C6.64671 9.0424 6.52421 8.8573 6.44191 8.65355C6.35961 8.44979 6.3192 8.23155 6.32307 8.01183C6.32695 7.79212 6.37504 7.57543 6.46448 7.37471C6.55392 7.17398 6.68287 6.99333 6.84364 6.84352M11.24 11.2399C10.3076 11.9506 9.17224 12.3444 8 12.3635C4.18182 12.3635 2 7.99988 2 7.99988C2.67849 6.73546 3.61953 5.63076 4.76 4.75988L11.24 11.2399Z" stroke="#637381" stroke-linecap="round" stroke-linejoin="round"/>
<path d="M2 2L14 14" stroke="#637381" stroke-linecap="round" stroke-linejoin="round"/>
</svg>
