<svg width="40" height="40" viewBox="0 0 40 40" fill="none" xmlns="http://www.w3.org/2000/svg">
<path d="M0.5 4C0.5 2.067 2.067 0.5 4 0.5H36C37.933 0.5 39.5 2.067 39.5 4V36C39.5 37.933 37.933 39.5 36 39.5H4C2.067 39.5 0.5 37.933 0.5 36V4Z" fill="white" stroke="#637381"/>
<path d="M27 29L20 24L13 29V13C13 12.4696 13.2107 11.9609 13.5858 11.5858C13.9609 11.2107 14.4696 11 15 11H25C25.5304 11 26.0391 11.2107 26.4142 11.5858C26.7893 11.9609 27 12.4696 27 13V29Z" fill="#4C65FF" stroke="#4C65FF" stroke-width="1.5" stroke-linecap="round" stroke-linejoin="round"/>
</svg>
