<svg width="40" height="40" viewBox="0 0 40 40" fill="none" xmlns="http://www.w3.org/2000/svg">
<path d="M19.0019 6V34H21.0019V6H19.0019Z" fill="#4C65FF"/>
<path d="M12 15.5454H11H12ZM16.6667 20V21V20ZM23.3333 20V19V20ZM23.3333 28.9091V29.9091V28.9091ZM26.6667 10.0909H16.6667V12.0909H26.6667V10.0909ZM16.6667 10.0909C15.1784 10.0909 13.7423 10.6548 12.6764 11.6722L14.0573 13.1189C14.7418 12.4656 15.6796 12.0909 16.6667 12.0909V10.0909ZM12.6764 11.6722C11.6089 12.6912 11 14.0834 11 15.5454H13C13 14.6446 13.3744 13.7708 14.0573 13.1189L12.6764 11.6722ZM11 15.5454C11 17.0075 11.6089 18.3997 12.6764 19.4186L14.0573 17.9719C13.3744 17.3201 13 16.4462 13 15.5454H11ZM12.6764 19.4186C13.7423 20.4361 15.1784 21 16.6667 21V19C15.6796 19 14.7418 18.6252 14.0573 17.9719L12.6764 19.4186ZM16.6667 21H23.3333V19H16.6667V21ZM23.3333 21C24.3204 21 25.2582 21.3747 25.9427 22.028L27.3236 20.5813C26.2577 19.5639 24.8216 19 23.3333 19V21ZM25.9427 22.028C26.6256 22.6799 27 23.5537 27 24.4545H29C29 22.9925 28.3911 21.6003 27.3236 20.5813L25.9427 22.028ZM27 24.4545C27 25.3553 26.6256 26.2292 25.9427 26.881L27.3236 28.3277C28.3911 27.3088 29 25.9166 29 24.4545H27ZM25.9427 26.881C25.2582 27.5343 24.3204 27.9091 23.3333 27.9091V29.9091C24.8216 29.9091 26.2577 29.3452 27.3236 28.3277L25.9427 26.881ZM23.3333 27.9091H12V29.9091H23.3333V27.9091Z" fill="#4C65FF"/>
</svg>
