<svg width="40" height="40" viewBox="0 0 40 40" fill="none" xmlns="http://www.w3.org/2000/svg">
<path d="M6 21H34" stroke="#4C65FF" stroke-width="2"/>
<path d="M30.5459 20.5426C30.5459 17.7552 29.387 15.082 27.3241 13.111C26.2297 12.0654 24.9284 11.2628 23.5122 10.7397M8.5459 20.5426C8.5459 17.7552 9.70482 15.082 11.7677 13.111C13.0104 11.9237 14.5198 11.0498 16.1613 10.5426" stroke="#4C65FF" stroke-width="2"/>
<path d="M16 14.2963V6H23.2593V14.2963" stroke="#4C65FF" stroke-width="2"/>
<path d="M9 24L9.52381 26.4887L13.1905 25.991L14.1696 27.9931L13.2781 31.9639L17.381 32.9593L18.4286 29.9729H21.5714L22.619 33L26.8095 31.9639L25.7619 27.9931L26.8095 25.991L30.4762 26.4887L31 24" stroke="#4C65FF" stroke-width="2"/>
</svg>
