<svg width="40" height="40" viewBox="0 0 40 40" fill="none" xmlns="http://www.w3.org/2000/svg">
<path d="M19.5333 12.2666L10.2 18.7999L6 19.7332L8.79999 28.1332L12.5333 25.7999L23.7333 26.2666" stroke="#4C65FF" stroke-width="2"/>
<path d="M12.5318 25.8002L10.1985 18.8002" stroke="#4C65FF" stroke-width="2"/>
<rect x="18.1331" y="10.6351" width="4.66665" height="18.7394" transform="rotate(-20.5101 18.1331 10.6351)" stroke="#4C65FF" stroke-width="2"/>
<path d="M20.934 26.7333C20.934 27.5997 20.5898 28.4306 19.9772 29.0432C19.3646 29.6558 18.5337 30 17.6674 30C16.801 30 15.9701 29.6558 15.3575 29.0432C14.7449 28.4306 14.4007 27.5997 14.4007 26.7333" stroke="#4C65FF" stroke-width="2"/>
<path d="M27.4659 13.6666L29.7993 9.46661M29.3326 16.9333L33.9993 15.0666M29.3326 20.6666L33.9993 22.9999" stroke="#4C65FF" stroke-width="2"/>
</svg>
