<svg width="40" height="40" viewBox="0 0 40 40" fill="none" xmlns="http://www.w3.org/2000/svg">
<path d="M6.49854 20.56V17.76H10.2676L11.3444 15.52L8.65226 12.16L12.4213 8.24001L15.1134 11.6L17.2672 10.48V6H22.6515V10.2129L24.8052 11.6L27.4974 8.80001L31.2664 12.72L28.5742 15.52L29.3941 17.76H33.4201V20.56" stroke="#4C65FF" stroke-width="2"/>
<path d="M25.3453 20.5602C25.3453 19.8248 25.206 19.0966 24.9354 18.4172C24.6648 17.7378 24.2682 17.1204 23.7683 16.6004C23.2683 16.0804 22.6747 15.6679 22.0215 15.3865C21.3682 15.1051 20.6681 14.9602 19.961 14.9602C19.2539 14.9602 18.5537 15.1051 17.9005 15.3865C17.2472 15.6679 16.6537 16.0804 16.1537 16.6004C15.6537 17.1204 15.2571 17.7378 14.9865 18.4172C14.7159 19.0966 14.5767 19.8248 14.5767 20.5602" stroke="#4C65FF" stroke-width="2"/>
<path d="M23.1916 27.2798V25.0398H16.7305V27.2798M23.1916 31.7598V33.9998H16.7305V31.7598" stroke="#4C65FF" stroke-width="2"/>
<path d="M27.5 27.2798V25.0398H33.9612V27.2798V29.5198V31.7598V33.9998H27.5V31.7598" stroke="#4C65FF" stroke-width="2"/>
<path d="M12.4221 27.2799V25.0399H5.96094V29.5199V33.9999H12.4221V31.7599" stroke="#4C65FF" stroke-width="2"/>
<path d="M10.8062 29.5203H18.3442" stroke="#4C65FF" stroke-width="2"/>
<path d="M21.0381 29.5203H28.5761" stroke="#4C65FF" stroke-width="2"/>
</svg>
