<svg width="40" height="40" viewBox="0 0 40 40" fill="none" xmlns="http://www.w3.org/2000/svg">
<path d="M29.1774 13.7778H30.8501C31.6855 13.7778 32.4867 14.1056 33.0774 14.689C33.6681 15.2724 34 16.0638 34 16.8889V23.1111C34 23.9362 33.6681 24.7276 33.0774 25.311C32.4867 25.8944 31.6855 26.2222 30.8501 26.2222H29.1774M19.8597 34C22.366 34 24.7696 33.0167 26.5418 31.2663C28.314 29.516 29.3096 27.142 29.3096 24.6667V20V15.3333C29.3096 12.858 28.314 10.484 26.5418 8.73367C24.7696 6.98333 22.366 6 19.8597 6C17.3535 6 14.9499 6.98333 13.1777 8.73367C11.4055 10.484 10.4099 12.858 10.4099 15.3333V20.7778V26.2222H9.14994C8.31453 26.2222 7.51333 25.8944 6.9226 25.311C6.33187 24.7276 6 23.9362 6 23.1111V16.8889C6 16.0638 6.33187 15.2724 6.9226 14.689C7.51333 14.1056 8.31453 13.7778 9.14994 13.7778H10.5421M14.8513 23.2496C16.3524 24.1783 18.0885 24.6695 19.8597 24.6667C21.631 24.6695 23.3671 24.1783 24.8682 23.2496" stroke="#4C65FF" stroke-width="2"/>
</svg>
