<svg width="24" height="24" viewBox="0 0 24 24" fill="none" xmlns="http://www.w3.org/2000/svg">
<path d="M5.22668 9.64861H8.1304V18.9999H5.22668V9.64861ZM6.68394 5C7.61227 5 8.36788 5.75675 8.36788 6.68647C8.36788 7.61619 7.61227 8.37295 6.68394 8.37295C5.75022 8.37295 5 7.61619 5 6.68647C5 5.75675 5.75022 5 6.68394 5Z" fill="#007BB6"/>
<path d="M9.95312 9.6489H12.7327V10.93H12.7705C13.1591 10.1948 14.1036 9.42188 15.5177 9.42188C18.4538 9.42188 18.9989 11.357 18.9989 13.8759V19.0002H16.1006V14.4543C16.1006 13.3678 16.0844 11.9732 14.5948 11.9732C13.0835 11.9732 12.8568 13.157 12.8568 14.3732V19.0002H9.95852V9.6489H9.95312Z" fill="#007BB6"/>
</svg>
