<svg width="105" height="28" viewBox="0 0 105 28" fill="none" xmlns="http://www.w3.org/2000/svg">
<path d="M0 22.5094C0 22.762 0.202105 22.9894 0.48 22.9894H2.12211C2.37474 22.9894 2.60211 22.762 2.60211 22.5094V16.0673H6.41684L9.77684 22.762C9.82737 22.8631 9.97895 22.9894 10.1811 22.9894H12.1516C12.5811 22.9894 12.7579 22.5852 12.5811 22.2568L9.12 15.8399C11.3179 14.9557 12.8589 13.0357 12.8589 10.7115C12.8589 7.70518 10.3832 5.30518 7.35158 5.30518H0.48C0.202105 5.30518 0 5.53254 0 5.78518V22.5094ZM2.65263 13.8947V7.7557H7.14947C8.79158 7.7557 10.2316 9.11991 10.2316 10.762C10.2316 12.5052 8.79158 13.8947 7.14947 13.8947H2.65263Z" fill="white"/>
<path d="M16.842 22.5094C16.842 22.762 17.0441 22.9894 17.322 22.9894H27.4273C27.7052 22.9894 27.9073 22.762 27.9073 22.5094V21.1199C27.9073 20.8673 27.7052 20.6399 27.4273 20.6399H19.4441V15.2083H26.1894C26.442 15.2083 26.6694 15.0062 26.6694 14.7283V13.3136C26.6694 13.061 26.442 12.8336 26.1894 12.8336H19.4441V7.67991H27.4273C27.7052 7.67991 27.9073 7.45255 27.9073 7.19991V5.78518C27.9073 5.53254 27.7052 5.30518 27.4273 5.30518H17.322C17.0441 5.30518 16.842 5.53254 16.842 5.78518V22.5094Z" fill="white"/>
<path d="M30.3157 14.1727C30.3157 19.2254 34.3325 23.2422 39.3851 23.2422C39.8399 23.2422 40.3957 23.2169 40.8757 23.1412L43.6041 27.739C43.7051 27.9159 43.9073 27.9917 44.0083 27.9917H45.9788C46.383 27.9917 46.6104 27.5875 46.383 27.2338L43.3262 22.3833C46.383 20.8675 48.4799 17.7601 48.4799 14.1727C48.4799 9.1201 44.4378 5.05273 39.3851 5.05273C34.3325 5.05273 30.3157 9.1201 30.3157 14.1727ZM32.842 14.1727C32.842 10.5854 35.7978 7.57905 39.3851 7.57905C42.9978 7.57905 45.9536 10.5854 45.9536 14.1727C45.9536 17.7854 42.9978 20.7159 39.3851 20.7159C35.7978 20.7159 32.842 17.7854 32.842 14.1727Z" fill="url(#paint0_linear_240_663)"/>
<path d="M50.9471 14.1727C50.9471 19.2254 55.0145 23.2422 60.0671 23.2422C62.3155 23.2422 64.4882 22.459 66.206 20.7917C66.3829 20.6148 66.4334 20.2864 66.2313 20.1096L65.0692 18.9727C64.9176 18.8464 64.6903 18.8212 64.4629 18.998C63.2503 19.9327 61.9618 20.6654 60.1176 20.6654C56.505 20.6654 53.7513 17.659 53.7513 14.1222C53.7513 10.5854 56.4797 7.55379 60.0924 7.55379C61.6587 7.55379 63.2755 8.21063 64.4629 9.24642C64.6903 9.47379 64.9176 9.47379 65.0945 9.24642L66.206 8.10958C66.4082 7.90747 66.4082 7.60431 66.1808 7.40221C64.4629 5.91168 62.6187 5.05273 60.0671 5.05273C55.0145 5.05273 50.9471 9.1201 50.9471 14.1727Z" fill="white"/>
<path d="M69.6844 22.5094C69.6844 22.762 69.9118 22.9894 70.1644 22.9894H71.8318C72.0844 22.9894 72.3118 22.762 72.3118 22.5094V5.78518C72.3118 5.53254 72.0844 5.30518 71.8318 5.30518H70.1644C69.9118 5.30518 69.6844 5.53254 69.6844 5.78518V22.5094Z" fill="white"/>
<path d="M80.1771 22.5094C80.1771 22.762 80.4045 22.9894 80.6571 22.9894H82.3245C82.5772 22.9894 82.8045 22.762 82.8045 22.5094V7.67991H86.9224C87.2003 7.67991 87.4024 7.45255 87.4024 7.19991V5.78518C87.4024 5.53254 87.2003 5.30518 86.9224 5.30518H76.0593C75.7814 5.30518 75.5793 5.53254 75.5793 5.78518V7.19991C75.5793 7.45255 75.7814 7.67991 76.0593 7.67991H80.1771V22.5094Z" fill="white"/>
<path d="M96.0965 22.5094C96.0965 22.762 96.2986 22.9894 96.5765 22.9894H98.2439C98.4965 22.9894 98.7239 22.762 98.7239 22.5094V14.4504L104.711 6.03781C104.913 5.70939 104.711 5.30518 104.307 5.30518H102.412C102.235 5.30518 102.084 5.43149 102.008 5.53254L97.4354 11.9747L92.8628 5.53254C92.787 5.43149 92.6607 5.30518 92.4586 5.30518H90.5891C90.1849 5.30518 89.9828 5.70939 90.1849 6.03781L96.0965 14.4757V22.5094Z" fill="white"/>
<defs>
<linearGradient id="paint0_linear_240_663" x1="39.3978" y1="5.05273" x2="39.3978" y2="27.9917" gradientUnits="userSpaceOnUse">
<stop stop-color="#4C65FF"/>
<stop offset="1" stop-color="#002DD8"/>
</linearGradient>
</defs>
</svg>
