<svg width="24" height="24" viewBox="0 0 24 24" fill="none" xmlns="http://www.w3.org/2000/svg">
<path d="M17.0026 8.80104C17.0026 7.52773 16.4968 6.30656 15.5964 5.40619C14.696 4.50582 13.4749 4 12.2016 4C10.9282 4 9.70708 4.50582 8.80671 5.40619C7.90634 6.30656 7.40052 7.52773 7.40052 8.80104C7.40052 14.4023 5 16.0026 5 16.0026H19.4031C19.4031 16.0026 17.0026 14.4023 17.0026 8.80104Z" stroke="#4C65FF" stroke-width="1.5" stroke-linecap="round" stroke-linejoin="round"/>
<path d="M13.585 19.2026C13.4443 19.4452 13.2424 19.6465 12.9995 19.7864C12.7565 19.9263 12.4811 20 12.2007 20C11.9203 20 11.6449 19.9263 11.402 19.7864C11.159 19.6465 10.9571 19.4452 10.8164 19.2026" stroke="#4C65FF" stroke-width="1.5" stroke-linecap="round" stroke-linejoin="round"/>
</svg>
