<svg width="24" height="24" viewBox="0 0 24 24" fill="none" xmlns="http://www.w3.org/2000/svg">
<path d="M15.0026 8.80104C15.0026 7.52773 14.4968 6.30656 13.5964 5.40619C12.696 4.50582 11.4749 4 10.2016 4C8.92825 4 7.70708 4.50582 6.80671 5.40619C5.90634 6.30656 5.40052 7.52773 5.40052 8.80104C5.40052 14.4023 3 16.0026 3 16.0026H9.20156" stroke="#637381" stroke-width="1.5" stroke-linecap="round" stroke-linejoin="round"/>
<path d="M10.9995 19.7864C10.7565 19.9263 10.4811 20 10.2007 20C9.92034 20 9.6449 19.9263 9.40195 19.7864C9.15901 19.6465 8.95709 19.4452 8.81641 19.2026" stroke="#637381" stroke-width="1.5" stroke-linecap="round" stroke-linejoin="round"/>
<path d="M14.7904 12V11.25C14.3762 11.25 14.0404 11.5858 14.0404 12H14.7904ZM16.6728 12H17.4228C17.4228 11.5858 17.087 11.25 16.6728 11.25V12ZM14.7904 13.1018L15.0404 13.809C15.3401 13.703 15.5404 13.4197 15.5404 13.1018H14.7904ZM13.8964 13.6189L13.5214 14.2684C13.7968 14.4274 14.1425 14.3955 14.3841 14.1887L13.8964 13.6189ZM12.9412 13.0674L13.3162 12.4179C12.9575 12.2108 12.4988 12.3337 12.2917 12.6924L12.9412 13.0674ZM12 14.6976L11.3505 14.3226C11.251 14.4949 11.2241 14.6996 11.2756 14.8917C11.327 15.0839 11.4527 15.2477 11.625 15.3471L12 14.6976ZM12.9551 15.249L13.6926 15.3851C13.7502 15.0729 13.605 14.7582 13.3301 14.5995L12.9551 15.249ZM12.9551 16.2807L13.3301 16.9302C13.6051 16.7715 13.7503 16.4567 13.6927 16.1445L12.9551 16.2807ZM12 16.8322L11.625 16.1826C11.4527 16.2821 11.327 16.4459 11.2756 16.638C11.2241 16.8302 11.251 17.0349 11.3505 17.2072L12 16.8322ZM12.9412 18.4623L12.2917 18.8373C12.3911 19.0096 12.5549 19.1353 12.7471 19.1868C12.9392 19.2382 13.1439 19.2113 13.3162 19.1118L12.9412 18.4623ZM13.8966 17.9107L14.3843 17.3409C14.1427 17.1341 13.797 17.1022 13.5216 17.2612L13.8966 17.9107ZM14.7904 18.4276H15.5404C15.5404 18.1097 15.3401 17.8264 15.0404 17.7204L14.7904 18.4276ZM14.7904 19.5294H14.0404C14.0404 19.9436 14.3762 20.2794 14.7904 20.2794V19.5294ZM16.6728 19.5294V20.2794C17.087 20.2794 17.4228 19.9436 17.4228 19.5294H16.6728ZM16.6728 18.4276L16.4229 17.7204C16.1232 17.8264 15.9228 18.1097 15.9228 18.4276H16.6728ZM17.5661 17.9112L17.9411 17.2617C17.6658 17.1027 17.3201 17.1346 17.0785 17.3413L17.5661 17.9112ZM18.5207 18.4623L18.1457 19.1118C18.3179 19.2113 18.5226 19.2382 18.7148 19.1868C18.9069 19.1353 19.0707 19.0096 19.1702 18.8373L18.5207 18.4623ZM19.4618 16.8322L20.1114 17.2072C20.3185 16.8484 20.1956 16.3897 19.8368 16.1826L19.4618 16.8322ZM18.508 16.2814L17.7705 16.145C17.7127 16.4573 17.8579 16.7722 18.133 16.931L18.508 16.2814ZM18.508 15.2483L18.133 14.5988C17.858 14.7576 17.7128 15.0723 17.7705 15.3846L18.508 15.2483ZM19.4618 14.6976L19.8368 15.3471C20.1956 15.14 20.3185 14.6813 20.1114 14.3226L19.4618 14.6976ZM18.5207 13.0674L19.1702 12.6924C18.9631 12.3337 18.5044 12.2108 18.1457 12.4179L18.5207 13.0674ZM17.5663 13.6184L17.0787 14.1883C17.3203 14.395 17.666 14.4269 17.9413 14.268L17.5663 13.6184ZM16.6728 13.1018H15.9228C15.9228 13.4197 16.1232 13.703 16.4229 13.809L16.6728 13.1018ZM14.7904 12.75H16.6728V11.25H14.7904V12.75ZM15.5404 13.1018V12H14.0404V13.1018H15.5404ZM14.3841 14.1887C14.5763 14.0241 14.7983 13.8945 15.0404 13.809L14.5405 12.3947C14.1213 12.5429 13.7386 12.7667 13.4086 13.0492L14.3841 14.1887ZM12.5662 13.717L13.5214 14.2684L14.2714 12.9694L13.3162 12.4179L12.5662 13.717ZM12.6495 15.0726L13.5907 13.4424L12.2917 12.6924L11.3505 14.3226L12.6495 15.0726ZM13.3301 14.5995L12.375 14.0481L11.625 15.3471L12.5801 15.8985L13.3301 14.5995ZM13.6581 15.7647C13.6581 15.6345 13.67 15.5077 13.6926 15.3851L12.2175 15.1129C12.1784 15.3248 12.1581 15.5427 12.1581 15.7647H13.6581ZM13.6927 16.1445C13.67 16.0219 13.6581 15.895 13.6581 15.7647H12.1581C12.1581 15.9868 12.1784 16.2049 12.2176 16.4169L13.6927 16.1445ZM12.375 17.4817L13.3301 16.9302L12.5801 15.6312L11.625 16.1826L12.375 17.4817ZM13.5907 18.0873L12.6495 16.4572L11.3505 17.2072L12.2917 18.8373L13.5907 18.0873ZM13.5216 17.2612L12.5662 17.8128L13.3162 19.1118L14.2716 18.5602L13.5216 17.2612ZM15.0404 17.7204C14.7984 17.6349 14.5764 17.5054 14.3843 17.3409L13.4089 18.4805C13.7388 18.7629 14.1214 18.9866 14.5405 19.1347L15.0404 17.7204ZM15.5404 19.5294V18.4276H14.0404V19.5294H15.5404ZM16.6728 18.7794H14.7904V20.2794H16.6728V18.7794ZM15.9228 18.4276V19.5294H17.4228V18.4276H15.9228ZM17.0785 17.3413C16.8865 17.5056 16.6647 17.635 16.4229 17.7204L16.9227 19.1347C17.3415 18.9867 17.7238 18.7632 18.0536 18.4811L17.0785 17.3413ZM18.8957 17.8128L17.9411 17.2617L17.1911 18.5607L18.1457 19.1118L18.8957 17.8128ZM18.8123 16.4572L17.8711 18.0873L19.1702 18.8373L20.1114 17.2072L18.8123 16.4572ZM18.133 16.931L19.0868 17.4817L19.8368 16.1826L18.883 15.6319L18.133 16.931ZM17.8051 15.7647C17.8051 15.8952 17.7932 16.0223 17.7705 16.145L19.2455 16.4178C19.2847 16.2055 19.3051 15.9872 19.3051 15.7647H17.8051ZM17.7705 15.3846C17.7932 15.5073 17.8051 15.6343 17.8051 15.7647H19.3051C19.3051 15.5424 19.2848 15.3242 19.2455 15.112L17.7705 15.3846ZM19.0868 14.0481L18.133 14.5988L18.883 15.8978L19.8368 15.3471L19.0868 14.0481ZM17.8711 13.4424L18.8123 15.0726L20.1114 14.3226L19.1702 12.6924L17.8711 13.4424ZM17.9413 14.268L18.8957 13.717L18.1457 12.4179L17.1913 12.9689L17.9413 14.268ZM16.4229 13.809C16.6647 13.8945 16.8866 14.0239 17.0787 14.1883L18.0539 13.0486C17.7241 12.7664 17.3416 12.5428 16.9227 12.3947L16.4229 13.809ZM15.9228 12V13.1018H17.4228V12H15.9228Z" fill="#637381"/>
</svg>
