<svg width="24" height="24" viewBox="0 0 24 24" fill="none" xmlns="http://www.w3.org/2000/svg">
<path d="M17.3333 8.33333C17.3333 6.91885 16.7714 5.56229 15.7712 4.5621C14.771 3.5619 13.4145 3 12 3C10.5855 3 9.22896 3.5619 8.22876 4.5621C7.22857 5.56229 6.66667 6.91885 6.66667 8.33333C6.66667 14.5556 4 16.3333 4 16.3333H20C20 16.3333 17.3333 14.5556 17.3333 8.33333Z" stroke="#212B36" stroke-width="2" stroke-linecap="round" stroke-linejoin="round"/>
<path d="M13.5365 19.8887C13.3802 20.1581 13.1559 20.3817 12.886 20.5371C12.6161 20.6926 12.3102 20.7744 11.9987 20.7744C11.6873 20.7744 11.3813 20.6926 11.1114 20.5371C10.8415 20.3817 10.6172 20.1581 10.4609 19.8887" stroke="#212B36" stroke-width="2" stroke-linecap="round" stroke-linejoin="round"/>
</svg>
