<svg width="38" height="48" viewBox="0 0 38 48" fill="none" xmlns="http://www.w3.org/2000/svg">
<path opacity="0.35" d="M4 47.5H33.5C35.433 47.5 37 45.933 37 44V9.20711L28.2929 0.5H4C2.067 0.5 0.5 2.06701 0.5 4V44C0.5 45.933 2.067 47.5 4 47.5Z" fill="#CCCCCC" stroke="#CCCCCC"/>
<path d="M0 36H37.5V44C37.5 46.2091 35.7091 48 33.5 48H4C1.79086 48 0 46.2091 0 44V36Z" fill="#F94C43"/>
<path d="M16.1172 41.9336C16.1172 42.5768 15.9701 43.0951 15.6758 43.4883C15.3815 43.8815 14.9831 44.0781 14.4805 44.0781C13.9674 44.0781 13.5638 43.9154 13.2695 43.5898V45.625H12.5469V39.7734H13.207L13.2422 40.2422C13.5365 39.8776 13.9453 39.6953 14.4688 39.6953C14.9766 39.6953 15.3776 39.8867 15.6719 40.2695C15.9688 40.6523 16.1172 41.1849 16.1172 41.8672V41.9336ZM15.3945 41.8516C15.3945 41.375 15.293 40.9987 15.0898 40.7227C14.8867 40.4466 14.6081 40.3086 14.2539 40.3086C13.8164 40.3086 13.4883 40.5026 13.2695 40.8906V42.9102C13.4857 43.2956 13.8164 43.4883 14.2617 43.4883C14.6081 43.4883 14.8828 43.3516 15.0859 43.0781C15.2917 42.8021 15.3945 42.3932 15.3945 41.8516ZM17.1133 41.8516C17.1133 41.2031 17.2669 40.6823 17.5742 40.2891C17.8815 39.8932 18.2839 39.6953 18.7812 39.6953C19.276 39.6953 19.668 39.8646 19.957 40.2031V38H20.6797V44H20.0156L19.9805 43.5469C19.6914 43.901 19.2891 44.0781 18.7734 44.0781C18.2839 44.0781 17.8841 43.8776 17.5742 43.4766C17.2669 43.0755 17.1133 42.5521 17.1133 41.9062V41.8516ZM17.8359 41.9336C17.8359 42.4128 17.9349 42.7878 18.1328 43.0586C18.3307 43.3294 18.6042 43.4648 18.9531 43.4648C19.4115 43.4648 19.7461 43.2591 19.957 42.8477V40.9062C19.7409 40.5078 19.4089 40.3086 18.9609 40.3086C18.6068 40.3086 18.3307 40.4453 18.1328 40.7188C17.9349 40.9922 17.8359 41.3971 17.8359 41.9336ZM22.4102 44V40.332H21.7422V39.7734H22.4102V39.3398C22.4102 38.8867 22.5312 38.5365 22.7734 38.2891C23.0156 38.0417 23.3581 37.918 23.8008 37.918C23.9674 37.918 24.1328 37.9401 24.2969 37.9844L24.2578 38.5703C24.1354 38.5469 24.0052 38.5352 23.8672 38.5352C23.6328 38.5352 23.4518 38.6042 23.3242 38.7422C23.1966 38.8776 23.1328 39.0729 23.1328 39.3281V39.7734H24.0352V40.332H23.1328V44H22.4102Z" fill="white"/>
<path d="M37.5 9H29.5C28.9477 9 28.5 8.55228 28.5 8V0L37.5 9Z" fill="#919EAB"/>
<path d="M30 14L7 14" stroke="#637381" stroke-width="1.5" stroke-linecap="round" stroke-linejoin="round"/>
<path d="M30 20H7" stroke="#637381" stroke-width="1.5" stroke-linecap="round" stroke-linejoin="round"/>
<path d="M20 26H7" stroke="#637381" stroke-width="1.5" stroke-linecap="round" stroke-linejoin="round"/>
</svg>
