<svg width="40" height="40" viewBox="0 0 40 40" fill="none" xmlns="http://www.w3.org/2000/svg">
<path opacity="0.35" d="M10.332 34.5H29.7695C30.598 34.5 31.2695 33.8284 31.2695 33V11.4534C31.2695 11.0556 31.1115 10.6741 30.8302 10.3928L26.3768 5.93934C26.0955 5.65804 25.7139 5.5 25.3161 5.5H10.332C9.5036 5.5 8.83203 6.17157 8.83203 7V33C8.83203 33.8284 9.5036 34.5 10.332 34.5Z" fill="#CCCCCC" stroke="#CCCCCC"/>
<path d="M8.33203 27.5H31.7695V33C31.7695 34.1046 30.8741 35 29.7695 35H10.332C9.22746 35 8.33203 34.1046 8.33203 33V27.5Z" fill="#F94C43"/>
<path d="M18.4492 31.2046C18.4492 31.6131 18.3564 31.9395 18.1709 32.1836C17.9854 32.4261 17.7363 32.5474 17.4238 32.5474C17.1341 32.5474 16.9022 32.4521 16.728 32.2617V33.5142H16.1348V29.8569H16.6816L16.7061 30.1255C16.8802 29.9139 17.117 29.8081 17.4165 29.8081C17.7388 29.8081 17.991 29.9285 18.1733 30.1694C18.3573 30.4087 18.4492 30.7415 18.4492 31.168V31.2046ZM17.8584 31.1533C17.8584 30.8896 17.8055 30.6805 17.6997 30.5259C17.5955 30.3713 17.4458 30.2939 17.2505 30.2939C17.008 30.2939 16.8338 30.394 16.728 30.5942V31.7661C16.8354 31.9712 17.0112 32.0737 17.2554 32.0737C17.4442 32.0737 17.5915 31.998 17.6973 31.8467C17.8047 31.6937 17.8584 31.4626 17.8584 31.1533Z" fill="white"/>
<path d="M18.9985 31.1582C18.9985 30.7513 19.0929 30.425 19.2817 30.1792C19.4705 29.9318 19.7236 29.8081 20.041 29.8081C20.321 29.8081 20.5472 29.9058 20.7197 30.1011V28.7485H21.313V32.4985H20.7759L20.7466 32.2251C20.5692 32.4399 20.3324 32.5474 20.0361 32.5474C19.7269 32.5474 19.4762 32.4229 19.2842 32.1738C19.0938 31.9248 18.9985 31.5863 18.9985 31.1582ZM19.5918 31.2095C19.5918 31.478 19.6431 31.688 19.7456 31.8394C19.8498 31.9891 19.9971 32.064 20.1875 32.064C20.43 32.064 20.6074 31.9557 20.7197 31.7393V30.6113C20.6107 30.3997 20.4349 30.2939 20.1924 30.2939C20.0003 30.2939 19.8522 30.3704 19.748 30.5234C19.6439 30.6748 19.5918 30.9035 19.5918 31.2095Z" fill="white"/>
<path d="M22.2969 32.4985V30.2964H21.894V29.8569H22.2969V29.6152C22.2969 29.3223 22.3783 29.096 22.541 28.9365C22.7038 28.777 22.9316 28.6973 23.2246 28.6973C23.3288 28.6973 23.4395 28.7119 23.5566 28.7412L23.542 29.2051C23.4769 29.1921 23.4012 29.1855 23.3149 29.1855C23.0317 29.1855 22.8901 29.3312 22.8901 29.6226V29.8569H23.4272V30.2964H22.8901V32.4985H22.2969Z" fill="white"/>
<path d="M31.7695 10.625H27.1445C26.5922 10.625 26.1445 10.1773 26.1445 9.625V5L31.7695 10.625Z" fill="#919EAB"/>
<path d="M27.082 13.75L12.707 13.75" stroke="#637381" stroke-linecap="round" stroke-linejoin="round"/>
<path d="M27.082 17.5H12.707" stroke="#637381" stroke-linecap="round" stroke-linejoin="round"/>
<path d="M20.832 21.25H12.707" stroke="#637381" stroke-linecap="round" stroke-linejoin="round"/>
</svg>
