<svg width="24" height="24" viewBox="0 0 24 24" fill="none" xmlns="http://www.w3.org/2000/svg">
<path d="M15 6H16.5C16.8978 6 17.2794 6.16389 17.5607 6.45561C17.842 6.74733 18 7.143 18 7.55556V18.4444C18 18.857 17.842 19.2527 17.5607 19.5444C17.2794 19.8361 16.8978 20 16.5 20H7.5C7.10218 20 6.72064 19.8361 6.43934 19.5444C6.15804 19.2527 6 18.857 6 18.4444V7.55556C6 7.143 6.15804 6.74733 6.43934 6.45561C6.72064 6.16389 7.10218 6 7.5 6H9" stroke="#637381" stroke-width="1.5" stroke-linecap="round" stroke-linejoin="round"/>
<path d="M12 12H15" stroke="#637381" stroke-width="1.5" stroke-linecap="round" stroke-linejoin="round"/>
<path d="M12 16H15" stroke="#637381" stroke-width="1.5" stroke-linecap="round" stroke-linejoin="round"/>
<path d="M9 12H9.00333" stroke="#637381" stroke-width="1.5" stroke-linecap="round" stroke-linejoin="round"/>
<path d="M9 16H9.00333" stroke="#637381" stroke-width="1.5" stroke-linecap="round" stroke-linejoin="round"/>
<rect x="9" y="5" width="6" height="3" stroke="#637381" stroke-width="1.5" stroke-linecap="round" stroke-linejoin="round"/>
</svg>
