<svg width="24" height="24" viewBox="0 0 24 24" fill="none" xmlns="http://www.w3.org/2000/svg">
<path d="M6 2H2V6" stroke="#4C65FF" stroke-width="2" stroke-linecap="round" stroke-linejoin="round"/>
<path d="M6 22H2V18" stroke="#4C65FF" stroke-width="2" stroke-linecap="round" stroke-linejoin="round"/>
<path d="M18 2H22V6" stroke="#4C65FF" stroke-width="2" stroke-linecap="round" stroke-linejoin="round"/>
<path d="M18 22H22V18" stroke="#4C65FF" stroke-width="2" stroke-linecap="round" stroke-linejoin="round"/>
<path d="M17 19V19C17 16.7909 15.2091 15 13 15H11C8.79086 15 7 16.7909 7 19V19" stroke="#4C65FF" stroke-width="2" stroke-linecap="round" stroke-linejoin="round"/>
<path d="M12 12C13.6569 12 15 10.6569 15 9C15 7.34315 13.6569 6 12 6C10.3431 6 9 7.34315 9 9C9 10.6569 10.3431 12 12 12Z" stroke="#4C65FF" stroke-width="2" stroke-linecap="round" stroke-linejoin="round"/>
</svg>
