<svg width="24" height="24" viewBox="0 0 24 24" fill="none" xmlns="http://www.w3.org/2000/svg">
<path d="M9.64706 15.2942H8.70588C6.1069 15.2942 4 17.4011 4 20.0001" stroke="#4C65FF" stroke-width="1.5" stroke-linecap="round" stroke-linejoin="round"/>
<path d="M15.2943 12.4705V11.7205C14.8801 11.7205 14.5443 12.0562 14.5443 12.4705H15.2943ZM17.1767 12.4705H17.9267C17.9267 12.0562 17.5909 11.7205 17.1767 11.7205V12.4705ZM15.2943 13.5723L15.5443 14.2794C15.844 14.1735 16.0443 13.8902 16.0443 13.5723H15.2943ZM14.4003 14.0894L14.0253 14.7389C14.3007 14.8979 14.6464 14.8659 14.888 14.6591L14.4003 14.0894ZM13.4451 13.5379L13.8201 12.8884C13.4614 12.6813 13.0027 12.8042 12.7956 13.1629L13.4451 13.5379ZM12.5039 15.1681L11.8544 14.7931C11.7549 14.9653 11.728 15.17 11.7795 15.3622C11.8309 15.5543 11.9566 15.7181 12.1289 15.8176L12.5039 15.1681ZM13.459 15.7195L14.1965 15.8556C14.2541 15.5434 14.1089 15.2287 13.834 15.07L13.459 15.7195ZM13.459 16.7512L13.834 17.4007C14.109 17.2419 14.2542 16.9272 14.1966 16.615L13.459 16.7512ZM12.5039 17.3026L12.1289 16.6531C11.9566 16.7525 11.8309 16.9164 11.7795 17.1085C11.728 17.3006 11.7549 17.5053 11.8544 17.6776L12.5039 17.3026ZM13.4451 18.9328L12.7956 19.3078C12.895 19.48 13.0588 19.6057 13.251 19.6572C13.4431 19.7087 13.6478 19.6818 13.8201 19.5823L13.4451 18.9328ZM14.4005 18.3812L14.8882 17.8114C14.6466 17.6046 14.3009 17.5727 14.0255 17.7316L14.4005 18.3812ZM15.2943 18.898H16.0443C16.0443 18.5802 15.844 18.2968 15.5443 18.1909L15.2943 18.898ZM15.2943 19.9999H14.5443C14.5443 20.4141 14.8801 20.7499 15.2943 20.7499V19.9999ZM17.1767 19.9999V20.7499C17.5909 20.7499 17.9267 20.4141 17.9267 19.9999H17.1767ZM17.1767 18.898L16.9268 18.1909C16.6271 18.2968 16.4267 18.5802 16.4267 18.898H17.1767ZM18.07 18.3816L18.445 17.7321C18.1697 17.5732 17.824 17.6051 17.5824 17.8117L18.07 18.3816ZM19.0246 18.9328L18.6496 19.5823C18.8218 19.6818 19.0265 19.7087 19.2187 19.6572C19.4108 19.6057 19.5746 19.48 19.6741 19.3078L19.0246 18.9328ZM19.9657 17.3026L20.6153 17.6776C20.8224 17.3189 20.6995 16.8602 20.3407 16.6531L19.9657 17.3026ZM19.0119 16.7519L18.2744 16.6155C18.2166 16.9278 18.3618 17.2426 18.6369 17.4014L19.0119 16.7519ZM19.0119 15.7188L18.6369 15.0692C18.3619 15.228 18.2167 15.5428 18.2744 15.8551L19.0119 15.7188ZM19.9657 15.1681L20.3407 15.8176C20.6995 15.6105 20.8224 15.1518 20.6153 14.7931L19.9657 15.1681ZM19.0246 13.5379L19.6741 13.1629C19.467 12.8042 19.0083 12.6813 18.6496 12.8884L19.0246 13.5379ZM18.0702 14.0889L17.5826 14.6588C17.8242 14.8655 18.1699 14.8974 18.4452 14.7384L18.0702 14.0889ZM17.1767 13.5723H16.4267C16.4267 13.8902 16.6271 14.1735 16.9268 14.2794L17.1767 13.5723ZM15.2943 13.2205H17.1767V11.7205H15.2943V13.2205ZM16.0443 13.5723V12.4705H14.5443V13.5723H16.0443ZM14.888 14.6591C15.0802 14.4946 15.3022 14.365 15.5443 14.2794L15.0444 12.8652C14.6252 13.0133 14.2425 13.2371 13.9125 13.5196L14.888 14.6591ZM13.0701 14.1874L14.0253 14.7389L14.7753 13.4399L13.8201 12.8884L13.0701 14.1874ZM13.1534 15.5431L14.0946 13.9129L12.7956 13.1629L11.8544 14.7931L13.1534 15.5431ZM13.834 15.07L12.8789 14.5186L12.1289 15.8176L13.084 16.369L13.834 15.07ZM14.162 16.2352C14.162 16.1049 14.1739 15.9781 14.1965 15.8556L12.7214 15.5834C12.6823 15.7952 12.662 16.0132 12.662 16.2352H14.162ZM14.1966 16.615C14.1739 16.4924 14.162 16.3655 14.162 16.2352H12.662C12.662 16.4573 12.6824 16.6754 12.7215 16.8874L14.1966 16.615ZM12.8789 17.9521L13.834 17.4007L13.084 16.1016L12.1289 16.6531L12.8789 17.9521ZM14.0946 18.5578L13.1534 16.9276L11.8544 17.6776L12.7956 19.3078L14.0946 18.5578ZM14.0255 17.7316L13.0701 18.2833L13.8201 19.5823L14.7755 19.0307L14.0255 17.7316ZM15.5443 18.1909C15.3023 18.1054 15.0803 17.9758 14.8882 17.8114L13.9128 18.951C14.2427 19.2333 14.6253 19.457 15.0444 19.6052L15.5443 18.1909ZM16.0443 19.9999V18.898H14.5443V19.9999H16.0443ZM17.1767 19.2499H15.2943V20.7499H17.1767V19.2499ZM16.4267 18.898V19.9999H17.9267V18.898H16.4267ZM17.5824 17.8117C17.3904 17.976 17.1686 18.1054 16.9268 18.1909L17.4266 19.6052C17.8454 19.4571 18.2278 19.2337 18.5575 18.9516L17.5824 17.8117ZM19.3996 18.2833L18.445 17.7321L17.695 19.0312L18.6496 19.5823L19.3996 18.2833ZM19.3162 16.9276L18.375 18.5578L19.6741 19.3078L20.6153 17.6776L19.3162 16.9276ZM18.6369 17.4014L19.5907 17.9521L20.3407 16.6531L19.3869 16.1024L18.6369 17.4014ZM18.3091 16.2352C18.3091 16.3657 18.2971 16.4927 18.2744 16.6155L19.7494 16.8883C19.7886 16.676 19.8091 16.4576 19.8091 16.2352H18.3091ZM18.2744 15.8551C18.2971 15.9777 18.3091 16.1047 18.3091 16.2352H19.8091C19.8091 16.0128 19.7887 15.7946 19.7494 15.5824L18.2744 15.8551ZM19.5907 14.5186L18.6369 15.0692L19.3869 16.3683L20.3407 15.8176L19.5907 14.5186ZM18.375 13.9129L19.3162 15.5431L20.6153 14.7931L19.6741 13.1629L18.375 13.9129ZM18.4452 14.7384L19.3996 14.1874L18.6496 12.8884L17.6952 13.4394L18.4452 14.7384ZM16.9268 14.2794C17.1686 14.3649 17.3905 14.4944 17.5826 14.6588L18.5578 13.519C18.228 13.2368 17.8455 13.0132 17.4266 12.8652L16.9268 14.2794ZM16.4267 12.4705V13.5723H17.9267V12.4705H16.4267Z" fill="#4C65FF"/>
<path d="M10.5889 11.5294C12.6681 11.5294 14.3536 9.8439 14.3536 7.76471C14.3536 5.68552 12.6681 4 10.5889 4C8.50973 4 6.82422 5.68552 6.82422 7.76471C6.82422 9.8439 8.50973 11.5294 10.5889 11.5294Z" stroke="#4C65FF" stroke-width="1.5" stroke-linecap="round" stroke-linejoin="round"/>
</svg>
