<svg width="24" height="24" viewBox="0 0 24 24" fill="none" xmlns="http://www.w3.org/2000/svg">
<path d="M10 16H9C6.23858 16 4 18.2386 4 21" stroke="#637381" stroke-width="1.5" stroke-linecap="round" stroke-linejoin="round"/>
<path d="M15.9648 13V12.25C15.5506 12.25 15.2148 12.5858 15.2148 13H15.9648ZM17.9648 13H18.7148C18.7148 12.5858 18.3791 12.25 17.9648 12.25V13ZM15.9648 14.1707L16.2148 14.8778C16.5145 14.7719 16.7148 14.4886 16.7148 14.1707H15.9648ZM15.0149 14.7201L14.6399 15.3696C14.9153 15.5286 15.261 15.4967 15.5026 15.2898L15.0149 14.7201ZM14 14.1342L14.375 13.4846C14.0163 13.2775 13.5576 13.4004 13.3505 13.7592L14 14.1342ZM13 15.8662L12.3505 15.4912C12.1434 15.8499 12.2663 16.3086 12.625 16.5157L13 15.8662ZM14.0148 16.4521L14.7523 16.5882C14.8099 16.276 14.6647 15.9613 14.3898 15.8026L14.0148 16.4521ZM14.0148 17.5483L14.3898 18.1978C14.6648 18.039 14.81 17.7243 14.7524 17.4121L14.0148 17.5483ZM13 18.1342L12.625 17.4846C12.4527 17.5841 12.327 17.7479 12.2756 17.94C12.2241 18.1322 12.251 18.3369 12.3505 18.5092L13 18.1342ZM14 19.8662L13.3505 20.2412C13.4499 20.4135 13.6138 20.5392 13.8059 20.5907C13.998 20.6421 14.2027 20.6152 14.375 20.5157L14 19.8662ZM15.0151 19.2801L15.5028 18.7103C15.2612 18.5036 14.9155 18.4716 14.6401 18.6306L15.0151 19.2801ZM15.9648 19.8293H16.7148C16.7148 19.5114 16.5145 19.2281 16.2148 19.1222L15.9648 19.8293ZM15.9648 21H15.2148C15.2148 21.4142 15.5506 21.75 15.9648 21.75V21ZM17.9648 21V21.75C18.3791 21.75 18.7148 21.4142 18.7148 21H17.9648ZM17.9648 19.8293L17.7149 19.1222C17.4152 19.2281 17.2148 19.5114 17.2148 19.8293H17.9648ZM18.914 19.2806L19.289 18.6311C19.0136 18.4722 18.668 18.5041 18.4264 18.7107L18.914 19.2806ZM19.9282 19.8662L19.5532 20.5157C19.9119 20.7228 20.3706 20.5999 20.5777 20.2412L19.9282 19.8662ZM20.9282 18.1342L21.5777 18.5092C21.7848 18.1504 21.6619 17.6917 21.3032 17.4846L20.9282 18.1342ZM19.9147 17.549L19.1772 17.4126C19.1195 17.7249 19.2647 18.0397 19.5397 18.1985L19.9147 17.549ZM19.9148 16.4513L19.5398 15.8018C19.2648 15.9606 19.1196 16.2753 19.1773 16.5876L19.9148 16.4513ZM20.9282 15.8662L21.3032 16.5157C21.6619 16.3086 21.7848 15.8499 21.5777 15.4912L20.9282 15.8662ZM19.9282 14.1342L20.5777 13.7592C20.3706 13.4004 19.9119 13.2775 19.5532 13.4846L19.9282 14.1342ZM18.9142 14.7196L18.4266 15.2895C18.6682 15.4962 19.0139 15.5281 19.2892 15.3691L18.9142 14.7196ZM17.9648 14.1707H17.2148C17.2148 14.4886 17.4152 14.7719 17.7149 14.8778L17.9648 14.1707ZM15.9648 13.75H17.9648V12.25H15.9648V13.75ZM16.7148 14.1707V13H15.2148V14.1707H16.7148ZM15.5026 15.2898C15.7111 15.1113 15.9521 14.9707 16.2148 14.8778L15.7149 13.4636C15.275 13.619 14.8734 13.8539 14.5271 14.1504L15.5026 15.2898ZM13.625 14.7837L14.6399 15.3696L15.3899 14.0706L14.375 13.4846L13.625 14.7837ZM13.6495 16.2412L14.6495 14.5092L13.3505 13.7592L12.3505 15.4912L13.6495 16.2412ZM14.3898 15.8026L13.375 15.2167L12.625 16.5157L13.6398 17.1016L14.3898 15.8026ZM14.7148 17C14.7148 16.8587 14.7278 16.7212 14.7523 16.5882L13.2772 16.316C13.2362 16.5383 13.2148 16.767 13.2148 17H14.7148ZM14.7524 17.4121C14.7278 17.279 14.7148 17.1413 14.7148 17H13.2148C13.2148 17.2332 13.2362 17.462 13.2773 17.6844L14.7524 17.4121ZM13.375 18.7837L14.3898 18.1978L13.6398 16.8987L12.625 17.4846L13.375 18.7837ZM14.6495 19.4912L13.6495 17.7592L12.3505 18.5092L13.3505 20.2412L14.6495 19.4912ZM14.6401 18.6306L13.625 19.2167L14.375 20.5157L15.3901 19.9296L14.6401 18.6306ZM16.2148 19.1222C15.9521 19.0293 15.7113 18.8888 15.5028 18.7103L14.5274 19.8499C14.8737 20.1463 15.2752 20.381 15.7149 20.5364L16.2148 19.1222ZM16.7148 21V19.8293H15.2148V21H16.7148ZM17.9648 20.25H15.9648V21.75H17.9648V20.25ZM17.2148 19.8293V21H18.7148V19.8293H17.2148ZM18.4264 18.7107C18.2181 18.889 17.9774 19.0294 17.7149 19.1222L18.2148 20.5364C18.6542 20.3811 19.0554 20.1466 19.4015 19.8506L18.4264 18.7107ZM20.3032 19.2167L19.289 18.6311L18.539 19.9302L19.5532 20.5157L20.3032 19.2167ZM20.2787 17.7592L19.2787 19.4912L20.5777 20.2412L21.5777 18.5092L20.2787 17.7592ZM19.5397 18.1985L20.5532 18.7837L21.3032 17.4846L20.2897 16.8995L19.5397 18.1985ZM19.2148 17C19.2148 17.1416 19.2019 17.2794 19.1772 17.4126L20.6522 17.6854C20.6934 17.4627 20.7148 17.2335 20.7148 17H19.2148ZM19.1773 16.5876C19.2019 16.7208 19.2148 16.8585 19.2148 17H20.7148C20.7148 16.7667 20.6934 16.5376 20.6523 16.315L19.1773 16.5876ZM20.5532 15.2167L19.5398 15.8018L20.2898 17.1008L21.3032 16.5157L20.5532 15.2167ZM19.2787 14.5092L20.2787 16.2412L21.5777 15.4912L20.5777 13.7592L19.2787 14.5092ZM19.2892 15.3691L20.3032 14.7837L19.5532 13.4846L18.5392 14.0701L19.2892 15.3691ZM17.7149 14.8778C17.9774 14.9706 18.2182 15.1111 18.4266 15.2895L19.4018 14.1497C19.0557 13.8535 18.6543 13.6189 18.2148 13.4636L17.7149 14.8778ZM17.2148 13V14.1707H18.7148V13H17.2148Z" fill="#637381"/>
<path d="M11 12C13.2091 12 15 10.2091 15 8C15 5.79086 13.2091 4 11 4C8.79086 4 7 5.79086 7 8C7 10.2091 8.79086 12 11 12Z" stroke="#637381" stroke-width="1.5" stroke-linecap="round" stroke-linejoin="round"/>
</svg>
